G04 #@! TF.FileFunction,Legend,Bot*
%FSLAX46Y46*%
G04 Gerber Fmt 4.6, Leading zero omitted, Abs format (unit mm)*
G04 Created by KiCad (PCBNEW 4.0.7) date Tuesday, 22 May 2018 'PMt' 14:30:25*
%MOMM*%
%LPD*%
G01*
G04 APERTURE LIST*
%ADD10C,0.100000*%
%ADD11C,0.300000*%
G04 APERTURE END LIST*
D10*
D11*
X114389999Y-56548571D02*
X114389999Y-55048571D01*
X113532856Y-56548571D02*
X114175713Y-55691429D01*
X113532856Y-55048571D02*
X114389999Y-55905714D01*
X112247142Y-56548571D02*
X112247142Y-55762857D01*
X112318571Y-55620000D01*
X112461428Y-55548571D01*
X112747142Y-55548571D01*
X112889999Y-55620000D01*
X112247142Y-56477143D02*
X112389999Y-56548571D01*
X112747142Y-56548571D01*
X112889999Y-56477143D01*
X112961428Y-56334286D01*
X112961428Y-56191429D01*
X112889999Y-56048571D01*
X112747142Y-55977143D01*
X112389999Y-55977143D01*
X112247142Y-55905714D01*
X111318570Y-56548571D02*
X111461428Y-56477143D01*
X111532856Y-56334286D01*
X111532856Y-55048571D01*
X110532856Y-56548571D02*
X110675714Y-56477143D01*
X110747142Y-56334286D01*
X110747142Y-55048571D01*
X109390000Y-56477143D02*
X109532857Y-56548571D01*
X109818571Y-56548571D01*
X109961428Y-56477143D01*
X110032857Y-56334286D01*
X110032857Y-55762857D01*
X109961428Y-55620000D01*
X109818571Y-55548571D01*
X109532857Y-55548571D01*
X109390000Y-55620000D01*
X109318571Y-55762857D01*
X109318571Y-55905714D01*
X110032857Y-56048571D01*
X108604286Y-55048571D02*
X108747143Y-55334286D01*
X108032857Y-56477143D02*
X107890000Y-56548571D01*
X107604285Y-56548571D01*
X107461428Y-56477143D01*
X107390000Y-56334286D01*
X107390000Y-56262857D01*
X107461428Y-56120000D01*
X107604285Y-56048571D01*
X107818571Y-56048571D01*
X107961428Y-55977143D01*
X108032857Y-55834286D01*
X108032857Y-55762857D01*
X107961428Y-55620000D01*
X107818571Y-55548571D01*
X107604285Y-55548571D01*
X107461428Y-55620000D01*
X105604285Y-55762857D02*
X105104285Y-55762857D01*
X104889999Y-56548571D02*
X105604285Y-56548571D01*
X105604285Y-55048571D01*
X104889999Y-55048571D01*
X104032856Y-56548571D02*
X104175714Y-56477143D01*
X104247142Y-56334286D01*
X104247142Y-55048571D01*
X102890000Y-56477143D02*
X103032857Y-56548571D01*
X103318571Y-56548571D01*
X103461428Y-56477143D01*
X103532857Y-56334286D01*
X103532857Y-55762857D01*
X103461428Y-55620000D01*
X103318571Y-55548571D01*
X103032857Y-55548571D01*
X102890000Y-55620000D01*
X102818571Y-55762857D01*
X102818571Y-55905714D01*
X103532857Y-56048571D01*
X101532857Y-56477143D02*
X101675714Y-56548571D01*
X101961428Y-56548571D01*
X102104286Y-56477143D01*
X102175714Y-56405714D01*
X102247143Y-56262857D01*
X102247143Y-55834286D01*
X102175714Y-55691429D01*
X102104286Y-55620000D01*
X101961428Y-55548571D01*
X101675714Y-55548571D01*
X101532857Y-55620000D01*
X101104286Y-55548571D02*
X100532857Y-55548571D01*
X100890000Y-55048571D02*
X100890000Y-56334286D01*
X100818572Y-56477143D01*
X100675714Y-56548571D01*
X100532857Y-56548571D01*
X100032857Y-56548571D02*
X100032857Y-55548571D01*
X100032857Y-55834286D02*
X99961429Y-55691429D01*
X99890000Y-55620000D01*
X99747143Y-55548571D01*
X99604286Y-55548571D01*
X98890000Y-56548571D02*
X99032858Y-56477143D01*
X99104286Y-56405714D01*
X99175715Y-56262857D01*
X99175715Y-55834286D01*
X99104286Y-55691429D01*
X99032858Y-55620000D01*
X98890000Y-55548571D01*
X98675715Y-55548571D01*
X98532858Y-55620000D01*
X98461429Y-55691429D01*
X98390000Y-55834286D01*
X98390000Y-56262857D01*
X98461429Y-56405714D01*
X98532858Y-56477143D01*
X98675715Y-56548571D01*
X98890000Y-56548571D01*
X97747143Y-55548571D02*
X97747143Y-56548571D01*
X97747143Y-55691429D02*
X97675715Y-55620000D01*
X97532857Y-55548571D01*
X97318572Y-55548571D01*
X97175715Y-55620000D01*
X97104286Y-55762857D01*
X97104286Y-56548571D01*
X96390000Y-56548571D02*
X96390000Y-55548571D01*
X96390000Y-55048571D02*
X96461429Y-55120000D01*
X96390000Y-55191429D01*
X96318572Y-55120000D01*
X96390000Y-55048571D01*
X96390000Y-55191429D01*
X95032857Y-56477143D02*
X95175714Y-56548571D01*
X95461428Y-56548571D01*
X95604286Y-56477143D01*
X95675714Y-56405714D01*
X95747143Y-56262857D01*
X95747143Y-55834286D01*
X95675714Y-55691429D01*
X95604286Y-55620000D01*
X95461428Y-55548571D01*
X95175714Y-55548571D01*
X95032857Y-55620000D01*
X94461429Y-56477143D02*
X94318572Y-56548571D01*
X94032857Y-56548571D01*
X93890000Y-56477143D01*
X93818572Y-56334286D01*
X93818572Y-56262857D01*
X93890000Y-56120000D01*
X94032857Y-56048571D01*
X94247143Y-56048571D01*
X94390000Y-55977143D01*
X94461429Y-55834286D01*
X94461429Y-55762857D01*
X94390000Y-55620000D01*
X94247143Y-55548571D01*
X94032857Y-55548571D01*
X93890000Y-55620000D01*
X115675713Y-59098571D02*
X115675713Y-57598571D01*
X114818570Y-59098571D01*
X114818570Y-57598571D01*
X113461427Y-59098571D02*
X113461427Y-58312857D01*
X113532856Y-58170000D01*
X113675713Y-58098571D01*
X113961427Y-58098571D01*
X114104284Y-58170000D01*
X113461427Y-59027143D02*
X113604284Y-59098571D01*
X113961427Y-59098571D01*
X114104284Y-59027143D01*
X114175713Y-58884286D01*
X114175713Y-58741429D01*
X114104284Y-58598571D01*
X113961427Y-58527143D01*
X113604284Y-58527143D01*
X113461427Y-58455714D01*
X112961427Y-58098571D02*
X112389998Y-58098571D01*
X112747141Y-57598571D02*
X112747141Y-58884286D01*
X112675713Y-59027143D01*
X112532855Y-59098571D01*
X112389998Y-59098571D01*
X111247141Y-58098571D02*
X111247141Y-59098571D01*
X111889998Y-58098571D02*
X111889998Y-58884286D01*
X111818570Y-59027143D01*
X111675712Y-59098571D01*
X111461427Y-59098571D01*
X111318570Y-59027143D01*
X111247141Y-58955714D01*
X110532855Y-59098571D02*
X110532855Y-58098571D01*
X110532855Y-58384286D02*
X110461427Y-58241429D01*
X110389998Y-58170000D01*
X110247141Y-58098571D01*
X110104284Y-58098571D01*
X109818570Y-58098571D02*
X109247141Y-58098571D01*
X109604284Y-59098571D02*
X109604284Y-57812857D01*
X109532856Y-57670000D01*
X109389998Y-57598571D01*
X109247141Y-57598571D01*
X108104284Y-59098571D02*
X108104284Y-58312857D01*
X108175713Y-58170000D01*
X108318570Y-58098571D01*
X108604284Y-58098571D01*
X108747141Y-58170000D01*
X108104284Y-59027143D02*
X108247141Y-59098571D01*
X108604284Y-59098571D01*
X108747141Y-59027143D01*
X108818570Y-58884286D01*
X108818570Y-58741429D01*
X108747141Y-58598571D01*
X108604284Y-58527143D01*
X108247141Y-58527143D01*
X108104284Y-58455714D01*
X106747141Y-58098571D02*
X106747141Y-59312857D01*
X106818570Y-59455714D01*
X106889998Y-59527143D01*
X107032855Y-59598571D01*
X107247141Y-59598571D01*
X107389998Y-59527143D01*
X106747141Y-59027143D02*
X106889998Y-59098571D01*
X107175712Y-59098571D01*
X107318570Y-59027143D01*
X107389998Y-58955714D01*
X107461427Y-58812857D01*
X107461427Y-58384286D01*
X107389998Y-58241429D01*
X107318570Y-58170000D01*
X107175712Y-58098571D01*
X106889998Y-58098571D01*
X106747141Y-58170000D01*
X106104284Y-59027143D02*
X105961427Y-59098571D01*
X105675712Y-59098571D01*
X105532855Y-59027143D01*
X105461427Y-58884286D01*
X105461427Y-58812857D01*
X105532855Y-58670000D01*
X105675712Y-58598571D01*
X105889998Y-58598571D01*
X106032855Y-58527143D01*
X106104284Y-58384286D01*
X106104284Y-58312857D01*
X106032855Y-58170000D01*
X105889998Y-58098571D01*
X105675712Y-58098571D01*
X105532855Y-58170000D01*
X104818569Y-58098571D02*
X104818569Y-59598571D01*
X104818569Y-58170000D02*
X104675712Y-58098571D01*
X104389998Y-58098571D01*
X104247141Y-58170000D01*
X104175712Y-58241429D01*
X104104283Y-58384286D01*
X104104283Y-58812857D01*
X104175712Y-58955714D01*
X104247141Y-59027143D01*
X104389998Y-59098571D01*
X104675712Y-59098571D01*
X104818569Y-59027143D01*
X103461426Y-59098571D02*
X103461426Y-58098571D01*
X103461426Y-58384286D02*
X103389998Y-58241429D01*
X103318569Y-58170000D01*
X103175712Y-58098571D01*
X103032855Y-58098571D01*
X101747141Y-58098571D02*
X102675712Y-59098571D01*
X102318569Y-59098571D02*
X102461427Y-59027143D01*
X102532855Y-58955714D01*
X102604284Y-58812857D01*
X102604284Y-58384286D01*
X102532855Y-58241429D01*
X102461427Y-58170000D01*
X102318569Y-58098571D01*
X102104284Y-58098571D01*
X101961427Y-58170000D01*
X101889998Y-58241429D01*
X101818569Y-58384286D01*
X101818569Y-58812857D01*
X101889998Y-58955714D01*
X101961427Y-59027143D01*
X102104284Y-59098571D01*
X102318569Y-59098571D01*
X101318569Y-58098571D02*
X100961426Y-59098571D01*
X100604284Y-58098571D01*
X99461427Y-59027143D02*
X99604284Y-59098571D01*
X99889998Y-59098571D01*
X100032855Y-59027143D01*
X100104284Y-58884286D01*
X100104284Y-58312857D01*
X100032855Y-58170000D01*
X99889998Y-58098571D01*
X99604284Y-58098571D01*
X99461427Y-58170000D01*
X99389998Y-58312857D01*
X99389998Y-58455714D01*
X100104284Y-58598571D01*
X97675713Y-57741429D02*
X97604284Y-57670000D01*
X97461427Y-57598571D01*
X97104284Y-57598571D01*
X96961427Y-57670000D01*
X96889998Y-57741429D01*
X96818570Y-57884286D01*
X96818570Y-58027143D01*
X96889998Y-58241429D01*
X97747141Y-59098571D01*
X96818570Y-59098571D01*
X95889999Y-57598571D02*
X95747142Y-57598571D01*
X95604285Y-57670000D01*
X95532856Y-57741429D01*
X95461427Y-57884286D01*
X95389999Y-58170000D01*
X95389999Y-58527143D01*
X95461427Y-58812857D01*
X95532856Y-58955714D01*
X95604285Y-59027143D01*
X95747142Y-59098571D01*
X95889999Y-59098571D01*
X96032856Y-59027143D01*
X96104285Y-58955714D01*
X96175713Y-58812857D01*
X96247142Y-58527143D01*
X96247142Y-58170000D01*
X96175713Y-57884286D01*
X96104285Y-57741429D01*
X96032856Y-57670000D01*
X95889999Y-57598571D01*
X93961428Y-59098571D02*
X94818571Y-59098571D01*
X94389999Y-59098571D02*
X94389999Y-57598571D01*
X94532856Y-57812857D01*
X94675714Y-57955714D01*
X94818571Y-58027143D01*
X93104285Y-58241429D02*
X93247143Y-58170000D01*
X93318571Y-58098571D01*
X93390000Y-57955714D01*
X93390000Y-57884286D01*
X93318571Y-57741429D01*
X93247143Y-57670000D01*
X93104285Y-57598571D01*
X92818571Y-57598571D01*
X92675714Y-57670000D01*
X92604285Y-57741429D01*
X92532857Y-57884286D01*
X92532857Y-57955714D01*
X92604285Y-58098571D01*
X92675714Y-58170000D01*
X92818571Y-58241429D01*
X93104285Y-58241429D01*
X93247143Y-58312857D01*
X93318571Y-58384286D01*
X93390000Y-58527143D01*
X93390000Y-58812857D01*
X93318571Y-58955714D01*
X93247143Y-59027143D01*
X93104285Y-59098571D01*
X92818571Y-59098571D01*
X92675714Y-59027143D01*
X92604285Y-58955714D01*
X92532857Y-58812857D01*
X92532857Y-58527143D01*
X92604285Y-58384286D01*
X92675714Y-58312857D01*
X92818571Y-58241429D01*
X114247143Y-61577143D02*
X114032857Y-61648571D01*
X113675714Y-61648571D01*
X113532857Y-61577143D01*
X113461428Y-61505714D01*
X113390000Y-61362857D01*
X113390000Y-61220000D01*
X113461428Y-61077143D01*
X113532857Y-61005714D01*
X113675714Y-60934286D01*
X113961428Y-60862857D01*
X114104286Y-60791429D01*
X114175714Y-60720000D01*
X114247143Y-60577143D01*
X114247143Y-60434286D01*
X114175714Y-60291429D01*
X114104286Y-60220000D01*
X113961428Y-60148571D01*
X113604286Y-60148571D01*
X113390000Y-60220000D01*
X112532857Y-61648571D02*
X112675715Y-61577143D01*
X112747143Y-61505714D01*
X112818572Y-61362857D01*
X112818572Y-60934286D01*
X112747143Y-60791429D01*
X112675715Y-60720000D01*
X112532857Y-60648571D01*
X112318572Y-60648571D01*
X112175715Y-60720000D01*
X112104286Y-60791429D01*
X112032857Y-60934286D01*
X112032857Y-61362857D01*
X112104286Y-61505714D01*
X112175715Y-61577143D01*
X112318572Y-61648571D01*
X112532857Y-61648571D01*
X111175714Y-61648571D02*
X111318572Y-61577143D01*
X111390000Y-61434286D01*
X111390000Y-60148571D01*
X110747143Y-60648571D02*
X110390000Y-61648571D01*
X110032858Y-60648571D01*
X108818572Y-61648571D02*
X108818572Y-60862857D01*
X108890001Y-60720000D01*
X109032858Y-60648571D01*
X109318572Y-60648571D01*
X109461429Y-60720000D01*
X108818572Y-61577143D02*
X108961429Y-61648571D01*
X109318572Y-61648571D01*
X109461429Y-61577143D01*
X109532858Y-61434286D01*
X109532858Y-61291429D01*
X109461429Y-61148571D01*
X109318572Y-61077143D01*
X108961429Y-61077143D01*
X108818572Y-61005714D01*
X108104286Y-60648571D02*
X108104286Y-61648571D01*
X108104286Y-60791429D02*
X108032858Y-60720000D01*
X107890000Y-60648571D01*
X107675715Y-60648571D01*
X107532858Y-60720000D01*
X107461429Y-60862857D01*
X107461429Y-61648571D01*
X106104286Y-60648571D02*
X106104286Y-61862857D01*
X106175715Y-62005714D01*
X106247143Y-62077143D01*
X106390000Y-62148571D01*
X106604286Y-62148571D01*
X106747143Y-62077143D01*
X106104286Y-61577143D02*
X106247143Y-61648571D01*
X106532857Y-61648571D01*
X106675715Y-61577143D01*
X106747143Y-61505714D01*
X106818572Y-61362857D01*
X106818572Y-60934286D01*
X106747143Y-60791429D01*
X106675715Y-60720000D01*
X106532857Y-60648571D01*
X106247143Y-60648571D01*
X106104286Y-60720000D01*
X105461429Y-61577143D02*
X105318572Y-61648571D01*
X105032857Y-61648571D01*
X104890000Y-61577143D01*
X104818572Y-61434286D01*
X104818572Y-61362857D01*
X104890000Y-61220000D01*
X105032857Y-61148571D01*
X105247143Y-61148571D01*
X105390000Y-61077143D01*
X105461429Y-60934286D01*
X105461429Y-60862857D01*
X105390000Y-60720000D01*
X105247143Y-60648571D01*
X105032857Y-60648571D01*
X104890000Y-60720000D01*
X104175714Y-61648571D02*
X104175714Y-60148571D01*
X104032857Y-61077143D02*
X103604286Y-61648571D01*
X103604286Y-60648571D02*
X104175714Y-61220000D01*
X102747142Y-61648571D02*
X102890000Y-61577143D01*
X102961428Y-61505714D01*
X103032857Y-61362857D01*
X103032857Y-60934286D01*
X102961428Y-60791429D01*
X102890000Y-60720000D01*
X102747142Y-60648571D01*
X102532857Y-60648571D01*
X102390000Y-60720000D01*
X102318571Y-60791429D01*
X102247142Y-60934286D01*
X102247142Y-61362857D01*
X102318571Y-61505714D01*
X102390000Y-61577143D01*
X102532857Y-61648571D01*
X102747142Y-61648571D01*
X101389999Y-61648571D02*
X101532857Y-61577143D01*
X101604285Y-61434286D01*
X101604285Y-60148571D01*
X100247143Y-61577143D02*
X100390000Y-61648571D01*
X100675714Y-61648571D01*
X100818571Y-61577143D01*
X100890000Y-61434286D01*
X100890000Y-60862857D01*
X100818571Y-60720000D01*
X100675714Y-60648571D01*
X100390000Y-60648571D01*
X100247143Y-60720000D01*
X100175714Y-60862857D01*
X100175714Y-61005714D01*
X100890000Y-61148571D01*
X99532857Y-60648571D02*
X99532857Y-61648571D01*
X99532857Y-60791429D02*
X99461429Y-60720000D01*
X99318571Y-60648571D01*
X99104286Y-60648571D01*
X98961429Y-60720000D01*
X98890000Y-60862857D01*
X98890000Y-61648571D01*
X96961429Y-61648571D02*
X96675714Y-61648571D01*
X96532857Y-61577143D01*
X96461429Y-61505714D01*
X96318571Y-61291429D01*
X96247143Y-61005714D01*
X96247143Y-60434286D01*
X96318571Y-60291429D01*
X96390000Y-60220000D01*
X96532857Y-60148571D01*
X96818571Y-60148571D01*
X96961429Y-60220000D01*
X97032857Y-60291429D01*
X97104286Y-60434286D01*
X97104286Y-60791429D01*
X97032857Y-60934286D01*
X96961429Y-61005714D01*
X96818571Y-61077143D01*
X96532857Y-61077143D01*
X96390000Y-61005714D01*
X96318571Y-60934286D01*
X96247143Y-60791429D01*
X95604286Y-61505714D02*
X95532858Y-61577143D01*
X95604286Y-61648571D01*
X95675715Y-61577143D01*
X95604286Y-61505714D01*
X95604286Y-61648571D01*
X94390000Y-60862857D02*
X94175714Y-60934286D01*
X94104286Y-61005714D01*
X94032857Y-61148571D01*
X94032857Y-61362857D01*
X94104286Y-61505714D01*
X94175714Y-61577143D01*
X94318572Y-61648571D01*
X94890000Y-61648571D01*
X94890000Y-60148571D01*
X94390000Y-60148571D01*
X94247143Y-60220000D01*
X94175714Y-60291429D01*
X94104286Y-60434286D01*
X94104286Y-60577143D01*
X94175714Y-60720000D01*
X94247143Y-60791429D01*
X94390000Y-60862857D01*
X94890000Y-60862857D01*
M02*
