G04 #@! TF.FileFunction,Copper,L1,Top,Signal*
%FSLAX46Y46*%
G04 Gerber Fmt 4.6, Leading zero omitted, Abs format (unit mm)*
G04 Created by KiCad (PCBNEW 4.0.7) date Tuesday, 22 May 2018 'PMt' 14:30:25*
%MOMM*%
%LPD*%
G01*
G04 APERTURE LIST*
%ADD10C,0.100000*%
%ADD11C,1.524000*%
%ADD12O,0.899160X1.501140*%
%ADD13R,1.600000X1.600000*%
%ADD14O,1.600000X1.600000*%
%ADD15R,2.235200X2.235200*%
%ADD16C,1.600000*%
%ADD17O,3.048000X1.727200*%
%ADD18O,1.998980X1.998980*%
%ADD19R,1.998980X1.998980*%
%ADD20O,1.727200X1.727200*%
%ADD21R,1.727200X1.727200*%
%ADD22C,0.600000*%
%ADD23C,0.250000*%
%ADD24C,0.254000*%
G04 APERTURE END LIST*
D10*
D11*
X119380000Y-102108000D03*
X121920000Y-102108000D03*
X124460000Y-102108000D03*
X127000000Y-102108000D03*
D12*
X177800000Y-99060000D03*
X179070000Y-99060000D03*
X176530000Y-99060000D03*
D13*
X163830000Y-87630000D03*
D14*
X163830000Y-80010000D03*
D15*
X160020000Y-57150000D03*
X168910000Y-57150000D03*
X160020000Y-72390000D03*
X168910000Y-72390000D03*
D16*
X171450000Y-87630000D03*
D14*
X171450000Y-80010000D03*
D16*
X180340000Y-114300000D03*
X180340000Y-119300000D03*
X167640000Y-120650000D03*
D14*
X167640000Y-113030000D03*
D16*
X173990000Y-120650000D03*
D14*
X173990000Y-113030000D03*
D16*
X161290000Y-113030000D03*
D14*
X161290000Y-120650000D03*
D17*
X166570000Y-138430000D03*
X166570000Y-133430000D03*
X179070000Y-138430000D03*
X179070000Y-133430000D03*
D18*
X181610000Y-60960000D03*
D19*
X181610000Y-55880000D03*
D18*
X181610000Y-58420000D03*
X181610000Y-73660000D03*
D19*
X181610000Y-68580000D03*
D18*
X181610000Y-71120000D03*
D16*
X161290000Y-99060000D03*
X169490000Y-99060000D03*
D20*
X97790000Y-85440000D03*
X99060000Y-87440000D03*
X100330000Y-85440000D03*
X101600000Y-87440000D03*
X102870000Y-85440000D03*
X104140000Y-87440000D03*
X105410000Y-85440000D03*
X106680000Y-87440000D03*
X107950000Y-85440000D03*
X109220000Y-87440000D03*
X110490000Y-85440000D03*
X111760000Y-87440000D03*
X113030000Y-85440000D03*
X114300000Y-87440000D03*
X115570000Y-85440000D03*
X116840000Y-87440000D03*
X118110000Y-85440000D03*
X119380000Y-87440000D03*
X120650000Y-89440000D03*
X118110000Y-89440000D03*
X115570000Y-89440000D03*
X113030000Y-89440000D03*
X110490000Y-89440000D03*
X107950000Y-89440000D03*
X105410000Y-89440000D03*
X102870000Y-89440000D03*
X100330000Y-89440000D03*
X97790000Y-89440000D03*
X119380000Y-91440000D03*
X116840000Y-91440000D03*
X114300000Y-91440000D03*
X111760000Y-91440000D03*
X109220000Y-91440000D03*
X106680000Y-91440000D03*
X104140000Y-91440000D03*
X101600000Y-91440000D03*
X99060000Y-91440000D03*
X120650000Y-85440000D03*
X146050000Y-85440000D03*
X147320000Y-87440000D03*
X121920000Y-91440000D03*
X124460000Y-91440000D03*
X127000000Y-91440000D03*
X129540000Y-91440000D03*
X132080000Y-91440000D03*
X134620000Y-91440000D03*
X137160000Y-91440000D03*
X139700000Y-91440000D03*
X142240000Y-91440000D03*
X144780000Y-91440000D03*
X123190000Y-89440000D03*
X125730000Y-89440000D03*
X128270000Y-89440000D03*
X130810000Y-89440000D03*
X133350000Y-89440000D03*
X135890000Y-89440000D03*
X138430000Y-89440000D03*
X140970000Y-89440000D03*
X143510000Y-89440000D03*
X146050000Y-89440000D03*
D21*
X147320000Y-91440000D03*
D20*
X144780000Y-87440000D03*
X143510000Y-85440000D03*
X142240000Y-87440000D03*
X140970000Y-85440000D03*
X139700000Y-87440000D03*
X138430000Y-85440000D03*
X137160000Y-87440000D03*
X135890000Y-85440000D03*
X134620000Y-87440000D03*
X133350000Y-85440000D03*
X132080000Y-87440000D03*
X130810000Y-85440000D03*
X129540000Y-87440000D03*
X128270000Y-85440000D03*
X127000000Y-87440000D03*
X125730000Y-85440000D03*
X124460000Y-87440000D03*
X123190000Y-85440000D03*
X121920000Y-87440000D03*
D22*
X152400000Y-82550000D03*
X181610000Y-82550000D03*
X173990000Y-63500000D03*
X167640000Y-62230000D03*
X175260000Y-71120000D03*
X120650000Y-93980000D03*
X116840000Y-93980000D03*
X115570000Y-104140000D03*
X176530000Y-105410000D03*
X114300000Y-105410000D03*
X125730000Y-97790000D03*
X120650000Y-97790000D03*
X154940000Y-97790000D03*
X156210000Y-66040000D03*
X175260000Y-64770000D03*
X156210000Y-119380000D03*
X157480000Y-68580000D03*
X156210000Y-92710000D03*
X113030000Y-99060000D03*
D23*
X132080000Y-91440000D02*
X132080000Y-90710000D01*
X132080000Y-90710000D02*
X130810000Y-89440000D01*
X135890000Y-88900000D02*
X135890000Y-90170000D01*
X163830000Y-80010000D02*
X163830000Y-74930000D01*
X161290000Y-72390000D02*
X160020000Y-72390000D01*
X163830000Y-74930000D02*
X161290000Y-72390000D01*
X152400000Y-82550000D02*
X152400000Y-58420000D01*
X152400000Y-58420000D02*
X153670000Y-57150000D01*
X160020000Y-57150000D02*
X153670000Y-57150000D01*
X181610000Y-82550000D02*
X181610000Y-73660000D01*
X173990000Y-63500000D02*
X173990000Y-69850000D01*
X167640000Y-62230000D02*
X167640000Y-58420000D01*
X168910000Y-57150000D02*
X167640000Y-58420000D01*
X173990000Y-69850000D02*
X175260000Y-71120000D01*
X171450000Y-80010000D02*
X171450000Y-73660000D01*
X170180000Y-72390000D02*
X168910000Y-72390000D01*
X171450000Y-73660000D02*
X170180000Y-72390000D01*
X123190000Y-89440000D02*
X120650000Y-89440000D01*
X120650000Y-89440000D02*
X121920000Y-90710000D01*
X121920000Y-90710000D02*
X121920000Y-91440000D01*
X124460000Y-91440000D02*
X121920000Y-91440000D01*
X120650000Y-93980000D02*
X120650000Y-92710000D01*
X177800000Y-99060000D02*
X177800000Y-104140000D01*
X115570000Y-95250000D02*
X116840000Y-93980000D01*
X115570000Y-104140000D02*
X115570000Y-95250000D01*
X177800000Y-104140000D02*
X176530000Y-105410000D01*
X120650000Y-92710000D02*
X121920000Y-91440000D01*
X139700000Y-91440000D02*
X139700000Y-100330000D01*
X137922000Y-102108000D02*
X139700000Y-100330000D01*
X137922000Y-102108000D02*
X127000000Y-102108000D01*
X138430000Y-89440000D02*
X138430000Y-99060000D01*
X137160000Y-100330000D02*
X138430000Y-99060000D01*
X125730000Y-100330000D02*
X137160000Y-100330000D01*
X125730000Y-100330000D02*
X124460000Y-101600000D01*
X124460000Y-102108000D02*
X124460000Y-101600000D01*
X114300000Y-91440000D02*
X114300000Y-105410000D01*
X125730000Y-97790000D02*
X125730000Y-89440000D01*
X119380000Y-91440000D02*
X119380000Y-96520000D01*
X119380000Y-96520000D02*
X120650000Y-97790000D01*
X154940000Y-67310000D02*
X156210000Y-66040000D01*
X154940000Y-97790000D02*
X154940000Y-67310000D01*
X176530000Y-55880000D02*
X181610000Y-55880000D01*
X175260000Y-57150000D02*
X176530000Y-55880000D01*
X175260000Y-64770000D02*
X175260000Y-57150000D01*
X154940000Y-101600000D02*
X154940000Y-97790000D01*
X154940000Y-118110000D02*
X154940000Y-101600000D01*
X156210000Y-119380000D02*
X154940000Y-118110000D01*
X156210000Y-69850000D02*
X157480000Y-68580000D01*
X156210000Y-92710000D02*
X156210000Y-69850000D01*
X110490000Y-89440000D02*
X113030000Y-89440000D01*
X111760000Y-91440000D02*
X109220000Y-91440000D01*
X109220000Y-91440000D02*
X110490000Y-90170000D01*
X110490000Y-90170000D02*
X110490000Y-89440000D01*
X113030000Y-99060000D02*
X111760000Y-97790000D01*
X111760000Y-97790000D02*
X111760000Y-91440000D01*
X171450000Y-87630000D02*
X171450000Y-92710000D01*
X170180000Y-98370000D02*
X169490000Y-99060000D01*
X170180000Y-93980000D02*
X170180000Y-98370000D01*
X171450000Y-92710000D02*
X170180000Y-93980000D01*
X110490000Y-88900000D02*
X110490000Y-90170000D01*
X166570000Y-133430000D02*
X166570000Y-138430000D01*
X166570000Y-133430000D02*
X166570000Y-125930000D01*
X167640000Y-124860000D02*
X167640000Y-120650000D01*
X166570000Y-125930000D02*
X167640000Y-124860000D01*
X167640000Y-120650000D02*
X173990000Y-120650000D01*
D24*
G36*
X185293000Y-148463000D02*
X89027000Y-148463000D01*
X89027000Y-133430000D01*
X164368703Y-133430000D01*
X164482777Y-134003489D01*
X164807633Y-134489670D01*
X165293814Y-134814526D01*
X165810000Y-134917202D01*
X165810000Y-136942798D01*
X165293814Y-137045474D01*
X164807633Y-137370330D01*
X164482777Y-137856511D01*
X164368703Y-138430000D01*
X164482777Y-139003489D01*
X164807633Y-139489670D01*
X165293814Y-139814526D01*
X165867303Y-139928600D01*
X167272697Y-139928600D01*
X167846186Y-139814526D01*
X168332367Y-139489670D01*
X168657223Y-139003489D01*
X168699882Y-138789026D01*
X176954642Y-138789026D01*
X176976473Y-138886157D01*
X177260127Y-139399868D01*
X177718778Y-139765925D01*
X178282600Y-139928600D01*
X178943000Y-139928600D01*
X178943000Y-138557000D01*
X179197000Y-138557000D01*
X179197000Y-139928600D01*
X179857400Y-139928600D01*
X180421222Y-139765925D01*
X180879873Y-139399868D01*
X181163527Y-138886157D01*
X181185358Y-138789026D01*
X181064217Y-138557000D01*
X179197000Y-138557000D01*
X178943000Y-138557000D01*
X177075783Y-138557000D01*
X176954642Y-138789026D01*
X168699882Y-138789026D01*
X168771297Y-138430000D01*
X168699883Y-138070974D01*
X176954642Y-138070974D01*
X177075783Y-138303000D01*
X178943000Y-138303000D01*
X178943000Y-136931400D01*
X179197000Y-136931400D01*
X179197000Y-138303000D01*
X181064217Y-138303000D01*
X181185358Y-138070974D01*
X181163527Y-137973843D01*
X180879873Y-137460132D01*
X180421222Y-137094075D01*
X179857400Y-136931400D01*
X179197000Y-136931400D01*
X178943000Y-136931400D01*
X178282600Y-136931400D01*
X177718778Y-137094075D01*
X177260127Y-137460132D01*
X176976473Y-137973843D01*
X176954642Y-138070974D01*
X168699883Y-138070974D01*
X168657223Y-137856511D01*
X168332367Y-137370330D01*
X167846186Y-137045474D01*
X167330000Y-136942798D01*
X167330000Y-134917202D01*
X167846186Y-134814526D01*
X168332367Y-134489670D01*
X168657223Y-134003489D01*
X168699882Y-133789026D01*
X176954642Y-133789026D01*
X176976473Y-133886157D01*
X177260127Y-134399868D01*
X177718778Y-134765925D01*
X178282600Y-134928600D01*
X178943000Y-134928600D01*
X178943000Y-133557000D01*
X179197000Y-133557000D01*
X179197000Y-134928600D01*
X179857400Y-134928600D01*
X180421222Y-134765925D01*
X180879873Y-134399868D01*
X181163527Y-133886157D01*
X181185358Y-133789026D01*
X181064217Y-133557000D01*
X179197000Y-133557000D01*
X178943000Y-133557000D01*
X177075783Y-133557000D01*
X176954642Y-133789026D01*
X168699882Y-133789026D01*
X168771297Y-133430000D01*
X168699883Y-133070974D01*
X176954642Y-133070974D01*
X177075783Y-133303000D01*
X178943000Y-133303000D01*
X178943000Y-131931400D01*
X179197000Y-131931400D01*
X179197000Y-133303000D01*
X181064217Y-133303000D01*
X181185358Y-133070974D01*
X181163527Y-132973843D01*
X180879873Y-132460132D01*
X180421222Y-132094075D01*
X179857400Y-131931400D01*
X179197000Y-131931400D01*
X178943000Y-131931400D01*
X178282600Y-131931400D01*
X177718778Y-132094075D01*
X177260127Y-132460132D01*
X176976473Y-132973843D01*
X176954642Y-133070974D01*
X168699883Y-133070974D01*
X168657223Y-132856511D01*
X168332367Y-132370330D01*
X167846186Y-132045474D01*
X167330000Y-131942798D01*
X167330000Y-126244802D01*
X168177401Y-125397401D01*
X168342148Y-125150839D01*
X168400000Y-124860000D01*
X168400000Y-121888646D01*
X168451800Y-121867243D01*
X168855824Y-121463923D01*
X168878215Y-121410000D01*
X172751354Y-121410000D01*
X172772757Y-121461800D01*
X173176077Y-121865824D01*
X173703309Y-122084750D01*
X174274187Y-122085248D01*
X174801800Y-121867243D01*
X175205824Y-121463923D01*
X175424750Y-120936691D01*
X175425248Y-120365813D01*
X175401255Y-120307745D01*
X179511861Y-120307745D01*
X179585995Y-120553864D01*
X180123223Y-120746965D01*
X180693454Y-120719778D01*
X181094005Y-120553864D01*
X181168139Y-120307745D01*
X180340000Y-119479605D01*
X179511861Y-120307745D01*
X175401255Y-120307745D01*
X175207243Y-119838200D01*
X174803923Y-119434176D01*
X174276691Y-119215250D01*
X173705813Y-119214752D01*
X173178200Y-119432757D01*
X172774176Y-119836077D01*
X172751785Y-119890000D01*
X168878646Y-119890000D01*
X168857243Y-119838200D01*
X168453923Y-119434176D01*
X167926691Y-119215250D01*
X167355813Y-119214752D01*
X166828200Y-119432757D01*
X166424176Y-119836077D01*
X166205250Y-120363309D01*
X166204752Y-120934187D01*
X166422757Y-121461800D01*
X166826077Y-121865824D01*
X166880000Y-121888215D01*
X166880000Y-124545198D01*
X166032599Y-125392599D01*
X165867852Y-125639161D01*
X165810000Y-125930000D01*
X165810000Y-131942798D01*
X165293814Y-132045474D01*
X164807633Y-132370330D01*
X164482777Y-132856511D01*
X164368703Y-133430000D01*
X89027000Y-133430000D01*
X89027000Y-120621887D01*
X159855000Y-120621887D01*
X159855000Y-120678113D01*
X159964233Y-121227264D01*
X160275302Y-121692811D01*
X160740849Y-122003880D01*
X161290000Y-122113113D01*
X161839151Y-122003880D01*
X162304698Y-121692811D01*
X162615767Y-121227264D01*
X162725000Y-120678113D01*
X162725000Y-120621887D01*
X162615767Y-120072736D01*
X162304698Y-119607189D01*
X161839151Y-119296120D01*
X161290000Y-119186887D01*
X160740849Y-119296120D01*
X160275302Y-119607189D01*
X159964233Y-120072736D01*
X159855000Y-120621887D01*
X89027000Y-120621887D01*
X89027000Y-85440000D01*
X96262041Y-85440000D01*
X96376115Y-86013489D01*
X96700971Y-86499670D01*
X97187152Y-86824526D01*
X97636680Y-86913943D01*
X97532041Y-87440000D01*
X97636680Y-87966057D01*
X97187152Y-88055474D01*
X96700971Y-88380330D01*
X96376115Y-88866511D01*
X96262041Y-89440000D01*
X96376115Y-90013489D01*
X96700971Y-90499670D01*
X97187152Y-90824526D01*
X97636680Y-90913943D01*
X97532041Y-91440000D01*
X97646115Y-92013489D01*
X97970971Y-92499670D01*
X98457152Y-92824526D01*
X99030641Y-92938600D01*
X99089359Y-92938600D01*
X99662848Y-92824526D01*
X100149029Y-92499670D01*
X100330000Y-92228828D01*
X100510971Y-92499670D01*
X100997152Y-92824526D01*
X101570641Y-92938600D01*
X101629359Y-92938600D01*
X102202848Y-92824526D01*
X102689029Y-92499670D01*
X102870000Y-92228828D01*
X103050971Y-92499670D01*
X103537152Y-92824526D01*
X104110641Y-92938600D01*
X104169359Y-92938600D01*
X104742848Y-92824526D01*
X105229029Y-92499670D01*
X105410000Y-92228828D01*
X105590971Y-92499670D01*
X106077152Y-92824526D01*
X106650641Y-92938600D01*
X106709359Y-92938600D01*
X107282848Y-92824526D01*
X107769029Y-92499670D01*
X107950000Y-92228828D01*
X108130971Y-92499670D01*
X108617152Y-92824526D01*
X109190641Y-92938600D01*
X109249359Y-92938600D01*
X109822848Y-92824526D01*
X110309029Y-92499670D01*
X110490000Y-92228828D01*
X110670971Y-92499670D01*
X111000000Y-92719520D01*
X111000000Y-97790000D01*
X111057852Y-98080839D01*
X111222599Y-98327401D01*
X112094878Y-99199680D01*
X112094838Y-99245167D01*
X112236883Y-99588943D01*
X112499673Y-99852192D01*
X112843201Y-99994838D01*
X113215167Y-99995162D01*
X113540000Y-99860944D01*
X113540000Y-104847537D01*
X113507808Y-104879673D01*
X113365162Y-105223201D01*
X113364838Y-105595167D01*
X113506883Y-105938943D01*
X113769673Y-106202192D01*
X114113201Y-106344838D01*
X114485167Y-106345162D01*
X114828943Y-106203117D01*
X115092192Y-105940327D01*
X115234838Y-105596799D01*
X115235162Y-105224833D01*
X115129690Y-104969570D01*
X115383201Y-105074838D01*
X115755167Y-105075162D01*
X116098943Y-104933117D01*
X116362192Y-104670327D01*
X116504838Y-104326799D01*
X116505162Y-103954833D01*
X116363117Y-103611057D01*
X116330000Y-103577882D01*
X116330000Y-103088213D01*
X118579392Y-103088213D01*
X118648857Y-103330397D01*
X119172302Y-103517144D01*
X119727368Y-103489362D01*
X120111143Y-103330397D01*
X120180608Y-103088213D01*
X119380000Y-102287605D01*
X118579392Y-103088213D01*
X116330000Y-103088213D01*
X116330000Y-101900302D01*
X117970856Y-101900302D01*
X117998638Y-102455368D01*
X118157603Y-102839143D01*
X118399787Y-102908608D01*
X119200395Y-102108000D01*
X118399787Y-101307392D01*
X118157603Y-101376857D01*
X117970856Y-101900302D01*
X116330000Y-101900302D01*
X116330000Y-101127787D01*
X118579392Y-101127787D01*
X119380000Y-101928395D01*
X120180608Y-101127787D01*
X120111143Y-100885603D01*
X119587698Y-100698856D01*
X119032632Y-100726638D01*
X118648857Y-100885603D01*
X118579392Y-101127787D01*
X116330000Y-101127787D01*
X116330000Y-95564802D01*
X116979680Y-94915122D01*
X117025167Y-94915162D01*
X117368943Y-94773117D01*
X117632192Y-94510327D01*
X117774838Y-94166799D01*
X117775162Y-93794833D01*
X117633117Y-93451057D01*
X117370327Y-93187808D01*
X117026799Y-93045162D01*
X116654833Y-93044838D01*
X116311057Y-93186883D01*
X116047808Y-93449673D01*
X115905162Y-93793201D01*
X115905121Y-93840077D01*
X115060000Y-94685198D01*
X115060000Y-92719520D01*
X115389029Y-92499670D01*
X115570000Y-92228828D01*
X115750971Y-92499670D01*
X116237152Y-92824526D01*
X116810641Y-92938600D01*
X116869359Y-92938600D01*
X117442848Y-92824526D01*
X117929029Y-92499670D01*
X118110000Y-92228828D01*
X118290971Y-92499670D01*
X118620000Y-92719520D01*
X118620000Y-96520000D01*
X118677852Y-96810839D01*
X118842599Y-97057401D01*
X119714878Y-97929680D01*
X119714838Y-97975167D01*
X119856883Y-98318943D01*
X120119673Y-98582192D01*
X120463201Y-98724838D01*
X120835167Y-98725162D01*
X121178943Y-98583117D01*
X121442192Y-98320327D01*
X121584838Y-97976799D01*
X121585162Y-97604833D01*
X121443117Y-97261057D01*
X121180327Y-96997808D01*
X120836799Y-96855162D01*
X120789923Y-96855121D01*
X120140000Y-96205198D01*
X120140000Y-94780633D01*
X120463201Y-94914838D01*
X120835167Y-94915162D01*
X121178943Y-94773117D01*
X121442192Y-94510327D01*
X121584838Y-94166799D01*
X121585162Y-93794833D01*
X121443117Y-93451057D01*
X121410000Y-93417882D01*
X121410000Y-93024802D01*
X121561644Y-92873158D01*
X121890641Y-92938600D01*
X121949359Y-92938600D01*
X122522848Y-92824526D01*
X123009029Y-92499670D01*
X123190000Y-92228828D01*
X123370971Y-92499670D01*
X123857152Y-92824526D01*
X124430641Y-92938600D01*
X124489359Y-92938600D01*
X124970000Y-92842995D01*
X124970000Y-97227537D01*
X124937808Y-97259673D01*
X124795162Y-97603201D01*
X124794838Y-97975167D01*
X124936883Y-98318943D01*
X125199673Y-98582192D01*
X125543201Y-98724838D01*
X125915167Y-98725162D01*
X126258943Y-98583117D01*
X126522192Y-98320327D01*
X126664838Y-97976799D01*
X126665162Y-97604833D01*
X126523117Y-97261057D01*
X126490000Y-97227882D01*
X126490000Y-92842995D01*
X126970641Y-92938600D01*
X127029359Y-92938600D01*
X127602848Y-92824526D01*
X128089029Y-92499670D01*
X128270000Y-92228828D01*
X128450971Y-92499670D01*
X128937152Y-92824526D01*
X129510641Y-92938600D01*
X129569359Y-92938600D01*
X130142848Y-92824526D01*
X130629029Y-92499670D01*
X130809992Y-92228839D01*
X131191510Y-92646821D01*
X131720973Y-92894968D01*
X131953000Y-92774469D01*
X131953000Y-91567000D01*
X132207000Y-91567000D01*
X132207000Y-92774469D01*
X132439027Y-92894968D01*
X132968490Y-92646821D01*
X133350000Y-92228848D01*
X133731510Y-92646821D01*
X134260973Y-92894968D01*
X134493000Y-92774469D01*
X134493000Y-91567000D01*
X134747000Y-91567000D01*
X134747000Y-92774469D01*
X134979027Y-92894968D01*
X135508490Y-92646821D01*
X135890000Y-92228848D01*
X136271510Y-92646821D01*
X136800973Y-92894968D01*
X137033000Y-92774469D01*
X137033000Y-91567000D01*
X134747000Y-91567000D01*
X134493000Y-91567000D01*
X132207000Y-91567000D01*
X131953000Y-91567000D01*
X131933000Y-91567000D01*
X131933000Y-91313000D01*
X131953000Y-91313000D01*
X131953000Y-91293000D01*
X132207000Y-91293000D01*
X132207000Y-91313000D01*
X134493000Y-91313000D01*
X134493000Y-91293000D01*
X134747000Y-91293000D01*
X134747000Y-91313000D01*
X137033000Y-91313000D01*
X137033000Y-91293000D01*
X137287000Y-91293000D01*
X137287000Y-91313000D01*
X137307000Y-91313000D01*
X137307000Y-91567000D01*
X137287000Y-91567000D01*
X137287000Y-92774469D01*
X137519027Y-92894968D01*
X137670000Y-92824210D01*
X137670000Y-98745198D01*
X136845198Y-99570000D01*
X125730000Y-99570000D01*
X125439160Y-99627852D01*
X125192599Y-99792599D01*
X124274361Y-100710837D01*
X124183339Y-100710758D01*
X123669697Y-100922990D01*
X123276371Y-101315630D01*
X123190051Y-101523512D01*
X123105010Y-101317697D01*
X122712370Y-100924371D01*
X122199100Y-100711243D01*
X121643339Y-100710758D01*
X121129697Y-100922990D01*
X120736371Y-101315630D01*
X120656605Y-101507727D01*
X120602397Y-101376857D01*
X120360213Y-101307392D01*
X119559605Y-102108000D01*
X120360213Y-102908608D01*
X120602397Y-102839143D01*
X120652509Y-102698682D01*
X120734990Y-102898303D01*
X121127630Y-103291629D01*
X121640900Y-103504757D01*
X122196661Y-103505242D01*
X122710303Y-103293010D01*
X123103629Y-102900370D01*
X123189949Y-102692488D01*
X123274990Y-102898303D01*
X123667630Y-103291629D01*
X124180900Y-103504757D01*
X124736661Y-103505242D01*
X125250303Y-103293010D01*
X125643629Y-102900370D01*
X125729949Y-102692488D01*
X125814990Y-102898303D01*
X126207630Y-103291629D01*
X126720900Y-103504757D01*
X127276661Y-103505242D01*
X127790303Y-103293010D01*
X128183629Y-102900370D01*
X128197070Y-102868000D01*
X137922000Y-102868000D01*
X138212839Y-102810148D01*
X138459401Y-102645401D01*
X140237401Y-100867401D01*
X140402148Y-100620839D01*
X140460000Y-100330000D01*
X140460000Y-97975167D01*
X154004838Y-97975167D01*
X154146883Y-98318943D01*
X154180000Y-98352118D01*
X154180000Y-118110000D01*
X154237852Y-118400839D01*
X154402599Y-118647401D01*
X155274878Y-119519680D01*
X155274838Y-119565167D01*
X155416883Y-119908943D01*
X155679673Y-120172192D01*
X156023201Y-120314838D01*
X156395167Y-120315162D01*
X156738943Y-120173117D01*
X157002192Y-119910327D01*
X157144838Y-119566799D01*
X157145162Y-119194833D01*
X157099046Y-119083223D01*
X178893035Y-119083223D01*
X178920222Y-119653454D01*
X179086136Y-120054005D01*
X179332255Y-120128139D01*
X180160395Y-119300000D01*
X180519605Y-119300000D01*
X181347745Y-120128139D01*
X181593864Y-120054005D01*
X181786965Y-119516777D01*
X181759778Y-118946546D01*
X181593864Y-118545995D01*
X181347745Y-118471861D01*
X180519605Y-119300000D01*
X180160395Y-119300000D01*
X179332255Y-118471861D01*
X179086136Y-118545995D01*
X178893035Y-119083223D01*
X157099046Y-119083223D01*
X157003117Y-118851057D01*
X156740327Y-118587808D01*
X156396799Y-118445162D01*
X156349923Y-118445121D01*
X156197057Y-118292255D01*
X179511861Y-118292255D01*
X180340000Y-119120395D01*
X181168139Y-118292255D01*
X181094005Y-118046136D01*
X180556777Y-117853035D01*
X179986546Y-117880222D01*
X179585995Y-118046136D01*
X179511861Y-118292255D01*
X156197057Y-118292255D01*
X155700000Y-117795198D01*
X155700000Y-114584187D01*
X178904752Y-114584187D01*
X179122757Y-115111800D01*
X179526077Y-115515824D01*
X180053309Y-115734750D01*
X180624187Y-115735248D01*
X181151800Y-115517243D01*
X181555824Y-115113923D01*
X181774750Y-114586691D01*
X181775248Y-114015813D01*
X181557243Y-113488200D01*
X181153923Y-113084176D01*
X180626691Y-112865250D01*
X180055813Y-112864752D01*
X179528200Y-113082757D01*
X179124176Y-113486077D01*
X178905250Y-114013309D01*
X178904752Y-114584187D01*
X155700000Y-114584187D01*
X155700000Y-114037745D01*
X160461861Y-114037745D01*
X160535995Y-114283864D01*
X161073223Y-114476965D01*
X161643454Y-114449778D01*
X162044005Y-114283864D01*
X162118139Y-114037745D01*
X161290000Y-113209605D01*
X160461861Y-114037745D01*
X155700000Y-114037745D01*
X155700000Y-112813223D01*
X159843035Y-112813223D01*
X159870222Y-113383454D01*
X160036136Y-113784005D01*
X160282255Y-113858139D01*
X161110395Y-113030000D01*
X161469605Y-113030000D01*
X162297745Y-113858139D01*
X162543864Y-113784005D01*
X162736965Y-113246777D01*
X162725290Y-113001887D01*
X166205000Y-113001887D01*
X166205000Y-113058113D01*
X166314233Y-113607264D01*
X166625302Y-114072811D01*
X167090849Y-114383880D01*
X167640000Y-114493113D01*
X168189151Y-114383880D01*
X168654698Y-114072811D01*
X168965767Y-113607264D01*
X169075000Y-113058113D01*
X169075000Y-113001887D01*
X172555000Y-113001887D01*
X172555000Y-113058113D01*
X172664233Y-113607264D01*
X172975302Y-114072811D01*
X173440849Y-114383880D01*
X173990000Y-114493113D01*
X174539151Y-114383880D01*
X175004698Y-114072811D01*
X175315767Y-113607264D01*
X175425000Y-113058113D01*
X175425000Y-113001887D01*
X175315767Y-112452736D01*
X175004698Y-111987189D01*
X174539151Y-111676120D01*
X173990000Y-111566887D01*
X173440849Y-111676120D01*
X172975302Y-111987189D01*
X172664233Y-112452736D01*
X172555000Y-113001887D01*
X169075000Y-113001887D01*
X168965767Y-112452736D01*
X168654698Y-111987189D01*
X168189151Y-111676120D01*
X167640000Y-111566887D01*
X167090849Y-111676120D01*
X166625302Y-111987189D01*
X166314233Y-112452736D01*
X166205000Y-113001887D01*
X162725290Y-113001887D01*
X162709778Y-112676546D01*
X162543864Y-112275995D01*
X162297745Y-112201861D01*
X161469605Y-113030000D01*
X161110395Y-113030000D01*
X160282255Y-112201861D01*
X160036136Y-112275995D01*
X159843035Y-112813223D01*
X155700000Y-112813223D01*
X155700000Y-112022255D01*
X160461861Y-112022255D01*
X161290000Y-112850395D01*
X162118139Y-112022255D01*
X162044005Y-111776136D01*
X161506777Y-111583035D01*
X160936546Y-111610222D01*
X160535995Y-111776136D01*
X160461861Y-112022255D01*
X155700000Y-112022255D01*
X155700000Y-105595167D01*
X175594838Y-105595167D01*
X175736883Y-105938943D01*
X175999673Y-106202192D01*
X176343201Y-106344838D01*
X176715167Y-106345162D01*
X177058943Y-106203117D01*
X177322192Y-105940327D01*
X177464838Y-105596799D01*
X177464879Y-105549923D01*
X178337401Y-104677401D01*
X178502148Y-104430840D01*
X178560000Y-104140000D01*
X178560000Y-100326713D01*
X178654949Y-100390156D01*
X179070000Y-100472715D01*
X179485051Y-100390156D01*
X179836914Y-100155049D01*
X180072021Y-99803186D01*
X180154580Y-99388135D01*
X180154580Y-98731865D01*
X180072021Y-98316814D01*
X179836914Y-97964951D01*
X179485051Y-97729844D01*
X179070000Y-97647285D01*
X178654949Y-97729844D01*
X178435000Y-97876809D01*
X178215051Y-97729844D01*
X177800000Y-97647285D01*
X177384949Y-97729844D01*
X177160762Y-97879641D01*
X176823935Y-97715019D01*
X176657000Y-97841932D01*
X176657000Y-98933000D01*
X176677000Y-98933000D01*
X176677000Y-99187000D01*
X176657000Y-99187000D01*
X176657000Y-100278068D01*
X176823935Y-100404981D01*
X177040000Y-100299381D01*
X177040000Y-103825198D01*
X176390320Y-104474878D01*
X176344833Y-104474838D01*
X176001057Y-104616883D01*
X175737808Y-104879673D01*
X175595162Y-105223201D01*
X175594838Y-105595167D01*
X155700000Y-105595167D01*
X155700000Y-100067745D01*
X160461861Y-100067745D01*
X160535995Y-100313864D01*
X161073223Y-100506965D01*
X161643454Y-100479778D01*
X162044005Y-100313864D01*
X162118139Y-100067745D01*
X161290000Y-99239605D01*
X160461861Y-100067745D01*
X155700000Y-100067745D01*
X155700000Y-98843223D01*
X159843035Y-98843223D01*
X159870222Y-99413454D01*
X160036136Y-99814005D01*
X160282255Y-99888139D01*
X161110395Y-99060000D01*
X161469605Y-99060000D01*
X162297745Y-99888139D01*
X162543864Y-99814005D01*
X162712735Y-99344187D01*
X168054752Y-99344187D01*
X168272757Y-99871800D01*
X168676077Y-100275824D01*
X169203309Y-100494750D01*
X169774187Y-100495248D01*
X170301800Y-100277243D01*
X170705824Y-99873923D01*
X170924750Y-99346691D01*
X170924889Y-99187000D01*
X175445420Y-99187000D01*
X175445420Y-99487990D01*
X175576580Y-99893373D01*
X175852889Y-100217706D01*
X176236065Y-100404981D01*
X176403000Y-100278068D01*
X176403000Y-99187000D01*
X175445420Y-99187000D01*
X170924889Y-99187000D01*
X170925248Y-98775813D01*
X170879426Y-98664914D01*
X170882148Y-98660840D01*
X170887882Y-98632010D01*
X175445420Y-98632010D01*
X175445420Y-98933000D01*
X176403000Y-98933000D01*
X176403000Y-97841932D01*
X176236065Y-97715019D01*
X175852889Y-97902294D01*
X175576580Y-98226627D01*
X175445420Y-98632010D01*
X170887882Y-98632010D01*
X170940000Y-98370000D01*
X170940000Y-94294802D01*
X171987401Y-93247401D01*
X172152148Y-93000840D01*
X172210000Y-92710000D01*
X172210000Y-88868646D01*
X172261800Y-88847243D01*
X172665824Y-88443923D01*
X172884750Y-87916691D01*
X172885248Y-87345813D01*
X172667243Y-86818200D01*
X172263923Y-86414176D01*
X171736691Y-86195250D01*
X171165813Y-86194752D01*
X170638200Y-86412757D01*
X170234176Y-86816077D01*
X170015250Y-87343309D01*
X170014752Y-87914187D01*
X170232757Y-88441800D01*
X170636077Y-88845824D01*
X170690000Y-88868215D01*
X170690000Y-92395198D01*
X169642599Y-93442599D01*
X169477852Y-93689161D01*
X169420000Y-93980000D01*
X169420000Y-97624939D01*
X169205813Y-97624752D01*
X168678200Y-97842757D01*
X168274176Y-98246077D01*
X168055250Y-98773309D01*
X168054752Y-99344187D01*
X162712735Y-99344187D01*
X162736965Y-99276777D01*
X162709778Y-98706546D01*
X162543864Y-98305995D01*
X162297745Y-98231861D01*
X161469605Y-99060000D01*
X161110395Y-99060000D01*
X160282255Y-98231861D01*
X160036136Y-98305995D01*
X159843035Y-98843223D01*
X155700000Y-98843223D01*
X155700000Y-98352463D01*
X155732192Y-98320327D01*
X155843505Y-98052255D01*
X160461861Y-98052255D01*
X161290000Y-98880395D01*
X162118139Y-98052255D01*
X162044005Y-97806136D01*
X161506777Y-97613035D01*
X160936546Y-97640222D01*
X160535995Y-97806136D01*
X160461861Y-98052255D01*
X155843505Y-98052255D01*
X155874838Y-97976799D01*
X155875162Y-97604833D01*
X155733117Y-97261057D01*
X155700000Y-97227882D01*
X155700000Y-93510633D01*
X156023201Y-93644838D01*
X156395167Y-93645162D01*
X156738943Y-93503117D01*
X157002192Y-93240327D01*
X157144838Y-92896799D01*
X157145162Y-92524833D01*
X157003117Y-92181057D01*
X156970000Y-92147882D01*
X156970000Y-87915750D01*
X162395000Y-87915750D01*
X162395000Y-88556309D01*
X162491673Y-88789698D01*
X162670301Y-88968327D01*
X162903690Y-89065000D01*
X163544250Y-89065000D01*
X163703000Y-88906250D01*
X163703000Y-87757000D01*
X163957000Y-87757000D01*
X163957000Y-88906250D01*
X164115750Y-89065000D01*
X164756310Y-89065000D01*
X164989699Y-88968327D01*
X165168327Y-88789698D01*
X165265000Y-88556309D01*
X165265000Y-87915750D01*
X165106250Y-87757000D01*
X163957000Y-87757000D01*
X163703000Y-87757000D01*
X162553750Y-87757000D01*
X162395000Y-87915750D01*
X156970000Y-87915750D01*
X156970000Y-86703691D01*
X162395000Y-86703691D01*
X162395000Y-87344250D01*
X162553750Y-87503000D01*
X163703000Y-87503000D01*
X163703000Y-86353750D01*
X163957000Y-86353750D01*
X163957000Y-87503000D01*
X165106250Y-87503000D01*
X165265000Y-87344250D01*
X165265000Y-86703691D01*
X165168327Y-86470302D01*
X164989699Y-86291673D01*
X164756310Y-86195000D01*
X164115750Y-86195000D01*
X163957000Y-86353750D01*
X163703000Y-86353750D01*
X163544250Y-86195000D01*
X162903690Y-86195000D01*
X162670301Y-86291673D01*
X162491673Y-86470302D01*
X162395000Y-86703691D01*
X156970000Y-86703691D01*
X156970000Y-71272400D01*
X158254960Y-71272400D01*
X158254960Y-73507600D01*
X158299238Y-73742917D01*
X158438310Y-73959041D01*
X158650510Y-74104031D01*
X158902400Y-74155040D01*
X161137600Y-74155040D01*
X161372917Y-74110762D01*
X161589041Y-73971690D01*
X161673410Y-73848212D01*
X163070000Y-75244802D01*
X163070000Y-78797005D01*
X162815302Y-78967189D01*
X162504233Y-79432736D01*
X162395000Y-79981887D01*
X162395000Y-80038113D01*
X162504233Y-80587264D01*
X162815302Y-81052811D01*
X163280849Y-81363880D01*
X163830000Y-81473113D01*
X164379151Y-81363880D01*
X164844698Y-81052811D01*
X165155767Y-80587264D01*
X165265000Y-80038113D01*
X165265000Y-79981887D01*
X165155767Y-79432736D01*
X164844698Y-78967189D01*
X164590000Y-78797005D01*
X164590000Y-74930000D01*
X164532148Y-74639161D01*
X164532148Y-74639160D01*
X164367401Y-74392599D01*
X161827401Y-71852599D01*
X161785040Y-71824294D01*
X161785040Y-71272400D01*
X167144960Y-71272400D01*
X167144960Y-73507600D01*
X167189238Y-73742917D01*
X167328310Y-73959041D01*
X167540510Y-74104031D01*
X167792400Y-74155040D01*
X170027600Y-74155040D01*
X170262917Y-74110762D01*
X170479041Y-73971690D01*
X170563410Y-73848212D01*
X170690000Y-73974802D01*
X170690000Y-78797005D01*
X170435302Y-78967189D01*
X170124233Y-79432736D01*
X170015000Y-79981887D01*
X170015000Y-80038113D01*
X170124233Y-80587264D01*
X170435302Y-81052811D01*
X170900849Y-81363880D01*
X171450000Y-81473113D01*
X171999151Y-81363880D01*
X172464698Y-81052811D01*
X172775767Y-80587264D01*
X172885000Y-80038113D01*
X172885000Y-79981887D01*
X172775767Y-79432736D01*
X172464698Y-78967189D01*
X172210000Y-78797005D01*
X172210000Y-73660000D01*
X172203630Y-73627978D01*
X172152148Y-73369160D01*
X171987401Y-73122599D01*
X170717401Y-71852599D01*
X170675040Y-71824294D01*
X170675040Y-71272400D01*
X170630762Y-71037083D01*
X170491690Y-70820959D01*
X170279490Y-70675969D01*
X170027600Y-70624960D01*
X167792400Y-70624960D01*
X167557083Y-70669238D01*
X167340959Y-70808310D01*
X167195969Y-71020510D01*
X167144960Y-71272400D01*
X161785040Y-71272400D01*
X161740762Y-71037083D01*
X161601690Y-70820959D01*
X161389490Y-70675969D01*
X161137600Y-70624960D01*
X158902400Y-70624960D01*
X158667083Y-70669238D01*
X158450959Y-70808310D01*
X158305969Y-71020510D01*
X158254960Y-71272400D01*
X156970000Y-71272400D01*
X156970000Y-70164802D01*
X157619680Y-69515122D01*
X157665167Y-69515162D01*
X158008943Y-69373117D01*
X158272192Y-69110327D01*
X158414838Y-68766799D01*
X158415162Y-68394833D01*
X158273117Y-68051057D01*
X158010327Y-67787808D01*
X157666799Y-67645162D01*
X157294833Y-67644838D01*
X156951057Y-67786883D01*
X156687808Y-68049673D01*
X156545162Y-68393201D01*
X156545121Y-68440077D01*
X155700000Y-69285198D01*
X155700000Y-67624802D01*
X156349680Y-66975122D01*
X156395167Y-66975162D01*
X156738943Y-66833117D01*
X157002192Y-66570327D01*
X157144838Y-66226799D01*
X157145162Y-65854833D01*
X157003117Y-65511057D01*
X156740327Y-65247808D01*
X156396799Y-65105162D01*
X156024833Y-65104838D01*
X155681057Y-65246883D01*
X155417808Y-65509673D01*
X155275162Y-65853201D01*
X155275121Y-65900077D01*
X154402599Y-66772599D01*
X154237852Y-67019161D01*
X154180000Y-67310000D01*
X154180000Y-97227537D01*
X154147808Y-97259673D01*
X154005162Y-97603201D01*
X154004838Y-97975167D01*
X140460000Y-97975167D01*
X140460000Y-92719520D01*
X140789029Y-92499670D01*
X140970000Y-92228828D01*
X141150971Y-92499670D01*
X141637152Y-92824526D01*
X142210641Y-92938600D01*
X142269359Y-92938600D01*
X142842848Y-92824526D01*
X143329029Y-92499670D01*
X143510000Y-92228828D01*
X143690971Y-92499670D01*
X144177152Y-92824526D01*
X144750641Y-92938600D01*
X144809359Y-92938600D01*
X145382848Y-92824526D01*
X145848442Y-92513426D01*
X145853238Y-92538917D01*
X145992310Y-92755041D01*
X146204510Y-92900031D01*
X146456400Y-92951040D01*
X148183600Y-92951040D01*
X148418917Y-92906762D01*
X148635041Y-92767690D01*
X148780031Y-92555490D01*
X148831040Y-92303600D01*
X148831040Y-90576400D01*
X148786762Y-90341083D01*
X148647690Y-90124959D01*
X148435490Y-89979969D01*
X148183600Y-89928960D01*
X147480699Y-89928960D01*
X147577959Y-89440000D01*
X147473320Y-88913943D01*
X147922848Y-88824526D01*
X148409029Y-88499670D01*
X148733885Y-88013489D01*
X148847959Y-87440000D01*
X148733885Y-86866511D01*
X148409029Y-86380330D01*
X147922848Y-86055474D01*
X147473320Y-85966057D01*
X147577959Y-85440000D01*
X147463885Y-84866511D01*
X147139029Y-84380330D01*
X146652848Y-84055474D01*
X146079359Y-83941400D01*
X146020641Y-83941400D01*
X145447152Y-84055474D01*
X144960971Y-84380330D01*
X144780000Y-84651172D01*
X144599029Y-84380330D01*
X144112848Y-84055474D01*
X143539359Y-83941400D01*
X143480641Y-83941400D01*
X142907152Y-84055474D01*
X142420971Y-84380330D01*
X142240000Y-84651172D01*
X142059029Y-84380330D01*
X141572848Y-84055474D01*
X140999359Y-83941400D01*
X140940641Y-83941400D01*
X140367152Y-84055474D01*
X139880971Y-84380330D01*
X139700000Y-84651172D01*
X139519029Y-84380330D01*
X139032848Y-84055474D01*
X138459359Y-83941400D01*
X138400641Y-83941400D01*
X137827152Y-84055474D01*
X137340971Y-84380330D01*
X137160000Y-84651172D01*
X136979029Y-84380330D01*
X136492848Y-84055474D01*
X135919359Y-83941400D01*
X135860641Y-83941400D01*
X135287152Y-84055474D01*
X134800971Y-84380330D01*
X134620000Y-84651172D01*
X134439029Y-84380330D01*
X133952848Y-84055474D01*
X133379359Y-83941400D01*
X133320641Y-83941400D01*
X132747152Y-84055474D01*
X132260971Y-84380330D01*
X132080000Y-84651172D01*
X131899029Y-84380330D01*
X131412848Y-84055474D01*
X130839359Y-83941400D01*
X130780641Y-83941400D01*
X130207152Y-84055474D01*
X129720971Y-84380330D01*
X129540000Y-84651172D01*
X129359029Y-84380330D01*
X128872848Y-84055474D01*
X128299359Y-83941400D01*
X128240641Y-83941400D01*
X127667152Y-84055474D01*
X127180971Y-84380330D01*
X127000000Y-84651172D01*
X126819029Y-84380330D01*
X126332848Y-84055474D01*
X125759359Y-83941400D01*
X125700641Y-83941400D01*
X125127152Y-84055474D01*
X124640971Y-84380330D01*
X124460000Y-84651172D01*
X124279029Y-84380330D01*
X123792848Y-84055474D01*
X123219359Y-83941400D01*
X123160641Y-83941400D01*
X122587152Y-84055474D01*
X122100971Y-84380330D01*
X121920000Y-84651172D01*
X121739029Y-84380330D01*
X121252848Y-84055474D01*
X120679359Y-83941400D01*
X120620641Y-83941400D01*
X120047152Y-84055474D01*
X119560971Y-84380330D01*
X119380000Y-84651172D01*
X119199029Y-84380330D01*
X118712848Y-84055474D01*
X118139359Y-83941400D01*
X118080641Y-83941400D01*
X117507152Y-84055474D01*
X117020971Y-84380330D01*
X116840000Y-84651172D01*
X116659029Y-84380330D01*
X116172848Y-84055474D01*
X115599359Y-83941400D01*
X115540641Y-83941400D01*
X114967152Y-84055474D01*
X114480971Y-84380330D01*
X114300000Y-84651172D01*
X114119029Y-84380330D01*
X113632848Y-84055474D01*
X113059359Y-83941400D01*
X113000641Y-83941400D01*
X112427152Y-84055474D01*
X111940971Y-84380330D01*
X111760000Y-84651172D01*
X111579029Y-84380330D01*
X111092848Y-84055474D01*
X110519359Y-83941400D01*
X110460641Y-83941400D01*
X109887152Y-84055474D01*
X109400971Y-84380330D01*
X109220000Y-84651172D01*
X109039029Y-84380330D01*
X108552848Y-84055474D01*
X107979359Y-83941400D01*
X107920641Y-83941400D01*
X107347152Y-84055474D01*
X106860971Y-84380330D01*
X106680000Y-84651172D01*
X106499029Y-84380330D01*
X106012848Y-84055474D01*
X105439359Y-83941400D01*
X105380641Y-83941400D01*
X104807152Y-84055474D01*
X104320971Y-84380330D01*
X104140000Y-84651172D01*
X103959029Y-84380330D01*
X103472848Y-84055474D01*
X102899359Y-83941400D01*
X102840641Y-83941400D01*
X102267152Y-84055474D01*
X101780971Y-84380330D01*
X101600000Y-84651172D01*
X101419029Y-84380330D01*
X100932848Y-84055474D01*
X100359359Y-83941400D01*
X100300641Y-83941400D01*
X99727152Y-84055474D01*
X99240971Y-84380330D01*
X99060000Y-84651172D01*
X98879029Y-84380330D01*
X98392848Y-84055474D01*
X97819359Y-83941400D01*
X97760641Y-83941400D01*
X97187152Y-84055474D01*
X96700971Y-84380330D01*
X96376115Y-84866511D01*
X96262041Y-85440000D01*
X89027000Y-85440000D01*
X89027000Y-82735167D01*
X151464838Y-82735167D01*
X151606883Y-83078943D01*
X151869673Y-83342192D01*
X152213201Y-83484838D01*
X152585167Y-83485162D01*
X152928943Y-83343117D01*
X153192192Y-83080327D01*
X153334838Y-82736799D01*
X153335162Y-82364833D01*
X153193117Y-82021057D01*
X153160000Y-81987882D01*
X153160000Y-63685167D01*
X173054838Y-63685167D01*
X173196883Y-64028943D01*
X173230000Y-64062118D01*
X173230000Y-69850000D01*
X173287852Y-70140839D01*
X173452599Y-70387401D01*
X174324878Y-71259680D01*
X174324838Y-71305167D01*
X174466883Y-71648943D01*
X174729673Y-71912192D01*
X175073201Y-72054838D01*
X175445167Y-72055162D01*
X175788943Y-71913117D01*
X176052192Y-71650327D01*
X176194838Y-71306799D01*
X176195162Y-70934833D01*
X176053117Y-70591057D01*
X175790327Y-70327808D01*
X175446799Y-70185162D01*
X175399923Y-70185121D01*
X174750000Y-69535198D01*
X174750000Y-67580510D01*
X179963070Y-67580510D01*
X179963070Y-69579490D01*
X180007348Y-69814807D01*
X180146420Y-70030931D01*
X180312473Y-70144390D01*
X180099928Y-70462486D01*
X179975510Y-71087978D01*
X179975510Y-71152022D01*
X180099928Y-71777514D01*
X180454241Y-72307781D01*
X180577290Y-72390000D01*
X180454241Y-72472219D01*
X180099928Y-73002486D01*
X179975510Y-73627978D01*
X179975510Y-73692022D01*
X180099928Y-74317514D01*
X180454241Y-74847781D01*
X180850000Y-75112219D01*
X180850000Y-81987537D01*
X180817808Y-82019673D01*
X180675162Y-82363201D01*
X180674838Y-82735167D01*
X180816883Y-83078943D01*
X181079673Y-83342192D01*
X181423201Y-83484838D01*
X181795167Y-83485162D01*
X182138943Y-83343117D01*
X182402192Y-83080327D01*
X182544838Y-82736799D01*
X182545162Y-82364833D01*
X182403117Y-82021057D01*
X182370000Y-81987882D01*
X182370000Y-75112219D01*
X182765759Y-74847781D01*
X183120072Y-74317514D01*
X183244490Y-73692022D01*
X183244490Y-73627978D01*
X183120072Y-73002486D01*
X182765759Y-72472219D01*
X182642710Y-72390000D01*
X182765759Y-72307781D01*
X183120072Y-71777514D01*
X183244490Y-71152022D01*
X183244490Y-71087978D01*
X183120072Y-70462486D01*
X182906547Y-70142923D01*
X183060931Y-70043580D01*
X183205921Y-69831380D01*
X183256930Y-69579490D01*
X183256930Y-67580510D01*
X183212652Y-67345193D01*
X183073580Y-67129069D01*
X182861380Y-66984079D01*
X182609490Y-66933070D01*
X180610510Y-66933070D01*
X180375193Y-66977348D01*
X180159069Y-67116420D01*
X180014079Y-67328620D01*
X179963070Y-67580510D01*
X174750000Y-67580510D01*
X174750000Y-65570633D01*
X175073201Y-65704838D01*
X175445167Y-65705162D01*
X175788943Y-65563117D01*
X176052192Y-65300327D01*
X176194838Y-64956799D01*
X176195162Y-64584833D01*
X176053117Y-64241057D01*
X176020000Y-64207882D01*
X176020000Y-61340355D01*
X180020373Y-61340355D01*
X180286932Y-61919726D01*
X180754916Y-62352987D01*
X181229646Y-62549619D01*
X181483000Y-62430265D01*
X181483000Y-61087000D01*
X181737000Y-61087000D01*
X181737000Y-62430265D01*
X181990354Y-62549619D01*
X182465084Y-62352987D01*
X182933068Y-61919726D01*
X183199627Y-61340355D01*
X183080807Y-61087000D01*
X181737000Y-61087000D01*
X181483000Y-61087000D01*
X180139193Y-61087000D01*
X180020373Y-61340355D01*
X176020000Y-61340355D01*
X176020000Y-57464802D01*
X176844802Y-56640000D01*
X179963070Y-56640000D01*
X179963070Y-56879490D01*
X180007348Y-57114807D01*
X180146420Y-57330931D01*
X180312473Y-57444390D01*
X180099928Y-57762486D01*
X179975510Y-58387978D01*
X179975510Y-58452022D01*
X180099928Y-59077514D01*
X180454241Y-59607781D01*
X180603300Y-59707379D01*
X180286932Y-60000274D01*
X180020373Y-60579645D01*
X180139193Y-60833000D01*
X181483000Y-60833000D01*
X181483000Y-60813000D01*
X181737000Y-60813000D01*
X181737000Y-60833000D01*
X183080807Y-60833000D01*
X183199627Y-60579645D01*
X182933068Y-60000274D01*
X182616700Y-59707379D01*
X182765759Y-59607781D01*
X183120072Y-59077514D01*
X183244490Y-58452022D01*
X183244490Y-58387978D01*
X183120072Y-57762486D01*
X182906547Y-57442923D01*
X183060931Y-57343580D01*
X183205921Y-57131380D01*
X183256930Y-56879490D01*
X183256930Y-54880510D01*
X183212652Y-54645193D01*
X183073580Y-54429069D01*
X182861380Y-54284079D01*
X182609490Y-54233070D01*
X180610510Y-54233070D01*
X180375193Y-54277348D01*
X180159069Y-54416420D01*
X180014079Y-54628620D01*
X179963070Y-54880510D01*
X179963070Y-55120000D01*
X176530000Y-55120000D01*
X176239160Y-55177852D01*
X175992599Y-55342599D01*
X174722599Y-56612599D01*
X174557852Y-56859161D01*
X174500000Y-57150000D01*
X174500000Y-62699367D01*
X174176799Y-62565162D01*
X173804833Y-62564838D01*
X173461057Y-62706883D01*
X173197808Y-62969673D01*
X173055162Y-63313201D01*
X173054838Y-63685167D01*
X153160000Y-63685167D01*
X153160000Y-62415167D01*
X166704838Y-62415167D01*
X166846883Y-62758943D01*
X167109673Y-63022192D01*
X167453201Y-63164838D01*
X167825167Y-63165162D01*
X168168943Y-63023117D01*
X168432192Y-62760327D01*
X168574838Y-62416799D01*
X168575162Y-62044833D01*
X168433117Y-61701057D01*
X168400000Y-61667882D01*
X168400000Y-58915040D01*
X170027600Y-58915040D01*
X170262917Y-58870762D01*
X170479041Y-58731690D01*
X170624031Y-58519490D01*
X170675040Y-58267600D01*
X170675040Y-56032400D01*
X170630762Y-55797083D01*
X170491690Y-55580959D01*
X170279490Y-55435969D01*
X170027600Y-55384960D01*
X167792400Y-55384960D01*
X167557083Y-55429238D01*
X167340959Y-55568310D01*
X167195969Y-55780510D01*
X167144960Y-56032400D01*
X167144960Y-57840238D01*
X167102599Y-57882599D01*
X166937852Y-58129161D01*
X166880000Y-58420000D01*
X166880000Y-61667537D01*
X166847808Y-61699673D01*
X166705162Y-62043201D01*
X166704838Y-62415167D01*
X153160000Y-62415167D01*
X153160000Y-58734802D01*
X153984802Y-57910000D01*
X158254960Y-57910000D01*
X158254960Y-58267600D01*
X158299238Y-58502917D01*
X158438310Y-58719041D01*
X158650510Y-58864031D01*
X158902400Y-58915040D01*
X161137600Y-58915040D01*
X161372917Y-58870762D01*
X161589041Y-58731690D01*
X161734031Y-58519490D01*
X161785040Y-58267600D01*
X161785040Y-56032400D01*
X161740762Y-55797083D01*
X161601690Y-55580959D01*
X161389490Y-55435969D01*
X161137600Y-55384960D01*
X158902400Y-55384960D01*
X158667083Y-55429238D01*
X158450959Y-55568310D01*
X158305969Y-55780510D01*
X158254960Y-56032400D01*
X158254960Y-56390000D01*
X153670000Y-56390000D01*
X153379160Y-56447852D01*
X153132599Y-56612599D01*
X151862599Y-57882599D01*
X151697852Y-58129161D01*
X151640000Y-58420000D01*
X151640000Y-81987537D01*
X151607808Y-82019673D01*
X151465162Y-82363201D01*
X151464838Y-82735167D01*
X89027000Y-82735167D01*
X89027000Y-52197000D01*
X185293000Y-52197000D01*
X185293000Y-148463000D01*
X185293000Y-148463000D01*
G37*
X185293000Y-148463000D02*
X89027000Y-148463000D01*
X89027000Y-133430000D01*
X164368703Y-133430000D01*
X164482777Y-134003489D01*
X164807633Y-134489670D01*
X165293814Y-134814526D01*
X165810000Y-134917202D01*
X165810000Y-136942798D01*
X165293814Y-137045474D01*
X164807633Y-137370330D01*
X164482777Y-137856511D01*
X164368703Y-138430000D01*
X164482777Y-139003489D01*
X164807633Y-139489670D01*
X165293814Y-139814526D01*
X165867303Y-139928600D01*
X167272697Y-139928600D01*
X167846186Y-139814526D01*
X168332367Y-139489670D01*
X168657223Y-139003489D01*
X168699882Y-138789026D01*
X176954642Y-138789026D01*
X176976473Y-138886157D01*
X177260127Y-139399868D01*
X177718778Y-139765925D01*
X178282600Y-139928600D01*
X178943000Y-139928600D01*
X178943000Y-138557000D01*
X179197000Y-138557000D01*
X179197000Y-139928600D01*
X179857400Y-139928600D01*
X180421222Y-139765925D01*
X180879873Y-139399868D01*
X181163527Y-138886157D01*
X181185358Y-138789026D01*
X181064217Y-138557000D01*
X179197000Y-138557000D01*
X178943000Y-138557000D01*
X177075783Y-138557000D01*
X176954642Y-138789026D01*
X168699882Y-138789026D01*
X168771297Y-138430000D01*
X168699883Y-138070974D01*
X176954642Y-138070974D01*
X177075783Y-138303000D01*
X178943000Y-138303000D01*
X178943000Y-136931400D01*
X179197000Y-136931400D01*
X179197000Y-138303000D01*
X181064217Y-138303000D01*
X181185358Y-138070974D01*
X181163527Y-137973843D01*
X180879873Y-137460132D01*
X180421222Y-137094075D01*
X179857400Y-136931400D01*
X179197000Y-136931400D01*
X178943000Y-136931400D01*
X178282600Y-136931400D01*
X177718778Y-137094075D01*
X177260127Y-137460132D01*
X176976473Y-137973843D01*
X176954642Y-138070974D01*
X168699883Y-138070974D01*
X168657223Y-137856511D01*
X168332367Y-137370330D01*
X167846186Y-137045474D01*
X167330000Y-136942798D01*
X167330000Y-134917202D01*
X167846186Y-134814526D01*
X168332367Y-134489670D01*
X168657223Y-134003489D01*
X168699882Y-133789026D01*
X176954642Y-133789026D01*
X176976473Y-133886157D01*
X177260127Y-134399868D01*
X177718778Y-134765925D01*
X178282600Y-134928600D01*
X178943000Y-134928600D01*
X178943000Y-133557000D01*
X179197000Y-133557000D01*
X179197000Y-134928600D01*
X179857400Y-134928600D01*
X180421222Y-134765925D01*
X180879873Y-134399868D01*
X181163527Y-133886157D01*
X181185358Y-133789026D01*
X181064217Y-133557000D01*
X179197000Y-133557000D01*
X178943000Y-133557000D01*
X177075783Y-133557000D01*
X176954642Y-133789026D01*
X168699882Y-133789026D01*
X168771297Y-133430000D01*
X168699883Y-133070974D01*
X176954642Y-133070974D01*
X177075783Y-133303000D01*
X178943000Y-133303000D01*
X178943000Y-131931400D01*
X179197000Y-131931400D01*
X179197000Y-133303000D01*
X181064217Y-133303000D01*
X181185358Y-133070974D01*
X181163527Y-132973843D01*
X180879873Y-132460132D01*
X180421222Y-132094075D01*
X179857400Y-131931400D01*
X179197000Y-131931400D01*
X178943000Y-131931400D01*
X178282600Y-131931400D01*
X177718778Y-132094075D01*
X177260127Y-132460132D01*
X176976473Y-132973843D01*
X176954642Y-133070974D01*
X168699883Y-133070974D01*
X168657223Y-132856511D01*
X168332367Y-132370330D01*
X167846186Y-132045474D01*
X167330000Y-131942798D01*
X167330000Y-126244802D01*
X168177401Y-125397401D01*
X168342148Y-125150839D01*
X168400000Y-124860000D01*
X168400000Y-121888646D01*
X168451800Y-121867243D01*
X168855824Y-121463923D01*
X168878215Y-121410000D01*
X172751354Y-121410000D01*
X172772757Y-121461800D01*
X173176077Y-121865824D01*
X173703309Y-122084750D01*
X174274187Y-122085248D01*
X174801800Y-121867243D01*
X175205824Y-121463923D01*
X175424750Y-120936691D01*
X175425248Y-120365813D01*
X175401255Y-120307745D01*
X179511861Y-120307745D01*
X179585995Y-120553864D01*
X180123223Y-120746965D01*
X180693454Y-120719778D01*
X181094005Y-120553864D01*
X181168139Y-120307745D01*
X180340000Y-119479605D01*
X179511861Y-120307745D01*
X175401255Y-120307745D01*
X175207243Y-119838200D01*
X174803923Y-119434176D01*
X174276691Y-119215250D01*
X173705813Y-119214752D01*
X173178200Y-119432757D01*
X172774176Y-119836077D01*
X172751785Y-119890000D01*
X168878646Y-119890000D01*
X168857243Y-119838200D01*
X168453923Y-119434176D01*
X167926691Y-119215250D01*
X167355813Y-119214752D01*
X166828200Y-119432757D01*
X166424176Y-119836077D01*
X166205250Y-120363309D01*
X166204752Y-120934187D01*
X166422757Y-121461800D01*
X166826077Y-121865824D01*
X166880000Y-121888215D01*
X166880000Y-124545198D01*
X166032599Y-125392599D01*
X165867852Y-125639161D01*
X165810000Y-125930000D01*
X165810000Y-131942798D01*
X165293814Y-132045474D01*
X164807633Y-132370330D01*
X164482777Y-132856511D01*
X164368703Y-133430000D01*
X89027000Y-133430000D01*
X89027000Y-120621887D01*
X159855000Y-120621887D01*
X159855000Y-120678113D01*
X159964233Y-121227264D01*
X160275302Y-121692811D01*
X160740849Y-122003880D01*
X161290000Y-122113113D01*
X161839151Y-122003880D01*
X162304698Y-121692811D01*
X162615767Y-121227264D01*
X162725000Y-120678113D01*
X162725000Y-120621887D01*
X162615767Y-120072736D01*
X162304698Y-119607189D01*
X161839151Y-119296120D01*
X161290000Y-119186887D01*
X160740849Y-119296120D01*
X160275302Y-119607189D01*
X159964233Y-120072736D01*
X159855000Y-120621887D01*
X89027000Y-120621887D01*
X89027000Y-85440000D01*
X96262041Y-85440000D01*
X96376115Y-86013489D01*
X96700971Y-86499670D01*
X97187152Y-86824526D01*
X97636680Y-86913943D01*
X97532041Y-87440000D01*
X97636680Y-87966057D01*
X97187152Y-88055474D01*
X96700971Y-88380330D01*
X96376115Y-88866511D01*
X96262041Y-89440000D01*
X96376115Y-90013489D01*
X96700971Y-90499670D01*
X97187152Y-90824526D01*
X97636680Y-90913943D01*
X97532041Y-91440000D01*
X97646115Y-92013489D01*
X97970971Y-92499670D01*
X98457152Y-92824526D01*
X99030641Y-92938600D01*
X99089359Y-92938600D01*
X99662848Y-92824526D01*
X100149029Y-92499670D01*
X100330000Y-92228828D01*
X100510971Y-92499670D01*
X100997152Y-92824526D01*
X101570641Y-92938600D01*
X101629359Y-92938600D01*
X102202848Y-92824526D01*
X102689029Y-92499670D01*
X102870000Y-92228828D01*
X103050971Y-92499670D01*
X103537152Y-92824526D01*
X104110641Y-92938600D01*
X104169359Y-92938600D01*
X104742848Y-92824526D01*
X105229029Y-92499670D01*
X105410000Y-92228828D01*
X105590971Y-92499670D01*
X106077152Y-92824526D01*
X106650641Y-92938600D01*
X106709359Y-92938600D01*
X107282848Y-92824526D01*
X107769029Y-92499670D01*
X107950000Y-92228828D01*
X108130971Y-92499670D01*
X108617152Y-92824526D01*
X109190641Y-92938600D01*
X109249359Y-92938600D01*
X109822848Y-92824526D01*
X110309029Y-92499670D01*
X110490000Y-92228828D01*
X110670971Y-92499670D01*
X111000000Y-92719520D01*
X111000000Y-97790000D01*
X111057852Y-98080839D01*
X111222599Y-98327401D01*
X112094878Y-99199680D01*
X112094838Y-99245167D01*
X112236883Y-99588943D01*
X112499673Y-99852192D01*
X112843201Y-99994838D01*
X113215167Y-99995162D01*
X113540000Y-99860944D01*
X113540000Y-104847537D01*
X113507808Y-104879673D01*
X113365162Y-105223201D01*
X113364838Y-105595167D01*
X113506883Y-105938943D01*
X113769673Y-106202192D01*
X114113201Y-106344838D01*
X114485167Y-106345162D01*
X114828943Y-106203117D01*
X115092192Y-105940327D01*
X115234838Y-105596799D01*
X115235162Y-105224833D01*
X115129690Y-104969570D01*
X115383201Y-105074838D01*
X115755167Y-105075162D01*
X116098943Y-104933117D01*
X116362192Y-104670327D01*
X116504838Y-104326799D01*
X116505162Y-103954833D01*
X116363117Y-103611057D01*
X116330000Y-103577882D01*
X116330000Y-103088213D01*
X118579392Y-103088213D01*
X118648857Y-103330397D01*
X119172302Y-103517144D01*
X119727368Y-103489362D01*
X120111143Y-103330397D01*
X120180608Y-103088213D01*
X119380000Y-102287605D01*
X118579392Y-103088213D01*
X116330000Y-103088213D01*
X116330000Y-101900302D01*
X117970856Y-101900302D01*
X117998638Y-102455368D01*
X118157603Y-102839143D01*
X118399787Y-102908608D01*
X119200395Y-102108000D01*
X118399787Y-101307392D01*
X118157603Y-101376857D01*
X117970856Y-101900302D01*
X116330000Y-101900302D01*
X116330000Y-101127787D01*
X118579392Y-101127787D01*
X119380000Y-101928395D01*
X120180608Y-101127787D01*
X120111143Y-100885603D01*
X119587698Y-100698856D01*
X119032632Y-100726638D01*
X118648857Y-100885603D01*
X118579392Y-101127787D01*
X116330000Y-101127787D01*
X116330000Y-95564802D01*
X116979680Y-94915122D01*
X117025167Y-94915162D01*
X117368943Y-94773117D01*
X117632192Y-94510327D01*
X117774838Y-94166799D01*
X117775162Y-93794833D01*
X117633117Y-93451057D01*
X117370327Y-93187808D01*
X117026799Y-93045162D01*
X116654833Y-93044838D01*
X116311057Y-93186883D01*
X116047808Y-93449673D01*
X115905162Y-93793201D01*
X115905121Y-93840077D01*
X115060000Y-94685198D01*
X115060000Y-92719520D01*
X115389029Y-92499670D01*
X115570000Y-92228828D01*
X115750971Y-92499670D01*
X116237152Y-92824526D01*
X116810641Y-92938600D01*
X116869359Y-92938600D01*
X117442848Y-92824526D01*
X117929029Y-92499670D01*
X118110000Y-92228828D01*
X118290971Y-92499670D01*
X118620000Y-92719520D01*
X118620000Y-96520000D01*
X118677852Y-96810839D01*
X118842599Y-97057401D01*
X119714878Y-97929680D01*
X119714838Y-97975167D01*
X119856883Y-98318943D01*
X120119673Y-98582192D01*
X120463201Y-98724838D01*
X120835167Y-98725162D01*
X121178943Y-98583117D01*
X121442192Y-98320327D01*
X121584838Y-97976799D01*
X121585162Y-97604833D01*
X121443117Y-97261057D01*
X121180327Y-96997808D01*
X120836799Y-96855162D01*
X120789923Y-96855121D01*
X120140000Y-96205198D01*
X120140000Y-94780633D01*
X120463201Y-94914838D01*
X120835167Y-94915162D01*
X121178943Y-94773117D01*
X121442192Y-94510327D01*
X121584838Y-94166799D01*
X121585162Y-93794833D01*
X121443117Y-93451057D01*
X121410000Y-93417882D01*
X121410000Y-93024802D01*
X121561644Y-92873158D01*
X121890641Y-92938600D01*
X121949359Y-92938600D01*
X122522848Y-92824526D01*
X123009029Y-92499670D01*
X123190000Y-92228828D01*
X123370971Y-92499670D01*
X123857152Y-92824526D01*
X124430641Y-92938600D01*
X124489359Y-92938600D01*
X124970000Y-92842995D01*
X124970000Y-97227537D01*
X124937808Y-97259673D01*
X124795162Y-97603201D01*
X124794838Y-97975167D01*
X124936883Y-98318943D01*
X125199673Y-98582192D01*
X125543201Y-98724838D01*
X125915167Y-98725162D01*
X126258943Y-98583117D01*
X126522192Y-98320327D01*
X126664838Y-97976799D01*
X126665162Y-97604833D01*
X126523117Y-97261057D01*
X126490000Y-97227882D01*
X126490000Y-92842995D01*
X126970641Y-92938600D01*
X127029359Y-92938600D01*
X127602848Y-92824526D01*
X128089029Y-92499670D01*
X128270000Y-92228828D01*
X128450971Y-92499670D01*
X128937152Y-92824526D01*
X129510641Y-92938600D01*
X129569359Y-92938600D01*
X130142848Y-92824526D01*
X130629029Y-92499670D01*
X130809992Y-92228839D01*
X131191510Y-92646821D01*
X131720973Y-92894968D01*
X131953000Y-92774469D01*
X131953000Y-91567000D01*
X132207000Y-91567000D01*
X132207000Y-92774469D01*
X132439027Y-92894968D01*
X132968490Y-92646821D01*
X133350000Y-92228848D01*
X133731510Y-92646821D01*
X134260973Y-92894968D01*
X134493000Y-92774469D01*
X134493000Y-91567000D01*
X134747000Y-91567000D01*
X134747000Y-92774469D01*
X134979027Y-92894968D01*
X135508490Y-92646821D01*
X135890000Y-92228848D01*
X136271510Y-92646821D01*
X136800973Y-92894968D01*
X137033000Y-92774469D01*
X137033000Y-91567000D01*
X134747000Y-91567000D01*
X134493000Y-91567000D01*
X132207000Y-91567000D01*
X131953000Y-91567000D01*
X131933000Y-91567000D01*
X131933000Y-91313000D01*
X131953000Y-91313000D01*
X131953000Y-91293000D01*
X132207000Y-91293000D01*
X132207000Y-91313000D01*
X134493000Y-91313000D01*
X134493000Y-91293000D01*
X134747000Y-91293000D01*
X134747000Y-91313000D01*
X137033000Y-91313000D01*
X137033000Y-91293000D01*
X137287000Y-91293000D01*
X137287000Y-91313000D01*
X137307000Y-91313000D01*
X137307000Y-91567000D01*
X137287000Y-91567000D01*
X137287000Y-92774469D01*
X137519027Y-92894968D01*
X137670000Y-92824210D01*
X137670000Y-98745198D01*
X136845198Y-99570000D01*
X125730000Y-99570000D01*
X125439160Y-99627852D01*
X125192599Y-99792599D01*
X124274361Y-100710837D01*
X124183339Y-100710758D01*
X123669697Y-100922990D01*
X123276371Y-101315630D01*
X123190051Y-101523512D01*
X123105010Y-101317697D01*
X122712370Y-100924371D01*
X122199100Y-100711243D01*
X121643339Y-100710758D01*
X121129697Y-100922990D01*
X120736371Y-101315630D01*
X120656605Y-101507727D01*
X120602397Y-101376857D01*
X120360213Y-101307392D01*
X119559605Y-102108000D01*
X120360213Y-102908608D01*
X120602397Y-102839143D01*
X120652509Y-102698682D01*
X120734990Y-102898303D01*
X121127630Y-103291629D01*
X121640900Y-103504757D01*
X122196661Y-103505242D01*
X122710303Y-103293010D01*
X123103629Y-102900370D01*
X123189949Y-102692488D01*
X123274990Y-102898303D01*
X123667630Y-103291629D01*
X124180900Y-103504757D01*
X124736661Y-103505242D01*
X125250303Y-103293010D01*
X125643629Y-102900370D01*
X125729949Y-102692488D01*
X125814990Y-102898303D01*
X126207630Y-103291629D01*
X126720900Y-103504757D01*
X127276661Y-103505242D01*
X127790303Y-103293010D01*
X128183629Y-102900370D01*
X128197070Y-102868000D01*
X137922000Y-102868000D01*
X138212839Y-102810148D01*
X138459401Y-102645401D01*
X140237401Y-100867401D01*
X140402148Y-100620839D01*
X140460000Y-100330000D01*
X140460000Y-97975167D01*
X154004838Y-97975167D01*
X154146883Y-98318943D01*
X154180000Y-98352118D01*
X154180000Y-118110000D01*
X154237852Y-118400839D01*
X154402599Y-118647401D01*
X155274878Y-119519680D01*
X155274838Y-119565167D01*
X155416883Y-119908943D01*
X155679673Y-120172192D01*
X156023201Y-120314838D01*
X156395167Y-120315162D01*
X156738943Y-120173117D01*
X157002192Y-119910327D01*
X157144838Y-119566799D01*
X157145162Y-119194833D01*
X157099046Y-119083223D01*
X178893035Y-119083223D01*
X178920222Y-119653454D01*
X179086136Y-120054005D01*
X179332255Y-120128139D01*
X180160395Y-119300000D01*
X180519605Y-119300000D01*
X181347745Y-120128139D01*
X181593864Y-120054005D01*
X181786965Y-119516777D01*
X181759778Y-118946546D01*
X181593864Y-118545995D01*
X181347745Y-118471861D01*
X180519605Y-119300000D01*
X180160395Y-119300000D01*
X179332255Y-118471861D01*
X179086136Y-118545995D01*
X178893035Y-119083223D01*
X157099046Y-119083223D01*
X157003117Y-118851057D01*
X156740327Y-118587808D01*
X156396799Y-118445162D01*
X156349923Y-118445121D01*
X156197057Y-118292255D01*
X179511861Y-118292255D01*
X180340000Y-119120395D01*
X181168139Y-118292255D01*
X181094005Y-118046136D01*
X180556777Y-117853035D01*
X179986546Y-117880222D01*
X179585995Y-118046136D01*
X179511861Y-118292255D01*
X156197057Y-118292255D01*
X155700000Y-117795198D01*
X155700000Y-114584187D01*
X178904752Y-114584187D01*
X179122757Y-115111800D01*
X179526077Y-115515824D01*
X180053309Y-115734750D01*
X180624187Y-115735248D01*
X181151800Y-115517243D01*
X181555824Y-115113923D01*
X181774750Y-114586691D01*
X181775248Y-114015813D01*
X181557243Y-113488200D01*
X181153923Y-113084176D01*
X180626691Y-112865250D01*
X180055813Y-112864752D01*
X179528200Y-113082757D01*
X179124176Y-113486077D01*
X178905250Y-114013309D01*
X178904752Y-114584187D01*
X155700000Y-114584187D01*
X155700000Y-114037745D01*
X160461861Y-114037745D01*
X160535995Y-114283864D01*
X161073223Y-114476965D01*
X161643454Y-114449778D01*
X162044005Y-114283864D01*
X162118139Y-114037745D01*
X161290000Y-113209605D01*
X160461861Y-114037745D01*
X155700000Y-114037745D01*
X155700000Y-112813223D01*
X159843035Y-112813223D01*
X159870222Y-113383454D01*
X160036136Y-113784005D01*
X160282255Y-113858139D01*
X161110395Y-113030000D01*
X161469605Y-113030000D01*
X162297745Y-113858139D01*
X162543864Y-113784005D01*
X162736965Y-113246777D01*
X162725290Y-113001887D01*
X166205000Y-113001887D01*
X166205000Y-113058113D01*
X166314233Y-113607264D01*
X166625302Y-114072811D01*
X167090849Y-114383880D01*
X167640000Y-114493113D01*
X168189151Y-114383880D01*
X168654698Y-114072811D01*
X168965767Y-113607264D01*
X169075000Y-113058113D01*
X169075000Y-113001887D01*
X172555000Y-113001887D01*
X172555000Y-113058113D01*
X172664233Y-113607264D01*
X172975302Y-114072811D01*
X173440849Y-114383880D01*
X173990000Y-114493113D01*
X174539151Y-114383880D01*
X175004698Y-114072811D01*
X175315767Y-113607264D01*
X175425000Y-113058113D01*
X175425000Y-113001887D01*
X175315767Y-112452736D01*
X175004698Y-111987189D01*
X174539151Y-111676120D01*
X173990000Y-111566887D01*
X173440849Y-111676120D01*
X172975302Y-111987189D01*
X172664233Y-112452736D01*
X172555000Y-113001887D01*
X169075000Y-113001887D01*
X168965767Y-112452736D01*
X168654698Y-111987189D01*
X168189151Y-111676120D01*
X167640000Y-111566887D01*
X167090849Y-111676120D01*
X166625302Y-111987189D01*
X166314233Y-112452736D01*
X166205000Y-113001887D01*
X162725290Y-113001887D01*
X162709778Y-112676546D01*
X162543864Y-112275995D01*
X162297745Y-112201861D01*
X161469605Y-113030000D01*
X161110395Y-113030000D01*
X160282255Y-112201861D01*
X160036136Y-112275995D01*
X159843035Y-112813223D01*
X155700000Y-112813223D01*
X155700000Y-112022255D01*
X160461861Y-112022255D01*
X161290000Y-112850395D01*
X162118139Y-112022255D01*
X162044005Y-111776136D01*
X161506777Y-111583035D01*
X160936546Y-111610222D01*
X160535995Y-111776136D01*
X160461861Y-112022255D01*
X155700000Y-112022255D01*
X155700000Y-105595167D01*
X175594838Y-105595167D01*
X175736883Y-105938943D01*
X175999673Y-106202192D01*
X176343201Y-106344838D01*
X176715167Y-106345162D01*
X177058943Y-106203117D01*
X177322192Y-105940327D01*
X177464838Y-105596799D01*
X177464879Y-105549923D01*
X178337401Y-104677401D01*
X178502148Y-104430840D01*
X178560000Y-104140000D01*
X178560000Y-100326713D01*
X178654949Y-100390156D01*
X179070000Y-100472715D01*
X179485051Y-100390156D01*
X179836914Y-100155049D01*
X180072021Y-99803186D01*
X180154580Y-99388135D01*
X180154580Y-98731865D01*
X180072021Y-98316814D01*
X179836914Y-97964951D01*
X179485051Y-97729844D01*
X179070000Y-97647285D01*
X178654949Y-97729844D01*
X178435000Y-97876809D01*
X178215051Y-97729844D01*
X177800000Y-97647285D01*
X177384949Y-97729844D01*
X177160762Y-97879641D01*
X176823935Y-97715019D01*
X176657000Y-97841932D01*
X176657000Y-98933000D01*
X176677000Y-98933000D01*
X176677000Y-99187000D01*
X176657000Y-99187000D01*
X176657000Y-100278068D01*
X176823935Y-100404981D01*
X177040000Y-100299381D01*
X177040000Y-103825198D01*
X176390320Y-104474878D01*
X176344833Y-104474838D01*
X176001057Y-104616883D01*
X175737808Y-104879673D01*
X175595162Y-105223201D01*
X175594838Y-105595167D01*
X155700000Y-105595167D01*
X155700000Y-100067745D01*
X160461861Y-100067745D01*
X160535995Y-100313864D01*
X161073223Y-100506965D01*
X161643454Y-100479778D01*
X162044005Y-100313864D01*
X162118139Y-100067745D01*
X161290000Y-99239605D01*
X160461861Y-100067745D01*
X155700000Y-100067745D01*
X155700000Y-98843223D01*
X159843035Y-98843223D01*
X159870222Y-99413454D01*
X160036136Y-99814005D01*
X160282255Y-99888139D01*
X161110395Y-99060000D01*
X161469605Y-99060000D01*
X162297745Y-99888139D01*
X162543864Y-99814005D01*
X162712735Y-99344187D01*
X168054752Y-99344187D01*
X168272757Y-99871800D01*
X168676077Y-100275824D01*
X169203309Y-100494750D01*
X169774187Y-100495248D01*
X170301800Y-100277243D01*
X170705824Y-99873923D01*
X170924750Y-99346691D01*
X170924889Y-99187000D01*
X175445420Y-99187000D01*
X175445420Y-99487990D01*
X175576580Y-99893373D01*
X175852889Y-100217706D01*
X176236065Y-100404981D01*
X176403000Y-100278068D01*
X176403000Y-99187000D01*
X175445420Y-99187000D01*
X170924889Y-99187000D01*
X170925248Y-98775813D01*
X170879426Y-98664914D01*
X170882148Y-98660840D01*
X170887882Y-98632010D01*
X175445420Y-98632010D01*
X175445420Y-98933000D01*
X176403000Y-98933000D01*
X176403000Y-97841932D01*
X176236065Y-97715019D01*
X175852889Y-97902294D01*
X175576580Y-98226627D01*
X175445420Y-98632010D01*
X170887882Y-98632010D01*
X170940000Y-98370000D01*
X170940000Y-94294802D01*
X171987401Y-93247401D01*
X172152148Y-93000840D01*
X172210000Y-92710000D01*
X172210000Y-88868646D01*
X172261800Y-88847243D01*
X172665824Y-88443923D01*
X172884750Y-87916691D01*
X172885248Y-87345813D01*
X172667243Y-86818200D01*
X172263923Y-86414176D01*
X171736691Y-86195250D01*
X171165813Y-86194752D01*
X170638200Y-86412757D01*
X170234176Y-86816077D01*
X170015250Y-87343309D01*
X170014752Y-87914187D01*
X170232757Y-88441800D01*
X170636077Y-88845824D01*
X170690000Y-88868215D01*
X170690000Y-92395198D01*
X169642599Y-93442599D01*
X169477852Y-93689161D01*
X169420000Y-93980000D01*
X169420000Y-97624939D01*
X169205813Y-97624752D01*
X168678200Y-97842757D01*
X168274176Y-98246077D01*
X168055250Y-98773309D01*
X168054752Y-99344187D01*
X162712735Y-99344187D01*
X162736965Y-99276777D01*
X162709778Y-98706546D01*
X162543864Y-98305995D01*
X162297745Y-98231861D01*
X161469605Y-99060000D01*
X161110395Y-99060000D01*
X160282255Y-98231861D01*
X160036136Y-98305995D01*
X159843035Y-98843223D01*
X155700000Y-98843223D01*
X155700000Y-98352463D01*
X155732192Y-98320327D01*
X155843505Y-98052255D01*
X160461861Y-98052255D01*
X161290000Y-98880395D01*
X162118139Y-98052255D01*
X162044005Y-97806136D01*
X161506777Y-97613035D01*
X160936546Y-97640222D01*
X160535995Y-97806136D01*
X160461861Y-98052255D01*
X155843505Y-98052255D01*
X155874838Y-97976799D01*
X155875162Y-97604833D01*
X155733117Y-97261057D01*
X155700000Y-97227882D01*
X155700000Y-93510633D01*
X156023201Y-93644838D01*
X156395167Y-93645162D01*
X156738943Y-93503117D01*
X157002192Y-93240327D01*
X157144838Y-92896799D01*
X157145162Y-92524833D01*
X157003117Y-92181057D01*
X156970000Y-92147882D01*
X156970000Y-87915750D01*
X162395000Y-87915750D01*
X162395000Y-88556309D01*
X162491673Y-88789698D01*
X162670301Y-88968327D01*
X162903690Y-89065000D01*
X163544250Y-89065000D01*
X163703000Y-88906250D01*
X163703000Y-87757000D01*
X163957000Y-87757000D01*
X163957000Y-88906250D01*
X164115750Y-89065000D01*
X164756310Y-89065000D01*
X164989699Y-88968327D01*
X165168327Y-88789698D01*
X165265000Y-88556309D01*
X165265000Y-87915750D01*
X165106250Y-87757000D01*
X163957000Y-87757000D01*
X163703000Y-87757000D01*
X162553750Y-87757000D01*
X162395000Y-87915750D01*
X156970000Y-87915750D01*
X156970000Y-86703691D01*
X162395000Y-86703691D01*
X162395000Y-87344250D01*
X162553750Y-87503000D01*
X163703000Y-87503000D01*
X163703000Y-86353750D01*
X163957000Y-86353750D01*
X163957000Y-87503000D01*
X165106250Y-87503000D01*
X165265000Y-87344250D01*
X165265000Y-86703691D01*
X165168327Y-86470302D01*
X164989699Y-86291673D01*
X164756310Y-86195000D01*
X164115750Y-86195000D01*
X163957000Y-86353750D01*
X163703000Y-86353750D01*
X163544250Y-86195000D01*
X162903690Y-86195000D01*
X162670301Y-86291673D01*
X162491673Y-86470302D01*
X162395000Y-86703691D01*
X156970000Y-86703691D01*
X156970000Y-71272400D01*
X158254960Y-71272400D01*
X158254960Y-73507600D01*
X158299238Y-73742917D01*
X158438310Y-73959041D01*
X158650510Y-74104031D01*
X158902400Y-74155040D01*
X161137600Y-74155040D01*
X161372917Y-74110762D01*
X161589041Y-73971690D01*
X161673410Y-73848212D01*
X163070000Y-75244802D01*
X163070000Y-78797005D01*
X162815302Y-78967189D01*
X162504233Y-79432736D01*
X162395000Y-79981887D01*
X162395000Y-80038113D01*
X162504233Y-80587264D01*
X162815302Y-81052811D01*
X163280849Y-81363880D01*
X163830000Y-81473113D01*
X164379151Y-81363880D01*
X164844698Y-81052811D01*
X165155767Y-80587264D01*
X165265000Y-80038113D01*
X165265000Y-79981887D01*
X165155767Y-79432736D01*
X164844698Y-78967189D01*
X164590000Y-78797005D01*
X164590000Y-74930000D01*
X164532148Y-74639161D01*
X164532148Y-74639160D01*
X164367401Y-74392599D01*
X161827401Y-71852599D01*
X161785040Y-71824294D01*
X161785040Y-71272400D01*
X167144960Y-71272400D01*
X167144960Y-73507600D01*
X167189238Y-73742917D01*
X167328310Y-73959041D01*
X167540510Y-74104031D01*
X167792400Y-74155040D01*
X170027600Y-74155040D01*
X170262917Y-74110762D01*
X170479041Y-73971690D01*
X170563410Y-73848212D01*
X170690000Y-73974802D01*
X170690000Y-78797005D01*
X170435302Y-78967189D01*
X170124233Y-79432736D01*
X170015000Y-79981887D01*
X170015000Y-80038113D01*
X170124233Y-80587264D01*
X170435302Y-81052811D01*
X170900849Y-81363880D01*
X171450000Y-81473113D01*
X171999151Y-81363880D01*
X172464698Y-81052811D01*
X172775767Y-80587264D01*
X172885000Y-80038113D01*
X172885000Y-79981887D01*
X172775767Y-79432736D01*
X172464698Y-78967189D01*
X172210000Y-78797005D01*
X172210000Y-73660000D01*
X172203630Y-73627978D01*
X172152148Y-73369160D01*
X171987401Y-73122599D01*
X170717401Y-71852599D01*
X170675040Y-71824294D01*
X170675040Y-71272400D01*
X170630762Y-71037083D01*
X170491690Y-70820959D01*
X170279490Y-70675969D01*
X170027600Y-70624960D01*
X167792400Y-70624960D01*
X167557083Y-70669238D01*
X167340959Y-70808310D01*
X167195969Y-71020510D01*
X167144960Y-71272400D01*
X161785040Y-71272400D01*
X161740762Y-71037083D01*
X161601690Y-70820959D01*
X161389490Y-70675969D01*
X161137600Y-70624960D01*
X158902400Y-70624960D01*
X158667083Y-70669238D01*
X158450959Y-70808310D01*
X158305969Y-71020510D01*
X158254960Y-71272400D01*
X156970000Y-71272400D01*
X156970000Y-70164802D01*
X157619680Y-69515122D01*
X157665167Y-69515162D01*
X158008943Y-69373117D01*
X158272192Y-69110327D01*
X158414838Y-68766799D01*
X158415162Y-68394833D01*
X158273117Y-68051057D01*
X158010327Y-67787808D01*
X157666799Y-67645162D01*
X157294833Y-67644838D01*
X156951057Y-67786883D01*
X156687808Y-68049673D01*
X156545162Y-68393201D01*
X156545121Y-68440077D01*
X155700000Y-69285198D01*
X155700000Y-67624802D01*
X156349680Y-66975122D01*
X156395167Y-66975162D01*
X156738943Y-66833117D01*
X157002192Y-66570327D01*
X157144838Y-66226799D01*
X157145162Y-65854833D01*
X157003117Y-65511057D01*
X156740327Y-65247808D01*
X156396799Y-65105162D01*
X156024833Y-65104838D01*
X155681057Y-65246883D01*
X155417808Y-65509673D01*
X155275162Y-65853201D01*
X155275121Y-65900077D01*
X154402599Y-66772599D01*
X154237852Y-67019161D01*
X154180000Y-67310000D01*
X154180000Y-97227537D01*
X154147808Y-97259673D01*
X154005162Y-97603201D01*
X154004838Y-97975167D01*
X140460000Y-97975167D01*
X140460000Y-92719520D01*
X140789029Y-92499670D01*
X140970000Y-92228828D01*
X141150971Y-92499670D01*
X141637152Y-92824526D01*
X142210641Y-92938600D01*
X142269359Y-92938600D01*
X142842848Y-92824526D01*
X143329029Y-92499670D01*
X143510000Y-92228828D01*
X143690971Y-92499670D01*
X144177152Y-92824526D01*
X144750641Y-92938600D01*
X144809359Y-92938600D01*
X145382848Y-92824526D01*
X145848442Y-92513426D01*
X145853238Y-92538917D01*
X145992310Y-92755041D01*
X146204510Y-92900031D01*
X146456400Y-92951040D01*
X148183600Y-92951040D01*
X148418917Y-92906762D01*
X148635041Y-92767690D01*
X148780031Y-92555490D01*
X148831040Y-92303600D01*
X148831040Y-90576400D01*
X148786762Y-90341083D01*
X148647690Y-90124959D01*
X148435490Y-89979969D01*
X148183600Y-89928960D01*
X147480699Y-89928960D01*
X147577959Y-89440000D01*
X147473320Y-88913943D01*
X147922848Y-88824526D01*
X148409029Y-88499670D01*
X148733885Y-88013489D01*
X148847959Y-87440000D01*
X148733885Y-86866511D01*
X148409029Y-86380330D01*
X147922848Y-86055474D01*
X147473320Y-85966057D01*
X147577959Y-85440000D01*
X147463885Y-84866511D01*
X147139029Y-84380330D01*
X146652848Y-84055474D01*
X146079359Y-83941400D01*
X146020641Y-83941400D01*
X145447152Y-84055474D01*
X144960971Y-84380330D01*
X144780000Y-84651172D01*
X144599029Y-84380330D01*
X144112848Y-84055474D01*
X143539359Y-83941400D01*
X143480641Y-83941400D01*
X142907152Y-84055474D01*
X142420971Y-84380330D01*
X142240000Y-84651172D01*
X142059029Y-84380330D01*
X141572848Y-84055474D01*
X140999359Y-83941400D01*
X140940641Y-83941400D01*
X140367152Y-84055474D01*
X139880971Y-84380330D01*
X139700000Y-84651172D01*
X139519029Y-84380330D01*
X139032848Y-84055474D01*
X138459359Y-83941400D01*
X138400641Y-83941400D01*
X137827152Y-84055474D01*
X137340971Y-84380330D01*
X137160000Y-84651172D01*
X136979029Y-84380330D01*
X136492848Y-84055474D01*
X135919359Y-83941400D01*
X135860641Y-83941400D01*
X135287152Y-84055474D01*
X134800971Y-84380330D01*
X134620000Y-84651172D01*
X134439029Y-84380330D01*
X133952848Y-84055474D01*
X133379359Y-83941400D01*
X133320641Y-83941400D01*
X132747152Y-84055474D01*
X132260971Y-84380330D01*
X132080000Y-84651172D01*
X131899029Y-84380330D01*
X131412848Y-84055474D01*
X130839359Y-83941400D01*
X130780641Y-83941400D01*
X130207152Y-84055474D01*
X129720971Y-84380330D01*
X129540000Y-84651172D01*
X129359029Y-84380330D01*
X128872848Y-84055474D01*
X128299359Y-83941400D01*
X128240641Y-83941400D01*
X127667152Y-84055474D01*
X127180971Y-84380330D01*
X127000000Y-84651172D01*
X126819029Y-84380330D01*
X126332848Y-84055474D01*
X125759359Y-83941400D01*
X125700641Y-83941400D01*
X125127152Y-84055474D01*
X124640971Y-84380330D01*
X124460000Y-84651172D01*
X124279029Y-84380330D01*
X123792848Y-84055474D01*
X123219359Y-83941400D01*
X123160641Y-83941400D01*
X122587152Y-84055474D01*
X122100971Y-84380330D01*
X121920000Y-84651172D01*
X121739029Y-84380330D01*
X121252848Y-84055474D01*
X120679359Y-83941400D01*
X120620641Y-83941400D01*
X120047152Y-84055474D01*
X119560971Y-84380330D01*
X119380000Y-84651172D01*
X119199029Y-84380330D01*
X118712848Y-84055474D01*
X118139359Y-83941400D01*
X118080641Y-83941400D01*
X117507152Y-84055474D01*
X117020971Y-84380330D01*
X116840000Y-84651172D01*
X116659029Y-84380330D01*
X116172848Y-84055474D01*
X115599359Y-83941400D01*
X115540641Y-83941400D01*
X114967152Y-84055474D01*
X114480971Y-84380330D01*
X114300000Y-84651172D01*
X114119029Y-84380330D01*
X113632848Y-84055474D01*
X113059359Y-83941400D01*
X113000641Y-83941400D01*
X112427152Y-84055474D01*
X111940971Y-84380330D01*
X111760000Y-84651172D01*
X111579029Y-84380330D01*
X111092848Y-84055474D01*
X110519359Y-83941400D01*
X110460641Y-83941400D01*
X109887152Y-84055474D01*
X109400971Y-84380330D01*
X109220000Y-84651172D01*
X109039029Y-84380330D01*
X108552848Y-84055474D01*
X107979359Y-83941400D01*
X107920641Y-83941400D01*
X107347152Y-84055474D01*
X106860971Y-84380330D01*
X106680000Y-84651172D01*
X106499029Y-84380330D01*
X106012848Y-84055474D01*
X105439359Y-83941400D01*
X105380641Y-83941400D01*
X104807152Y-84055474D01*
X104320971Y-84380330D01*
X104140000Y-84651172D01*
X103959029Y-84380330D01*
X103472848Y-84055474D01*
X102899359Y-83941400D01*
X102840641Y-83941400D01*
X102267152Y-84055474D01*
X101780971Y-84380330D01*
X101600000Y-84651172D01*
X101419029Y-84380330D01*
X100932848Y-84055474D01*
X100359359Y-83941400D01*
X100300641Y-83941400D01*
X99727152Y-84055474D01*
X99240971Y-84380330D01*
X99060000Y-84651172D01*
X98879029Y-84380330D01*
X98392848Y-84055474D01*
X97819359Y-83941400D01*
X97760641Y-83941400D01*
X97187152Y-84055474D01*
X96700971Y-84380330D01*
X96376115Y-84866511D01*
X96262041Y-85440000D01*
X89027000Y-85440000D01*
X89027000Y-82735167D01*
X151464838Y-82735167D01*
X151606883Y-83078943D01*
X151869673Y-83342192D01*
X152213201Y-83484838D01*
X152585167Y-83485162D01*
X152928943Y-83343117D01*
X153192192Y-83080327D01*
X153334838Y-82736799D01*
X153335162Y-82364833D01*
X153193117Y-82021057D01*
X153160000Y-81987882D01*
X153160000Y-63685167D01*
X173054838Y-63685167D01*
X173196883Y-64028943D01*
X173230000Y-64062118D01*
X173230000Y-69850000D01*
X173287852Y-70140839D01*
X173452599Y-70387401D01*
X174324878Y-71259680D01*
X174324838Y-71305167D01*
X174466883Y-71648943D01*
X174729673Y-71912192D01*
X175073201Y-72054838D01*
X175445167Y-72055162D01*
X175788943Y-71913117D01*
X176052192Y-71650327D01*
X176194838Y-71306799D01*
X176195162Y-70934833D01*
X176053117Y-70591057D01*
X175790327Y-70327808D01*
X175446799Y-70185162D01*
X175399923Y-70185121D01*
X174750000Y-69535198D01*
X174750000Y-67580510D01*
X179963070Y-67580510D01*
X179963070Y-69579490D01*
X180007348Y-69814807D01*
X180146420Y-70030931D01*
X180312473Y-70144390D01*
X180099928Y-70462486D01*
X179975510Y-71087978D01*
X179975510Y-71152022D01*
X180099928Y-71777514D01*
X180454241Y-72307781D01*
X180577290Y-72390000D01*
X180454241Y-72472219D01*
X180099928Y-73002486D01*
X179975510Y-73627978D01*
X179975510Y-73692022D01*
X180099928Y-74317514D01*
X180454241Y-74847781D01*
X180850000Y-75112219D01*
X180850000Y-81987537D01*
X180817808Y-82019673D01*
X180675162Y-82363201D01*
X180674838Y-82735167D01*
X180816883Y-83078943D01*
X181079673Y-83342192D01*
X181423201Y-83484838D01*
X181795167Y-83485162D01*
X182138943Y-83343117D01*
X182402192Y-83080327D01*
X182544838Y-82736799D01*
X182545162Y-82364833D01*
X182403117Y-82021057D01*
X182370000Y-81987882D01*
X182370000Y-75112219D01*
X182765759Y-74847781D01*
X183120072Y-74317514D01*
X183244490Y-73692022D01*
X183244490Y-73627978D01*
X183120072Y-73002486D01*
X182765759Y-72472219D01*
X182642710Y-72390000D01*
X182765759Y-72307781D01*
X183120072Y-71777514D01*
X183244490Y-71152022D01*
X183244490Y-71087978D01*
X183120072Y-70462486D01*
X182906547Y-70142923D01*
X183060931Y-70043580D01*
X183205921Y-69831380D01*
X183256930Y-69579490D01*
X183256930Y-67580510D01*
X183212652Y-67345193D01*
X183073580Y-67129069D01*
X182861380Y-66984079D01*
X182609490Y-66933070D01*
X180610510Y-66933070D01*
X180375193Y-66977348D01*
X180159069Y-67116420D01*
X180014079Y-67328620D01*
X179963070Y-67580510D01*
X174750000Y-67580510D01*
X174750000Y-65570633D01*
X175073201Y-65704838D01*
X175445167Y-65705162D01*
X175788943Y-65563117D01*
X176052192Y-65300327D01*
X176194838Y-64956799D01*
X176195162Y-64584833D01*
X176053117Y-64241057D01*
X176020000Y-64207882D01*
X176020000Y-61340355D01*
X180020373Y-61340355D01*
X180286932Y-61919726D01*
X180754916Y-62352987D01*
X181229646Y-62549619D01*
X181483000Y-62430265D01*
X181483000Y-61087000D01*
X181737000Y-61087000D01*
X181737000Y-62430265D01*
X181990354Y-62549619D01*
X182465084Y-62352987D01*
X182933068Y-61919726D01*
X183199627Y-61340355D01*
X183080807Y-61087000D01*
X181737000Y-61087000D01*
X181483000Y-61087000D01*
X180139193Y-61087000D01*
X180020373Y-61340355D01*
X176020000Y-61340355D01*
X176020000Y-57464802D01*
X176844802Y-56640000D01*
X179963070Y-56640000D01*
X179963070Y-56879490D01*
X180007348Y-57114807D01*
X180146420Y-57330931D01*
X180312473Y-57444390D01*
X180099928Y-57762486D01*
X179975510Y-58387978D01*
X179975510Y-58452022D01*
X180099928Y-59077514D01*
X180454241Y-59607781D01*
X180603300Y-59707379D01*
X180286932Y-60000274D01*
X180020373Y-60579645D01*
X180139193Y-60833000D01*
X181483000Y-60833000D01*
X181483000Y-60813000D01*
X181737000Y-60813000D01*
X181737000Y-60833000D01*
X183080807Y-60833000D01*
X183199627Y-60579645D01*
X182933068Y-60000274D01*
X182616700Y-59707379D01*
X182765759Y-59607781D01*
X183120072Y-59077514D01*
X183244490Y-58452022D01*
X183244490Y-58387978D01*
X183120072Y-57762486D01*
X182906547Y-57442923D01*
X183060931Y-57343580D01*
X183205921Y-57131380D01*
X183256930Y-56879490D01*
X183256930Y-54880510D01*
X183212652Y-54645193D01*
X183073580Y-54429069D01*
X182861380Y-54284079D01*
X182609490Y-54233070D01*
X180610510Y-54233070D01*
X180375193Y-54277348D01*
X180159069Y-54416420D01*
X180014079Y-54628620D01*
X179963070Y-54880510D01*
X179963070Y-55120000D01*
X176530000Y-55120000D01*
X176239160Y-55177852D01*
X175992599Y-55342599D01*
X174722599Y-56612599D01*
X174557852Y-56859161D01*
X174500000Y-57150000D01*
X174500000Y-62699367D01*
X174176799Y-62565162D01*
X173804833Y-62564838D01*
X173461057Y-62706883D01*
X173197808Y-62969673D01*
X173055162Y-63313201D01*
X173054838Y-63685167D01*
X153160000Y-63685167D01*
X153160000Y-62415167D01*
X166704838Y-62415167D01*
X166846883Y-62758943D01*
X167109673Y-63022192D01*
X167453201Y-63164838D01*
X167825167Y-63165162D01*
X168168943Y-63023117D01*
X168432192Y-62760327D01*
X168574838Y-62416799D01*
X168575162Y-62044833D01*
X168433117Y-61701057D01*
X168400000Y-61667882D01*
X168400000Y-58915040D01*
X170027600Y-58915040D01*
X170262917Y-58870762D01*
X170479041Y-58731690D01*
X170624031Y-58519490D01*
X170675040Y-58267600D01*
X170675040Y-56032400D01*
X170630762Y-55797083D01*
X170491690Y-55580959D01*
X170279490Y-55435969D01*
X170027600Y-55384960D01*
X167792400Y-55384960D01*
X167557083Y-55429238D01*
X167340959Y-55568310D01*
X167195969Y-55780510D01*
X167144960Y-56032400D01*
X167144960Y-57840238D01*
X167102599Y-57882599D01*
X166937852Y-58129161D01*
X166880000Y-58420000D01*
X166880000Y-61667537D01*
X166847808Y-61699673D01*
X166705162Y-62043201D01*
X166704838Y-62415167D01*
X153160000Y-62415167D01*
X153160000Y-58734802D01*
X153984802Y-57910000D01*
X158254960Y-57910000D01*
X158254960Y-58267600D01*
X158299238Y-58502917D01*
X158438310Y-58719041D01*
X158650510Y-58864031D01*
X158902400Y-58915040D01*
X161137600Y-58915040D01*
X161372917Y-58870762D01*
X161589041Y-58731690D01*
X161734031Y-58519490D01*
X161785040Y-58267600D01*
X161785040Y-56032400D01*
X161740762Y-55797083D01*
X161601690Y-55580959D01*
X161389490Y-55435969D01*
X161137600Y-55384960D01*
X158902400Y-55384960D01*
X158667083Y-55429238D01*
X158450959Y-55568310D01*
X158305969Y-55780510D01*
X158254960Y-56032400D01*
X158254960Y-56390000D01*
X153670000Y-56390000D01*
X153379160Y-56447852D01*
X153132599Y-56612599D01*
X151862599Y-57882599D01*
X151697852Y-58129161D01*
X151640000Y-58420000D01*
X151640000Y-81987537D01*
X151607808Y-82019673D01*
X151465162Y-82363201D01*
X151464838Y-82735167D01*
X89027000Y-82735167D01*
X89027000Y-52197000D01*
X185293000Y-52197000D01*
X185293000Y-148463000D01*
G36*
X130937000Y-89313000D02*
X133223000Y-89313000D01*
X133223000Y-89293000D01*
X133477000Y-89293000D01*
X133477000Y-89313000D01*
X135763000Y-89313000D01*
X135763000Y-89293000D01*
X136017000Y-89293000D01*
X136017000Y-89313000D01*
X136037000Y-89313000D01*
X136037000Y-89567000D01*
X136017000Y-89567000D01*
X136017000Y-89587000D01*
X135763000Y-89587000D01*
X135763000Y-89567000D01*
X133477000Y-89567000D01*
X133477000Y-89587000D01*
X133223000Y-89587000D01*
X133223000Y-89567000D01*
X130937000Y-89567000D01*
X130937000Y-89587000D01*
X130683000Y-89587000D01*
X130683000Y-89567000D01*
X130663000Y-89567000D01*
X130663000Y-89313000D01*
X130683000Y-89313000D01*
X130683000Y-89293000D01*
X130937000Y-89293000D01*
X130937000Y-89313000D01*
X130937000Y-89313000D01*
G37*
X130937000Y-89313000D02*
X133223000Y-89313000D01*
X133223000Y-89293000D01*
X133477000Y-89293000D01*
X133477000Y-89313000D01*
X135763000Y-89313000D01*
X135763000Y-89293000D01*
X136017000Y-89293000D01*
X136017000Y-89313000D01*
X136037000Y-89313000D01*
X136037000Y-89567000D01*
X136017000Y-89567000D01*
X136017000Y-89587000D01*
X135763000Y-89587000D01*
X135763000Y-89567000D01*
X133477000Y-89567000D01*
X133477000Y-89587000D01*
X133223000Y-89587000D01*
X133223000Y-89567000D01*
X130937000Y-89567000D01*
X130937000Y-89587000D01*
X130683000Y-89587000D01*
X130683000Y-89567000D01*
X130663000Y-89567000D01*
X130663000Y-89313000D01*
X130683000Y-89313000D01*
X130683000Y-89293000D01*
X130937000Y-89293000D01*
X130937000Y-89313000D01*
M02*
