M48
INCH,TZ
T1C0.016
T2C0.024
T3C0.031
T4C0.032
T5C0.035
T6C0.040
T7C0.043
%
G90
G05
T1
X44500Y-39000
X45000Y-41500
X45500Y-41000
X46000Y-37000
X47500Y-37000
X47500Y-38500
X49500Y-38500
X60000Y-32500
X61000Y-38500
X61500Y-26000
X61500Y-36500
X61500Y-47000
X62000Y-27000
X66000Y-24500
X68500Y-25000
X69000Y-25500
X69000Y-28000
X69500Y-41500
X71500Y-32500
T2
X69500Y-39000
X70000Y-39000
X70500Y-39000
T3
X63500Y-39000
X63500Y-44500
X63500Y-47500
X64500Y-31500
X64500Y-34500
X66000Y-44500
X66000Y-47500
X66728Y-39000
X67500Y-31500
X67500Y-34500
X68500Y-44500
X68500Y-47500
X71000Y-45000
X71000Y-46969
T4
X65579Y-52531
X65579Y-54500
X70500Y-52531
X70500Y-54500
T5
X47000Y-40200
X48000Y-40200
X49000Y-40200
X50000Y-40200
T6
X38500Y-33638
X38500Y-35213
X39000Y-34425
X39000Y-36000
X39500Y-33638
X39500Y-35213
X40000Y-34425
X40000Y-36000
X40500Y-33638
X40500Y-35213
X41000Y-34425
X41000Y-36000
X41500Y-33638
X41500Y-35213
X42000Y-34425
X42000Y-36000
X42500Y-33638
X42500Y-35213
X43000Y-34425
X43000Y-36000
X43500Y-33638
X43500Y-35213
X44000Y-34425
X44000Y-36000
X44500Y-33638
X44500Y-35213
X45000Y-34425
X45000Y-36000
X45500Y-33638
X45500Y-35213
X46000Y-34425
X46000Y-36000
X46500Y-33638
X46500Y-35213
X47000Y-34425
X47000Y-36000
X47500Y-33638
X47500Y-35213
X48000Y-34425
X48000Y-36000
X48500Y-33638
X48500Y-35213
X49000Y-34425
X49000Y-36000
X49500Y-33638
X49500Y-35213
X50000Y-34425
X50000Y-36000
X50500Y-33638
X50500Y-35213
X51000Y-34425
X51000Y-36000
X51500Y-33638
X51500Y-35213
X52000Y-34425
X52000Y-36000
X52500Y-33638
X52500Y-35213
X53000Y-34425
X53000Y-36000
X53500Y-33638
X53500Y-35213
X54000Y-34425
X54000Y-36000
X54500Y-33638
X54500Y-35213
X55000Y-34425
X55000Y-36000
X55500Y-33638
X55500Y-35213
X56000Y-34425
X56000Y-36000
X56500Y-33638
X56500Y-35213
X57000Y-34425
X57000Y-36000
X57500Y-33638
X57500Y-35213
X58000Y-34425
X58000Y-36000
X63000Y-22500
X63000Y-28500
X66500Y-22500
X66500Y-28500
T7
X71500Y-22000
X71500Y-23000
X71500Y-24000
X71500Y-27000
X71500Y-28000
X71500Y-29000
T0
M30
