G04 #@! TF.FileFunction,Copper,L2,Bot,Signal*
%FSLAX46Y46*%
G04 Gerber Fmt 4.6, Leading zero omitted, Abs format (unit mm)*
G04 Created by KiCad (PCBNEW 4.0.7) date Tuesday, 22 May 2018 'PMt' 14:30:25*
%MOMM*%
%LPD*%
G01*
G04 APERTURE LIST*
%ADD10C,0.100000*%
%ADD11C,1.524000*%
%ADD12O,0.899160X1.501140*%
%ADD13R,1.600000X1.600000*%
%ADD14O,1.600000X1.600000*%
%ADD15R,2.235200X2.235200*%
%ADD16C,1.600000*%
%ADD17O,3.048000X1.727200*%
%ADD18O,1.998980X1.998980*%
%ADD19R,1.998980X1.998980*%
%ADD20O,1.727200X1.727200*%
%ADD21R,1.727200X1.727200*%
%ADD22C,0.600000*%
%ADD23C,0.250000*%
%ADD24C,0.254000*%
G04 APERTURE END LIST*
D10*
D11*
X119380000Y-102108000D03*
X121920000Y-102108000D03*
X124460000Y-102108000D03*
X127000000Y-102108000D03*
D12*
X177800000Y-99060000D03*
X179070000Y-99060000D03*
X176530000Y-99060000D03*
D13*
X163830000Y-87630000D03*
D14*
X163830000Y-80010000D03*
D15*
X160020000Y-57150000D03*
X168910000Y-57150000D03*
X160020000Y-72390000D03*
X168910000Y-72390000D03*
D16*
X171450000Y-87630000D03*
D14*
X171450000Y-80010000D03*
D16*
X180340000Y-114300000D03*
X180340000Y-119300000D03*
X167640000Y-120650000D03*
D14*
X167640000Y-113030000D03*
D16*
X173990000Y-120650000D03*
D14*
X173990000Y-113030000D03*
D16*
X161290000Y-113030000D03*
D14*
X161290000Y-120650000D03*
D17*
X166570000Y-138430000D03*
X166570000Y-133430000D03*
X179070000Y-138430000D03*
X179070000Y-133430000D03*
D18*
X181610000Y-60960000D03*
D19*
X181610000Y-55880000D03*
D18*
X181610000Y-58420000D03*
X181610000Y-73660000D03*
D19*
X181610000Y-68580000D03*
D18*
X181610000Y-71120000D03*
D16*
X161290000Y-99060000D03*
X169490000Y-99060000D03*
D20*
X97790000Y-85440000D03*
X99060000Y-87440000D03*
X100330000Y-85440000D03*
X101600000Y-87440000D03*
X102870000Y-85440000D03*
X104140000Y-87440000D03*
X105410000Y-85440000D03*
X106680000Y-87440000D03*
X107950000Y-85440000D03*
X109220000Y-87440000D03*
X110490000Y-85440000D03*
X111760000Y-87440000D03*
X113030000Y-85440000D03*
X114300000Y-87440000D03*
X115570000Y-85440000D03*
X116840000Y-87440000D03*
X118110000Y-85440000D03*
X119380000Y-87440000D03*
X120650000Y-89440000D03*
X118110000Y-89440000D03*
X115570000Y-89440000D03*
X113030000Y-89440000D03*
X110490000Y-89440000D03*
X107950000Y-89440000D03*
X105410000Y-89440000D03*
X102870000Y-89440000D03*
X100330000Y-89440000D03*
X97790000Y-89440000D03*
X119380000Y-91440000D03*
X116840000Y-91440000D03*
X114300000Y-91440000D03*
X111760000Y-91440000D03*
X109220000Y-91440000D03*
X106680000Y-91440000D03*
X104140000Y-91440000D03*
X101600000Y-91440000D03*
X99060000Y-91440000D03*
X120650000Y-85440000D03*
X146050000Y-85440000D03*
X147320000Y-87440000D03*
X121920000Y-91440000D03*
X124460000Y-91440000D03*
X127000000Y-91440000D03*
X129540000Y-91440000D03*
X132080000Y-91440000D03*
X134620000Y-91440000D03*
X137160000Y-91440000D03*
X139700000Y-91440000D03*
X142240000Y-91440000D03*
X144780000Y-91440000D03*
X123190000Y-89440000D03*
X125730000Y-89440000D03*
X128270000Y-89440000D03*
X130810000Y-89440000D03*
X133350000Y-89440000D03*
X135890000Y-89440000D03*
X138430000Y-89440000D03*
X140970000Y-89440000D03*
X143510000Y-89440000D03*
X146050000Y-89440000D03*
D21*
X147320000Y-91440000D03*
D20*
X144780000Y-87440000D03*
X143510000Y-85440000D03*
X142240000Y-87440000D03*
X140970000Y-85440000D03*
X139700000Y-87440000D03*
X138430000Y-85440000D03*
X137160000Y-87440000D03*
X135890000Y-85440000D03*
X134620000Y-87440000D03*
X133350000Y-85440000D03*
X132080000Y-87440000D03*
X130810000Y-85440000D03*
X129540000Y-87440000D03*
X128270000Y-85440000D03*
X127000000Y-87440000D03*
X125730000Y-85440000D03*
X124460000Y-87440000D03*
X123190000Y-85440000D03*
X121920000Y-87440000D03*
D22*
X152400000Y-82550000D03*
X181610000Y-82550000D03*
X173990000Y-63500000D03*
X167640000Y-62230000D03*
X175260000Y-71120000D03*
X120650000Y-93980000D03*
X116840000Y-93980000D03*
X115570000Y-104140000D03*
X176530000Y-105410000D03*
X114300000Y-105410000D03*
X125730000Y-97790000D03*
X120650000Y-97790000D03*
X154940000Y-97790000D03*
X156210000Y-66040000D03*
X175260000Y-64770000D03*
X156210000Y-119380000D03*
X157480000Y-68580000D03*
X156210000Y-92710000D03*
X113030000Y-99060000D03*
D23*
X152400000Y-82550000D02*
X153670000Y-83820000D01*
X180340000Y-83820000D02*
X181610000Y-82550000D01*
X153670000Y-83820000D02*
X180340000Y-83820000D01*
X173990000Y-63500000D02*
X172720000Y-62230000D01*
X172720000Y-62230000D02*
X167640000Y-62230000D01*
X175260000Y-71120000D02*
X181610000Y-71120000D01*
X120650000Y-93980000D02*
X116840000Y-93980000D01*
X116840000Y-105410000D02*
X115570000Y-104140000D01*
X118110000Y-105410000D02*
X116840000Y-105410000D01*
X176530000Y-105410000D02*
X118110000Y-105410000D01*
X173990000Y-109220000D02*
X173990000Y-113030000D01*
X115570000Y-106680000D02*
X114300000Y-105410000D01*
X171450000Y-106680000D02*
X115570000Y-106680000D01*
X173990000Y-109220000D02*
X171450000Y-106680000D01*
X180340000Y-114300000D02*
X179070000Y-114300000D01*
X177800000Y-113030000D02*
X173990000Y-113030000D01*
X179070000Y-114300000D02*
X177800000Y-113030000D01*
X120650000Y-97790000D02*
X125730000Y-97790000D01*
X125730000Y-97790000D02*
X154940000Y-97790000D01*
X173990000Y-66040000D02*
X175260000Y-64770000D01*
X156210000Y-66040000D02*
X173990000Y-66040000D01*
X161290000Y-120650000D02*
X157480000Y-120650000D01*
X157480000Y-120650000D02*
X156210000Y-119380000D01*
X130810000Y-93980000D02*
X129540000Y-92710000D01*
X181610000Y-68580000D02*
X157480000Y-68580000D01*
X154940000Y-93980000D02*
X130810000Y-93980000D01*
X156210000Y-92710000D02*
X154940000Y-93980000D01*
X129540000Y-92710000D02*
X129540000Y-91440000D01*
X156210000Y-99060000D02*
X158750000Y-101600000D01*
X158750000Y-101600000D02*
X167640000Y-101600000D01*
X169490000Y-99750000D02*
X167640000Y-101600000D01*
X113030000Y-99060000D02*
X156210000Y-99060000D01*
X169490000Y-99750000D02*
X169490000Y-99060000D01*
D24*
G36*
X185293000Y-148463000D02*
X89027000Y-148463000D01*
X89027000Y-138430000D01*
X164368703Y-138430000D01*
X164482777Y-139003489D01*
X164807633Y-139489670D01*
X165293814Y-139814526D01*
X165867303Y-139928600D01*
X167272697Y-139928600D01*
X167846186Y-139814526D01*
X168332367Y-139489670D01*
X168657223Y-139003489D01*
X168771297Y-138430000D01*
X176868703Y-138430000D01*
X176982777Y-139003489D01*
X177307633Y-139489670D01*
X177793814Y-139814526D01*
X178367303Y-139928600D01*
X179772697Y-139928600D01*
X180346186Y-139814526D01*
X180832367Y-139489670D01*
X181157223Y-139003489D01*
X181271297Y-138430000D01*
X181157223Y-137856511D01*
X180832367Y-137370330D01*
X180346186Y-137045474D01*
X179772697Y-136931400D01*
X178367303Y-136931400D01*
X177793814Y-137045474D01*
X177307633Y-137370330D01*
X176982777Y-137856511D01*
X176868703Y-138430000D01*
X168771297Y-138430000D01*
X168657223Y-137856511D01*
X168332367Y-137370330D01*
X167846186Y-137045474D01*
X167272697Y-136931400D01*
X165867303Y-136931400D01*
X165293814Y-137045474D01*
X164807633Y-137370330D01*
X164482777Y-137856511D01*
X164368703Y-138430000D01*
X89027000Y-138430000D01*
X89027000Y-133430000D01*
X164368703Y-133430000D01*
X164482777Y-134003489D01*
X164807633Y-134489670D01*
X165293814Y-134814526D01*
X165867303Y-134928600D01*
X167272697Y-134928600D01*
X167846186Y-134814526D01*
X168332367Y-134489670D01*
X168657223Y-134003489D01*
X168771297Y-133430000D01*
X176868703Y-133430000D01*
X176982777Y-134003489D01*
X177307633Y-134489670D01*
X177793814Y-134814526D01*
X178367303Y-134928600D01*
X179772697Y-134928600D01*
X180346186Y-134814526D01*
X180832367Y-134489670D01*
X181157223Y-134003489D01*
X181271297Y-133430000D01*
X181157223Y-132856511D01*
X180832367Y-132370330D01*
X180346186Y-132045474D01*
X179772697Y-131931400D01*
X178367303Y-131931400D01*
X177793814Y-132045474D01*
X177307633Y-132370330D01*
X176982777Y-132856511D01*
X176868703Y-133430000D01*
X168771297Y-133430000D01*
X168657223Y-132856511D01*
X168332367Y-132370330D01*
X167846186Y-132045474D01*
X167272697Y-131931400D01*
X165867303Y-131931400D01*
X165293814Y-132045474D01*
X164807633Y-132370330D01*
X164482777Y-132856511D01*
X164368703Y-133430000D01*
X89027000Y-133430000D01*
X89027000Y-119565167D01*
X155274838Y-119565167D01*
X155416883Y-119908943D01*
X155679673Y-120172192D01*
X156023201Y-120314838D01*
X156070077Y-120314879D01*
X156942599Y-121187401D01*
X157189160Y-121352148D01*
X157480000Y-121410000D01*
X160086333Y-121410000D01*
X160275302Y-121692811D01*
X160740849Y-122003880D01*
X161290000Y-122113113D01*
X161839151Y-122003880D01*
X162304698Y-121692811D01*
X162615767Y-121227264D01*
X162674063Y-120934187D01*
X166204752Y-120934187D01*
X166422757Y-121461800D01*
X166826077Y-121865824D01*
X167353309Y-122084750D01*
X167924187Y-122085248D01*
X168451800Y-121867243D01*
X168855824Y-121463923D01*
X169074750Y-120936691D01*
X169074752Y-120934187D01*
X172554752Y-120934187D01*
X172772757Y-121461800D01*
X173176077Y-121865824D01*
X173703309Y-122084750D01*
X174274187Y-122085248D01*
X174801800Y-121867243D01*
X175205824Y-121463923D01*
X175424750Y-120936691D01*
X175425248Y-120365813D01*
X175207243Y-119838200D01*
X174953673Y-119584187D01*
X178904752Y-119584187D01*
X179122757Y-120111800D01*
X179526077Y-120515824D01*
X180053309Y-120734750D01*
X180624187Y-120735248D01*
X181151800Y-120517243D01*
X181555824Y-120113923D01*
X181774750Y-119586691D01*
X181775248Y-119015813D01*
X181557243Y-118488200D01*
X181153923Y-118084176D01*
X180626691Y-117865250D01*
X180055813Y-117864752D01*
X179528200Y-118082757D01*
X179124176Y-118486077D01*
X178905250Y-119013309D01*
X178904752Y-119584187D01*
X174953673Y-119584187D01*
X174803923Y-119434176D01*
X174276691Y-119215250D01*
X173705813Y-119214752D01*
X173178200Y-119432757D01*
X172774176Y-119836077D01*
X172555250Y-120363309D01*
X172554752Y-120934187D01*
X169074752Y-120934187D01*
X169075248Y-120365813D01*
X168857243Y-119838200D01*
X168453923Y-119434176D01*
X167926691Y-119215250D01*
X167355813Y-119214752D01*
X166828200Y-119432757D01*
X166424176Y-119836077D01*
X166205250Y-120363309D01*
X166204752Y-120934187D01*
X162674063Y-120934187D01*
X162725000Y-120678113D01*
X162725000Y-120621887D01*
X162615767Y-120072736D01*
X162304698Y-119607189D01*
X161839151Y-119296120D01*
X161290000Y-119186887D01*
X160740849Y-119296120D01*
X160275302Y-119607189D01*
X160086333Y-119890000D01*
X157794802Y-119890000D01*
X157145122Y-119240320D01*
X157145162Y-119194833D01*
X157003117Y-118851057D01*
X156740327Y-118587808D01*
X156396799Y-118445162D01*
X156024833Y-118444838D01*
X155681057Y-118586883D01*
X155417808Y-118849673D01*
X155275162Y-119193201D01*
X155274838Y-119565167D01*
X89027000Y-119565167D01*
X89027000Y-113314187D01*
X159854752Y-113314187D01*
X160072757Y-113841800D01*
X160476077Y-114245824D01*
X161003309Y-114464750D01*
X161574187Y-114465248D01*
X162101800Y-114247243D01*
X162505824Y-113843923D01*
X162698860Y-113379041D01*
X166248086Y-113379041D01*
X166487611Y-113885134D01*
X166902577Y-114261041D01*
X167290961Y-114421904D01*
X167513000Y-114299915D01*
X167513000Y-113157000D01*
X167767000Y-113157000D01*
X167767000Y-114299915D01*
X167989039Y-114421904D01*
X168377423Y-114261041D01*
X168792389Y-113885134D01*
X169031914Y-113379041D01*
X168910629Y-113157000D01*
X167767000Y-113157000D01*
X167513000Y-113157000D01*
X166369371Y-113157000D01*
X166248086Y-113379041D01*
X162698860Y-113379041D01*
X162724750Y-113316691D01*
X162725248Y-112745813D01*
X162698451Y-112680959D01*
X166248086Y-112680959D01*
X166369371Y-112903000D01*
X167513000Y-112903000D01*
X167513000Y-111760085D01*
X167767000Y-111760085D01*
X167767000Y-112903000D01*
X168910629Y-112903000D01*
X169031914Y-112680959D01*
X168792389Y-112174866D01*
X168377423Y-111798959D01*
X167989039Y-111638096D01*
X167767000Y-111760085D01*
X167513000Y-111760085D01*
X167290961Y-111638096D01*
X166902577Y-111798959D01*
X166487611Y-112174866D01*
X166248086Y-112680959D01*
X162698451Y-112680959D01*
X162507243Y-112218200D01*
X162103923Y-111814176D01*
X161576691Y-111595250D01*
X161005813Y-111594752D01*
X160478200Y-111812757D01*
X160074176Y-112216077D01*
X159855250Y-112743309D01*
X159854752Y-113314187D01*
X89027000Y-113314187D01*
X89027000Y-105595167D01*
X113364838Y-105595167D01*
X113506883Y-105938943D01*
X113769673Y-106202192D01*
X114113201Y-106344838D01*
X114160077Y-106344879D01*
X115032599Y-107217401D01*
X115279160Y-107382148D01*
X115570000Y-107440000D01*
X171135198Y-107440000D01*
X173230000Y-109534802D01*
X173230000Y-111817005D01*
X172975302Y-111987189D01*
X172664233Y-112452736D01*
X172555000Y-113001887D01*
X172555000Y-113058113D01*
X172664233Y-113607264D01*
X172975302Y-114072811D01*
X173440849Y-114383880D01*
X173990000Y-114493113D01*
X174539151Y-114383880D01*
X175004698Y-114072811D01*
X175193667Y-113790000D01*
X177485198Y-113790000D01*
X178532599Y-114837401D01*
X178779160Y-115002148D01*
X179070000Y-115060000D01*
X179101354Y-115060000D01*
X179122757Y-115111800D01*
X179526077Y-115515824D01*
X180053309Y-115734750D01*
X180624187Y-115735248D01*
X181151800Y-115517243D01*
X181555824Y-115113923D01*
X181774750Y-114586691D01*
X181775248Y-114015813D01*
X181557243Y-113488200D01*
X181153923Y-113084176D01*
X180626691Y-112865250D01*
X180055813Y-112864752D01*
X179528200Y-113082757D01*
X179227618Y-113382816D01*
X178337401Y-112492599D01*
X178090839Y-112327852D01*
X177800000Y-112270000D01*
X175193667Y-112270000D01*
X175004698Y-111987189D01*
X174750000Y-111817005D01*
X174750000Y-109220000D01*
X174692148Y-108929161D01*
X174692148Y-108929160D01*
X174527401Y-108682599D01*
X172014802Y-106170000D01*
X175967537Y-106170000D01*
X175999673Y-106202192D01*
X176343201Y-106344838D01*
X176715167Y-106345162D01*
X177058943Y-106203117D01*
X177322192Y-105940327D01*
X177464838Y-105596799D01*
X177465162Y-105224833D01*
X177323117Y-104881057D01*
X177060327Y-104617808D01*
X176716799Y-104475162D01*
X176344833Y-104474838D01*
X176001057Y-104616883D01*
X175967882Y-104650000D01*
X117154802Y-104650000D01*
X116505122Y-104000320D01*
X116505162Y-103954833D01*
X116363117Y-103611057D01*
X116100327Y-103347808D01*
X115756799Y-103205162D01*
X115384833Y-103204838D01*
X115041057Y-103346883D01*
X114777808Y-103609673D01*
X114635162Y-103953201D01*
X114634838Y-104325167D01*
X114740310Y-104580430D01*
X114486799Y-104475162D01*
X114114833Y-104474838D01*
X113771057Y-104616883D01*
X113507808Y-104879673D01*
X113365162Y-105223201D01*
X113364838Y-105595167D01*
X89027000Y-105595167D01*
X89027000Y-102384661D01*
X117982758Y-102384661D01*
X118194990Y-102898303D01*
X118587630Y-103291629D01*
X119100900Y-103504757D01*
X119656661Y-103505242D01*
X120170303Y-103293010D01*
X120375457Y-103088213D01*
X121119392Y-103088213D01*
X121188857Y-103330397D01*
X121712302Y-103517144D01*
X122267368Y-103489362D01*
X122651143Y-103330397D01*
X122720608Y-103088213D01*
X121920000Y-102287605D01*
X121119392Y-103088213D01*
X120375457Y-103088213D01*
X120563629Y-102900370D01*
X120643395Y-102708273D01*
X120697603Y-102839143D01*
X120939787Y-102908608D01*
X121740395Y-102108000D01*
X122099605Y-102108000D01*
X122900213Y-102908608D01*
X123142397Y-102839143D01*
X123192509Y-102698682D01*
X123274990Y-102898303D01*
X123667630Y-103291629D01*
X124180900Y-103504757D01*
X124736661Y-103505242D01*
X125250303Y-103293010D01*
X125643629Y-102900370D01*
X125729949Y-102692488D01*
X125814990Y-102898303D01*
X126207630Y-103291629D01*
X126720900Y-103504757D01*
X127276661Y-103505242D01*
X127790303Y-103293010D01*
X128183629Y-102900370D01*
X128396757Y-102387100D01*
X128397242Y-101831339D01*
X128185010Y-101317697D01*
X127792370Y-100924371D01*
X127279100Y-100711243D01*
X126723339Y-100710758D01*
X126209697Y-100922990D01*
X125816371Y-101315630D01*
X125730051Y-101523512D01*
X125645010Y-101317697D01*
X125252370Y-100924371D01*
X124739100Y-100711243D01*
X124183339Y-100710758D01*
X123669697Y-100922990D01*
X123276371Y-101315630D01*
X123196605Y-101507727D01*
X123142397Y-101376857D01*
X122900213Y-101307392D01*
X122099605Y-102108000D01*
X121740395Y-102108000D01*
X120939787Y-101307392D01*
X120697603Y-101376857D01*
X120647491Y-101517318D01*
X120565010Y-101317697D01*
X120375432Y-101127787D01*
X121119392Y-101127787D01*
X121920000Y-101928395D01*
X122720608Y-101127787D01*
X122651143Y-100885603D01*
X122127698Y-100698856D01*
X121572632Y-100726638D01*
X121188857Y-100885603D01*
X121119392Y-101127787D01*
X120375432Y-101127787D01*
X120172370Y-100924371D01*
X119659100Y-100711243D01*
X119103339Y-100710758D01*
X118589697Y-100922990D01*
X118196371Y-101315630D01*
X117983243Y-101828900D01*
X117982758Y-102384661D01*
X89027000Y-102384661D01*
X89027000Y-99245167D01*
X112094838Y-99245167D01*
X112236883Y-99588943D01*
X112499673Y-99852192D01*
X112843201Y-99994838D01*
X113215167Y-99995162D01*
X113558943Y-99853117D01*
X113592118Y-99820000D01*
X155895198Y-99820000D01*
X158212599Y-102137401D01*
X158459160Y-102302148D01*
X158507414Y-102311746D01*
X158750000Y-102360000D01*
X167640000Y-102360000D01*
X167930839Y-102302148D01*
X168177401Y-102137401D01*
X169851498Y-100463304D01*
X170301800Y-100277243D01*
X170705824Y-99873923D01*
X170924750Y-99346691D01*
X170925248Y-98775813D01*
X170907090Y-98731865D01*
X175445420Y-98731865D01*
X175445420Y-99388135D01*
X175527979Y-99803186D01*
X175763086Y-100155049D01*
X176114949Y-100390156D01*
X176530000Y-100472715D01*
X176945051Y-100390156D01*
X177165000Y-100243191D01*
X177384949Y-100390156D01*
X177800000Y-100472715D01*
X178215051Y-100390156D01*
X178439238Y-100240359D01*
X178776065Y-100404981D01*
X178943000Y-100278068D01*
X178943000Y-99187000D01*
X179197000Y-99187000D01*
X179197000Y-100278068D01*
X179363935Y-100404981D01*
X179747111Y-100217706D01*
X180023420Y-99893373D01*
X180154580Y-99487990D01*
X180154580Y-99187000D01*
X179197000Y-99187000D01*
X178943000Y-99187000D01*
X178923000Y-99187000D01*
X178923000Y-98933000D01*
X178943000Y-98933000D01*
X178943000Y-97841932D01*
X179197000Y-97841932D01*
X179197000Y-98933000D01*
X180154580Y-98933000D01*
X180154580Y-98632010D01*
X180023420Y-98226627D01*
X179747111Y-97902294D01*
X179363935Y-97715019D01*
X179197000Y-97841932D01*
X178943000Y-97841932D01*
X178776065Y-97715019D01*
X178439238Y-97879641D01*
X178215051Y-97729844D01*
X177800000Y-97647285D01*
X177384949Y-97729844D01*
X177165000Y-97876809D01*
X176945051Y-97729844D01*
X176530000Y-97647285D01*
X176114949Y-97729844D01*
X175763086Y-97964951D01*
X175527979Y-98316814D01*
X175445420Y-98731865D01*
X170907090Y-98731865D01*
X170707243Y-98248200D01*
X170303923Y-97844176D01*
X169776691Y-97625250D01*
X169205813Y-97624752D01*
X168678200Y-97842757D01*
X168274176Y-98246077D01*
X168055250Y-98773309D01*
X168054752Y-99344187D01*
X168272757Y-99871800D01*
X168283069Y-99882129D01*
X167325198Y-100840000D01*
X159064802Y-100840000D01*
X157568989Y-99344187D01*
X159854752Y-99344187D01*
X160072757Y-99871800D01*
X160476077Y-100275824D01*
X161003309Y-100494750D01*
X161574187Y-100495248D01*
X162101800Y-100277243D01*
X162505824Y-99873923D01*
X162724750Y-99346691D01*
X162725248Y-98775813D01*
X162507243Y-98248200D01*
X162103923Y-97844176D01*
X161576691Y-97625250D01*
X161005813Y-97624752D01*
X160478200Y-97842757D01*
X160074176Y-98246077D01*
X159855250Y-98773309D01*
X159854752Y-99344187D01*
X157568989Y-99344187D01*
X156747401Y-98522599D01*
X156500839Y-98357852D01*
X156210000Y-98300000D01*
X155740633Y-98300000D01*
X155874838Y-97976799D01*
X155875162Y-97604833D01*
X155733117Y-97261057D01*
X155470327Y-96997808D01*
X155126799Y-96855162D01*
X154754833Y-96854838D01*
X154411057Y-96996883D01*
X154377882Y-97030000D01*
X126292463Y-97030000D01*
X126260327Y-96997808D01*
X125916799Y-96855162D01*
X125544833Y-96854838D01*
X125201057Y-96996883D01*
X125167882Y-97030000D01*
X121212463Y-97030000D01*
X121180327Y-96997808D01*
X120836799Y-96855162D01*
X120464833Y-96854838D01*
X120121057Y-96996883D01*
X119857808Y-97259673D01*
X119715162Y-97603201D01*
X119714838Y-97975167D01*
X119849056Y-98300000D01*
X113592463Y-98300000D01*
X113560327Y-98267808D01*
X113216799Y-98125162D01*
X112844833Y-98124838D01*
X112501057Y-98266883D01*
X112237808Y-98529673D01*
X112095162Y-98873201D01*
X112094838Y-99245167D01*
X89027000Y-99245167D01*
X89027000Y-94165167D01*
X115904838Y-94165167D01*
X116046883Y-94508943D01*
X116309673Y-94772192D01*
X116653201Y-94914838D01*
X117025167Y-94915162D01*
X117368943Y-94773117D01*
X117402118Y-94740000D01*
X120087537Y-94740000D01*
X120119673Y-94772192D01*
X120463201Y-94914838D01*
X120835167Y-94915162D01*
X121178943Y-94773117D01*
X121442192Y-94510327D01*
X121584838Y-94166799D01*
X121585162Y-93794833D01*
X121443117Y-93451057D01*
X121180327Y-93187808D01*
X120836799Y-93045162D01*
X120464833Y-93044838D01*
X120121057Y-93186883D01*
X120087882Y-93220000D01*
X117402463Y-93220000D01*
X117370327Y-93187808D01*
X117026799Y-93045162D01*
X116654833Y-93044838D01*
X116311057Y-93186883D01*
X116047808Y-93449673D01*
X115905162Y-93793201D01*
X115904838Y-94165167D01*
X89027000Y-94165167D01*
X89027000Y-85440000D01*
X96262041Y-85440000D01*
X96376115Y-86013489D01*
X96700971Y-86499670D01*
X97187152Y-86824526D01*
X97636680Y-86913943D01*
X97532041Y-87440000D01*
X97636680Y-87966057D01*
X97187152Y-88055474D01*
X96700971Y-88380330D01*
X96376115Y-88866511D01*
X96262041Y-89440000D01*
X96376115Y-90013489D01*
X96700971Y-90499670D01*
X97187152Y-90824526D01*
X97636680Y-90913943D01*
X97532041Y-91440000D01*
X97646115Y-92013489D01*
X97970971Y-92499670D01*
X98457152Y-92824526D01*
X99030641Y-92938600D01*
X99089359Y-92938600D01*
X99662848Y-92824526D01*
X100149029Y-92499670D01*
X100330000Y-92228828D01*
X100510971Y-92499670D01*
X100997152Y-92824526D01*
X101570641Y-92938600D01*
X101629359Y-92938600D01*
X102202848Y-92824526D01*
X102689029Y-92499670D01*
X102870000Y-92228828D01*
X103050971Y-92499670D01*
X103537152Y-92824526D01*
X104110641Y-92938600D01*
X104169359Y-92938600D01*
X104742848Y-92824526D01*
X105229029Y-92499670D01*
X105410000Y-92228828D01*
X105590971Y-92499670D01*
X106077152Y-92824526D01*
X106650641Y-92938600D01*
X106709359Y-92938600D01*
X107282848Y-92824526D01*
X107769029Y-92499670D01*
X107950000Y-92228828D01*
X108130971Y-92499670D01*
X108617152Y-92824526D01*
X109190641Y-92938600D01*
X109249359Y-92938600D01*
X109822848Y-92824526D01*
X110309029Y-92499670D01*
X110490000Y-92228828D01*
X110670971Y-92499670D01*
X111157152Y-92824526D01*
X111730641Y-92938600D01*
X111789359Y-92938600D01*
X112362848Y-92824526D01*
X112849029Y-92499670D01*
X113030000Y-92228828D01*
X113210971Y-92499670D01*
X113697152Y-92824526D01*
X114270641Y-92938600D01*
X114329359Y-92938600D01*
X114902848Y-92824526D01*
X115389029Y-92499670D01*
X115570000Y-92228828D01*
X115750971Y-92499670D01*
X116237152Y-92824526D01*
X116810641Y-92938600D01*
X116869359Y-92938600D01*
X117442848Y-92824526D01*
X117929029Y-92499670D01*
X118110000Y-92228828D01*
X118290971Y-92499670D01*
X118777152Y-92824526D01*
X119350641Y-92938600D01*
X119409359Y-92938600D01*
X119982848Y-92824526D01*
X120469029Y-92499670D01*
X120650000Y-92228828D01*
X120830971Y-92499670D01*
X121317152Y-92824526D01*
X121890641Y-92938600D01*
X121949359Y-92938600D01*
X122522848Y-92824526D01*
X123009029Y-92499670D01*
X123190000Y-92228828D01*
X123370971Y-92499670D01*
X123857152Y-92824526D01*
X124430641Y-92938600D01*
X124489359Y-92938600D01*
X125062848Y-92824526D01*
X125549029Y-92499670D01*
X125730000Y-92228828D01*
X125910971Y-92499670D01*
X126397152Y-92824526D01*
X126970641Y-92938600D01*
X127029359Y-92938600D01*
X127602848Y-92824526D01*
X128089029Y-92499670D01*
X128270000Y-92228828D01*
X128450971Y-92499670D01*
X128782184Y-92720980D01*
X128837852Y-93000839D01*
X129002599Y-93247401D01*
X130272599Y-94517401D01*
X130519160Y-94682148D01*
X130810000Y-94740000D01*
X154940000Y-94740000D01*
X155230839Y-94682148D01*
X155477401Y-94517401D01*
X156349680Y-93645122D01*
X156395167Y-93645162D01*
X156738943Y-93503117D01*
X157002192Y-93240327D01*
X157144838Y-92896799D01*
X157145162Y-92524833D01*
X157003117Y-92181057D01*
X156740327Y-91917808D01*
X156396799Y-91775162D01*
X156024833Y-91774838D01*
X155681057Y-91916883D01*
X155417808Y-92179673D01*
X155275162Y-92523201D01*
X155275121Y-92570077D01*
X154625198Y-93220000D01*
X131124802Y-93220000D01*
X130494417Y-92589615D01*
X130629029Y-92499670D01*
X130810000Y-92228828D01*
X130990971Y-92499670D01*
X131477152Y-92824526D01*
X132050641Y-92938600D01*
X132109359Y-92938600D01*
X132682848Y-92824526D01*
X133169029Y-92499670D01*
X133350000Y-92228828D01*
X133530971Y-92499670D01*
X134017152Y-92824526D01*
X134590641Y-92938600D01*
X134649359Y-92938600D01*
X135222848Y-92824526D01*
X135709029Y-92499670D01*
X135890000Y-92228828D01*
X136070971Y-92499670D01*
X136557152Y-92824526D01*
X137130641Y-92938600D01*
X137189359Y-92938600D01*
X137762848Y-92824526D01*
X138249029Y-92499670D01*
X138430000Y-92228828D01*
X138610971Y-92499670D01*
X139097152Y-92824526D01*
X139670641Y-92938600D01*
X139729359Y-92938600D01*
X140302848Y-92824526D01*
X140789029Y-92499670D01*
X140969992Y-92228839D01*
X141351510Y-92646821D01*
X141880973Y-92894968D01*
X142113000Y-92774469D01*
X142113000Y-91567000D01*
X142367000Y-91567000D01*
X142367000Y-92774469D01*
X142599027Y-92894968D01*
X143128490Y-92646821D01*
X143510000Y-92228848D01*
X143891510Y-92646821D01*
X144420973Y-92894968D01*
X144653000Y-92774469D01*
X144653000Y-91567000D01*
X144907000Y-91567000D01*
X144907000Y-92774469D01*
X145139027Y-92894968D01*
X145668490Y-92646821D01*
X145835471Y-92463881D01*
X145918073Y-92663299D01*
X146096702Y-92841927D01*
X146330091Y-92938600D01*
X147034250Y-92938600D01*
X147193000Y-92779850D01*
X147193000Y-91567000D01*
X147447000Y-91567000D01*
X147447000Y-92779850D01*
X147605750Y-92938600D01*
X148309909Y-92938600D01*
X148543298Y-92841927D01*
X148721927Y-92663299D01*
X148818600Y-92429910D01*
X148818600Y-91725750D01*
X148659850Y-91567000D01*
X147447000Y-91567000D01*
X147193000Y-91567000D01*
X144907000Y-91567000D01*
X144653000Y-91567000D01*
X142367000Y-91567000D01*
X142113000Y-91567000D01*
X142093000Y-91567000D01*
X142093000Y-91313000D01*
X142113000Y-91313000D01*
X142113000Y-91293000D01*
X142367000Y-91293000D01*
X142367000Y-91313000D01*
X144653000Y-91313000D01*
X144653000Y-91293000D01*
X144907000Y-91293000D01*
X144907000Y-91313000D01*
X147193000Y-91313000D01*
X147193000Y-91293000D01*
X147447000Y-91293000D01*
X147447000Y-91313000D01*
X148659850Y-91313000D01*
X148818600Y-91154250D01*
X148818600Y-90450090D01*
X148721927Y-90216701D01*
X148543298Y-90038073D01*
X148309909Y-89941400D01*
X147605750Y-89941400D01*
X147447002Y-90100148D01*
X147447002Y-89941400D01*
X147445988Y-89941400D01*
X147504958Y-89799026D01*
X147383817Y-89567000D01*
X146177000Y-89567000D01*
X146177000Y-89587000D01*
X145923000Y-89587000D01*
X145923000Y-89567000D01*
X143637000Y-89567000D01*
X143637000Y-89587000D01*
X143383000Y-89587000D01*
X143383000Y-89567000D01*
X141097000Y-89567000D01*
X141097000Y-89587000D01*
X140843000Y-89587000D01*
X140843000Y-89567000D01*
X140823000Y-89567000D01*
X140823000Y-89313000D01*
X140843000Y-89313000D01*
X140843000Y-89293000D01*
X141097000Y-89293000D01*
X141097000Y-89313000D01*
X143383000Y-89313000D01*
X143383000Y-89293000D01*
X143637000Y-89293000D01*
X143637000Y-89313000D01*
X145923000Y-89313000D01*
X145923000Y-89293000D01*
X146177000Y-89293000D01*
X146177000Y-89313000D01*
X147383817Y-89313000D01*
X147504958Y-89080974D01*
X147438633Y-88920842D01*
X147922848Y-88824526D01*
X148409029Y-88499670D01*
X148733885Y-88013489D01*
X148847959Y-87440000D01*
X148733885Y-86866511D01*
X148709490Y-86830000D01*
X162382560Y-86830000D01*
X162382560Y-88430000D01*
X162426838Y-88665317D01*
X162565910Y-88881441D01*
X162778110Y-89026431D01*
X163030000Y-89077440D01*
X164630000Y-89077440D01*
X164865317Y-89033162D01*
X165081441Y-88894090D01*
X165226431Y-88681890D01*
X165277440Y-88430000D01*
X165277440Y-87914187D01*
X170014752Y-87914187D01*
X170232757Y-88441800D01*
X170636077Y-88845824D01*
X171163309Y-89064750D01*
X171734187Y-89065248D01*
X172261800Y-88847243D01*
X172665824Y-88443923D01*
X172884750Y-87916691D01*
X172885248Y-87345813D01*
X172667243Y-86818200D01*
X172263923Y-86414176D01*
X171736691Y-86195250D01*
X171165813Y-86194752D01*
X170638200Y-86412757D01*
X170234176Y-86816077D01*
X170015250Y-87343309D01*
X170014752Y-87914187D01*
X165277440Y-87914187D01*
X165277440Y-86830000D01*
X165233162Y-86594683D01*
X165094090Y-86378559D01*
X164881890Y-86233569D01*
X164630000Y-86182560D01*
X163030000Y-86182560D01*
X162794683Y-86226838D01*
X162578559Y-86365910D01*
X162433569Y-86578110D01*
X162382560Y-86830000D01*
X148709490Y-86830000D01*
X148409029Y-86380330D01*
X147922848Y-86055474D01*
X147473320Y-85966057D01*
X147577959Y-85440000D01*
X147463885Y-84866511D01*
X147139029Y-84380330D01*
X146652848Y-84055474D01*
X146079359Y-83941400D01*
X146020641Y-83941400D01*
X145447152Y-84055474D01*
X144960971Y-84380330D01*
X144780000Y-84651172D01*
X144599029Y-84380330D01*
X144112848Y-84055474D01*
X143539359Y-83941400D01*
X143480641Y-83941400D01*
X142907152Y-84055474D01*
X142420971Y-84380330D01*
X142240000Y-84651172D01*
X142059029Y-84380330D01*
X141572848Y-84055474D01*
X140999359Y-83941400D01*
X140940641Y-83941400D01*
X140367152Y-84055474D01*
X139880971Y-84380330D01*
X139700000Y-84651172D01*
X139519029Y-84380330D01*
X139032848Y-84055474D01*
X138459359Y-83941400D01*
X138400641Y-83941400D01*
X137827152Y-84055474D01*
X137340971Y-84380330D01*
X137160000Y-84651172D01*
X136979029Y-84380330D01*
X136492848Y-84055474D01*
X135919359Y-83941400D01*
X135860641Y-83941400D01*
X135287152Y-84055474D01*
X134800971Y-84380330D01*
X134620000Y-84651172D01*
X134439029Y-84380330D01*
X133952848Y-84055474D01*
X133379359Y-83941400D01*
X133320641Y-83941400D01*
X132747152Y-84055474D01*
X132260971Y-84380330D01*
X132080000Y-84651172D01*
X131899029Y-84380330D01*
X131412848Y-84055474D01*
X130839359Y-83941400D01*
X130780641Y-83941400D01*
X130207152Y-84055474D01*
X129720971Y-84380330D01*
X129540000Y-84651172D01*
X129359029Y-84380330D01*
X128872848Y-84055474D01*
X128299359Y-83941400D01*
X128240641Y-83941400D01*
X127667152Y-84055474D01*
X127180971Y-84380330D01*
X127000000Y-84651172D01*
X126819029Y-84380330D01*
X126332848Y-84055474D01*
X125759359Y-83941400D01*
X125700641Y-83941400D01*
X125127152Y-84055474D01*
X124640971Y-84380330D01*
X124460000Y-84651172D01*
X124279029Y-84380330D01*
X123792848Y-84055474D01*
X123219359Y-83941400D01*
X123160641Y-83941400D01*
X122587152Y-84055474D01*
X122100971Y-84380330D01*
X121920000Y-84651172D01*
X121739029Y-84380330D01*
X121252848Y-84055474D01*
X120679359Y-83941400D01*
X120620641Y-83941400D01*
X120047152Y-84055474D01*
X119560971Y-84380330D01*
X119380000Y-84651172D01*
X119199029Y-84380330D01*
X118712848Y-84055474D01*
X118139359Y-83941400D01*
X118080641Y-83941400D01*
X117507152Y-84055474D01*
X117020971Y-84380330D01*
X116840000Y-84651172D01*
X116659029Y-84380330D01*
X116172848Y-84055474D01*
X115599359Y-83941400D01*
X115540641Y-83941400D01*
X114967152Y-84055474D01*
X114480971Y-84380330D01*
X114300000Y-84651172D01*
X114119029Y-84380330D01*
X113632848Y-84055474D01*
X113059359Y-83941400D01*
X113000641Y-83941400D01*
X112427152Y-84055474D01*
X111940971Y-84380330D01*
X111760000Y-84651172D01*
X111579029Y-84380330D01*
X111092848Y-84055474D01*
X110519359Y-83941400D01*
X110460641Y-83941400D01*
X109887152Y-84055474D01*
X109400971Y-84380330D01*
X109220000Y-84651172D01*
X109039029Y-84380330D01*
X108552848Y-84055474D01*
X107979359Y-83941400D01*
X107920641Y-83941400D01*
X107347152Y-84055474D01*
X106860971Y-84380330D01*
X106680000Y-84651172D01*
X106499029Y-84380330D01*
X106012848Y-84055474D01*
X105439359Y-83941400D01*
X105380641Y-83941400D01*
X104807152Y-84055474D01*
X104320971Y-84380330D01*
X104140000Y-84651172D01*
X103959029Y-84380330D01*
X103472848Y-84055474D01*
X102899359Y-83941400D01*
X102840641Y-83941400D01*
X102267152Y-84055474D01*
X101780971Y-84380330D01*
X101600000Y-84651172D01*
X101419029Y-84380330D01*
X100932848Y-84055474D01*
X100359359Y-83941400D01*
X100300641Y-83941400D01*
X99727152Y-84055474D01*
X99240971Y-84380330D01*
X99060000Y-84651172D01*
X98879029Y-84380330D01*
X98392848Y-84055474D01*
X97819359Y-83941400D01*
X97760641Y-83941400D01*
X97187152Y-84055474D01*
X96700971Y-84380330D01*
X96376115Y-84866511D01*
X96262041Y-85440000D01*
X89027000Y-85440000D01*
X89027000Y-82735167D01*
X151464838Y-82735167D01*
X151606883Y-83078943D01*
X151869673Y-83342192D01*
X152213201Y-83484838D01*
X152260077Y-83484879D01*
X153132599Y-84357401D01*
X153379160Y-84522148D01*
X153670000Y-84580000D01*
X180340000Y-84580000D01*
X180630839Y-84522148D01*
X180877401Y-84357401D01*
X181749680Y-83485122D01*
X181795167Y-83485162D01*
X182138943Y-83343117D01*
X182402192Y-83080327D01*
X182544838Y-82736799D01*
X182545162Y-82364833D01*
X182403117Y-82021057D01*
X182140327Y-81757808D01*
X181796799Y-81615162D01*
X181424833Y-81614838D01*
X181081057Y-81756883D01*
X180817808Y-82019673D01*
X180675162Y-82363201D01*
X180675121Y-82410077D01*
X180025198Y-83060000D01*
X153984802Y-83060000D01*
X153335122Y-82410320D01*
X153335162Y-82364833D01*
X153193117Y-82021057D01*
X152930327Y-81757808D01*
X152586799Y-81615162D01*
X152214833Y-81614838D01*
X151871057Y-81756883D01*
X151607808Y-82019673D01*
X151465162Y-82363201D01*
X151464838Y-82735167D01*
X89027000Y-82735167D01*
X89027000Y-79981887D01*
X162395000Y-79981887D01*
X162395000Y-80038113D01*
X162504233Y-80587264D01*
X162815302Y-81052811D01*
X163280849Y-81363880D01*
X163830000Y-81473113D01*
X164379151Y-81363880D01*
X164844698Y-81052811D01*
X165155767Y-80587264D01*
X165201163Y-80359041D01*
X170058086Y-80359041D01*
X170297611Y-80865134D01*
X170712577Y-81241041D01*
X171100961Y-81401904D01*
X171323000Y-81279915D01*
X171323000Y-80137000D01*
X171577000Y-80137000D01*
X171577000Y-81279915D01*
X171799039Y-81401904D01*
X172187423Y-81241041D01*
X172602389Y-80865134D01*
X172841914Y-80359041D01*
X172720629Y-80137000D01*
X171577000Y-80137000D01*
X171323000Y-80137000D01*
X170179371Y-80137000D01*
X170058086Y-80359041D01*
X165201163Y-80359041D01*
X165265000Y-80038113D01*
X165265000Y-79981887D01*
X165201164Y-79660959D01*
X170058086Y-79660959D01*
X170179371Y-79883000D01*
X171323000Y-79883000D01*
X171323000Y-78740085D01*
X171577000Y-78740085D01*
X171577000Y-79883000D01*
X172720629Y-79883000D01*
X172841914Y-79660959D01*
X172602389Y-79154866D01*
X172187423Y-78778959D01*
X171799039Y-78618096D01*
X171577000Y-78740085D01*
X171323000Y-78740085D01*
X171100961Y-78618096D01*
X170712577Y-78778959D01*
X170297611Y-79154866D01*
X170058086Y-79660959D01*
X165201164Y-79660959D01*
X165155767Y-79432736D01*
X164844698Y-78967189D01*
X164379151Y-78656120D01*
X163830000Y-78546887D01*
X163280849Y-78656120D01*
X162815302Y-78967189D01*
X162504233Y-79432736D01*
X162395000Y-79981887D01*
X89027000Y-79981887D01*
X89027000Y-71272400D01*
X158254960Y-71272400D01*
X158254960Y-73507600D01*
X158299238Y-73742917D01*
X158438310Y-73959041D01*
X158650510Y-74104031D01*
X158902400Y-74155040D01*
X161137600Y-74155040D01*
X161372917Y-74110762D01*
X161589041Y-73971690D01*
X161734031Y-73759490D01*
X161785040Y-73507600D01*
X161785040Y-72675750D01*
X167157400Y-72675750D01*
X167157400Y-73633910D01*
X167254073Y-73867299D01*
X167432702Y-74045927D01*
X167666091Y-74142600D01*
X168624250Y-74142600D01*
X168783000Y-73983850D01*
X168783000Y-72517000D01*
X169037000Y-72517000D01*
X169037000Y-73983850D01*
X169195750Y-74142600D01*
X170153909Y-74142600D01*
X170387298Y-74045927D01*
X170565927Y-73867299D01*
X170662600Y-73633910D01*
X170662600Y-72675750D01*
X170503850Y-72517000D01*
X169037000Y-72517000D01*
X168783000Y-72517000D01*
X167316150Y-72517000D01*
X167157400Y-72675750D01*
X161785040Y-72675750D01*
X161785040Y-71272400D01*
X161761274Y-71146090D01*
X167157400Y-71146090D01*
X167157400Y-72104250D01*
X167316150Y-72263000D01*
X168783000Y-72263000D01*
X168783000Y-70796150D01*
X169037000Y-70796150D01*
X169037000Y-72263000D01*
X170503850Y-72263000D01*
X170662600Y-72104250D01*
X170662600Y-71146090D01*
X170565927Y-70912701D01*
X170387298Y-70734073D01*
X170153909Y-70637400D01*
X169195750Y-70637400D01*
X169037000Y-70796150D01*
X168783000Y-70796150D01*
X168624250Y-70637400D01*
X167666091Y-70637400D01*
X167432702Y-70734073D01*
X167254073Y-70912701D01*
X167157400Y-71146090D01*
X161761274Y-71146090D01*
X161740762Y-71037083D01*
X161601690Y-70820959D01*
X161389490Y-70675969D01*
X161137600Y-70624960D01*
X158902400Y-70624960D01*
X158667083Y-70669238D01*
X158450959Y-70808310D01*
X158305969Y-71020510D01*
X158254960Y-71272400D01*
X89027000Y-71272400D01*
X89027000Y-68765167D01*
X156544838Y-68765167D01*
X156686883Y-69108943D01*
X156949673Y-69372192D01*
X157293201Y-69514838D01*
X157665167Y-69515162D01*
X158008943Y-69373117D01*
X158042118Y-69340000D01*
X179963070Y-69340000D01*
X179963070Y-69579490D01*
X180007348Y-69814807D01*
X180146420Y-70030931D01*
X180312473Y-70144390D01*
X180168407Y-70360000D01*
X175822463Y-70360000D01*
X175790327Y-70327808D01*
X175446799Y-70185162D01*
X175074833Y-70184838D01*
X174731057Y-70326883D01*
X174467808Y-70589673D01*
X174325162Y-70933201D01*
X174324838Y-71305167D01*
X174466883Y-71648943D01*
X174729673Y-71912192D01*
X175073201Y-72054838D01*
X175445167Y-72055162D01*
X175788943Y-71913117D01*
X175822118Y-71880000D01*
X180168407Y-71880000D01*
X180454241Y-72307781D01*
X180577290Y-72390000D01*
X180454241Y-72472219D01*
X180099928Y-73002486D01*
X179975510Y-73627978D01*
X179975510Y-73692022D01*
X180099928Y-74317514D01*
X180454241Y-74847781D01*
X180984508Y-75202094D01*
X181610000Y-75326512D01*
X182235492Y-75202094D01*
X182765759Y-74847781D01*
X183120072Y-74317514D01*
X183244490Y-73692022D01*
X183244490Y-73627978D01*
X183120072Y-73002486D01*
X182765759Y-72472219D01*
X182642710Y-72390000D01*
X182765759Y-72307781D01*
X183120072Y-71777514D01*
X183244490Y-71152022D01*
X183244490Y-71087978D01*
X183120072Y-70462486D01*
X182906547Y-70142923D01*
X183060931Y-70043580D01*
X183205921Y-69831380D01*
X183256930Y-69579490D01*
X183256930Y-67580510D01*
X183212652Y-67345193D01*
X183073580Y-67129069D01*
X182861380Y-66984079D01*
X182609490Y-66933070D01*
X180610510Y-66933070D01*
X180375193Y-66977348D01*
X180159069Y-67116420D01*
X180014079Y-67328620D01*
X179963070Y-67580510D01*
X179963070Y-67820000D01*
X158042463Y-67820000D01*
X158010327Y-67787808D01*
X157666799Y-67645162D01*
X157294833Y-67644838D01*
X156951057Y-67786883D01*
X156687808Y-68049673D01*
X156545162Y-68393201D01*
X156544838Y-68765167D01*
X89027000Y-68765167D01*
X89027000Y-66225167D01*
X155274838Y-66225167D01*
X155416883Y-66568943D01*
X155679673Y-66832192D01*
X156023201Y-66974838D01*
X156395167Y-66975162D01*
X156738943Y-66833117D01*
X156772118Y-66800000D01*
X173990000Y-66800000D01*
X174280839Y-66742148D01*
X174527401Y-66577401D01*
X175399680Y-65705122D01*
X175445167Y-65705162D01*
X175788943Y-65563117D01*
X176052192Y-65300327D01*
X176194838Y-64956799D01*
X176195162Y-64584833D01*
X176053117Y-64241057D01*
X175790327Y-63977808D01*
X175446799Y-63835162D01*
X175074833Y-63834838D01*
X174819570Y-63940310D01*
X174924838Y-63686799D01*
X174925162Y-63314833D01*
X174783117Y-62971057D01*
X174520327Y-62707808D01*
X174176799Y-62565162D01*
X174129923Y-62565121D01*
X173257401Y-61692599D01*
X173010839Y-61527852D01*
X172720000Y-61470000D01*
X168202463Y-61470000D01*
X168170327Y-61437808D01*
X167826799Y-61295162D01*
X167454833Y-61294838D01*
X167111057Y-61436883D01*
X166847808Y-61699673D01*
X166705162Y-62043201D01*
X166704838Y-62415167D01*
X166846883Y-62758943D01*
X167109673Y-63022192D01*
X167453201Y-63164838D01*
X167825167Y-63165162D01*
X168168943Y-63023117D01*
X168202118Y-62990000D01*
X172405198Y-62990000D01*
X173054878Y-63639680D01*
X173054838Y-63685167D01*
X173196883Y-64028943D01*
X173459673Y-64292192D01*
X173803201Y-64434838D01*
X174175167Y-64435162D01*
X174430430Y-64329690D01*
X174325162Y-64583201D01*
X174325121Y-64630077D01*
X173675198Y-65280000D01*
X156772463Y-65280000D01*
X156740327Y-65247808D01*
X156396799Y-65105162D01*
X156024833Y-65104838D01*
X155681057Y-65246883D01*
X155417808Y-65509673D01*
X155275162Y-65853201D01*
X155274838Y-66225167D01*
X89027000Y-66225167D01*
X89027000Y-60927978D01*
X179975510Y-60927978D01*
X179975510Y-60992022D01*
X180099928Y-61617514D01*
X180454241Y-62147781D01*
X180984508Y-62502094D01*
X181610000Y-62626512D01*
X182235492Y-62502094D01*
X182765759Y-62147781D01*
X183120072Y-61617514D01*
X183244490Y-60992022D01*
X183244490Y-60927978D01*
X183120072Y-60302486D01*
X182765759Y-59772219D01*
X182616700Y-59672621D01*
X182933068Y-59379726D01*
X183199627Y-58800355D01*
X183080807Y-58547000D01*
X181737000Y-58547000D01*
X181737000Y-58567000D01*
X181483000Y-58567000D01*
X181483000Y-58547000D01*
X180139193Y-58547000D01*
X180020373Y-58800355D01*
X180286932Y-59379726D01*
X180603300Y-59672621D01*
X180454241Y-59772219D01*
X180099928Y-60302486D01*
X179975510Y-60927978D01*
X89027000Y-60927978D01*
X89027000Y-56032400D01*
X158254960Y-56032400D01*
X158254960Y-58267600D01*
X158299238Y-58502917D01*
X158438310Y-58719041D01*
X158650510Y-58864031D01*
X158902400Y-58915040D01*
X161137600Y-58915040D01*
X161372917Y-58870762D01*
X161589041Y-58731690D01*
X161734031Y-58519490D01*
X161785040Y-58267600D01*
X161785040Y-56032400D01*
X167144960Y-56032400D01*
X167144960Y-58267600D01*
X167189238Y-58502917D01*
X167328310Y-58719041D01*
X167540510Y-58864031D01*
X167792400Y-58915040D01*
X170027600Y-58915040D01*
X170262917Y-58870762D01*
X170479041Y-58731690D01*
X170624031Y-58519490D01*
X170675040Y-58267600D01*
X170675040Y-56032400D01*
X170630762Y-55797083D01*
X170491690Y-55580959D01*
X170279490Y-55435969D01*
X170027600Y-55384960D01*
X167792400Y-55384960D01*
X167557083Y-55429238D01*
X167340959Y-55568310D01*
X167195969Y-55780510D01*
X167144960Y-56032400D01*
X161785040Y-56032400D01*
X161740762Y-55797083D01*
X161601690Y-55580959D01*
X161389490Y-55435969D01*
X161137600Y-55384960D01*
X158902400Y-55384960D01*
X158667083Y-55429238D01*
X158450959Y-55568310D01*
X158305969Y-55780510D01*
X158254960Y-56032400D01*
X89027000Y-56032400D01*
X89027000Y-54880510D01*
X179963070Y-54880510D01*
X179963070Y-56879490D01*
X180007348Y-57114807D01*
X180146420Y-57330931D01*
X180307649Y-57441094D01*
X180286932Y-57460274D01*
X180020373Y-58039645D01*
X180139193Y-58293000D01*
X181483000Y-58293000D01*
X181483000Y-58273000D01*
X181737000Y-58273000D01*
X181737000Y-58293000D01*
X183080807Y-58293000D01*
X183199627Y-58039645D01*
X182933068Y-57460274D01*
X182911137Y-57439970D01*
X183060931Y-57343580D01*
X183205921Y-57131380D01*
X183256930Y-56879490D01*
X183256930Y-54880510D01*
X183212652Y-54645193D01*
X183073580Y-54429069D01*
X182861380Y-54284079D01*
X182609490Y-54233070D01*
X180610510Y-54233070D01*
X180375193Y-54277348D01*
X180159069Y-54416420D01*
X180014079Y-54628620D01*
X179963070Y-54880510D01*
X89027000Y-54880510D01*
X89027000Y-52197000D01*
X185293000Y-52197000D01*
X185293000Y-148463000D01*
X185293000Y-148463000D01*
G37*
X185293000Y-148463000D02*
X89027000Y-148463000D01*
X89027000Y-138430000D01*
X164368703Y-138430000D01*
X164482777Y-139003489D01*
X164807633Y-139489670D01*
X165293814Y-139814526D01*
X165867303Y-139928600D01*
X167272697Y-139928600D01*
X167846186Y-139814526D01*
X168332367Y-139489670D01*
X168657223Y-139003489D01*
X168771297Y-138430000D01*
X176868703Y-138430000D01*
X176982777Y-139003489D01*
X177307633Y-139489670D01*
X177793814Y-139814526D01*
X178367303Y-139928600D01*
X179772697Y-139928600D01*
X180346186Y-139814526D01*
X180832367Y-139489670D01*
X181157223Y-139003489D01*
X181271297Y-138430000D01*
X181157223Y-137856511D01*
X180832367Y-137370330D01*
X180346186Y-137045474D01*
X179772697Y-136931400D01*
X178367303Y-136931400D01*
X177793814Y-137045474D01*
X177307633Y-137370330D01*
X176982777Y-137856511D01*
X176868703Y-138430000D01*
X168771297Y-138430000D01*
X168657223Y-137856511D01*
X168332367Y-137370330D01*
X167846186Y-137045474D01*
X167272697Y-136931400D01*
X165867303Y-136931400D01*
X165293814Y-137045474D01*
X164807633Y-137370330D01*
X164482777Y-137856511D01*
X164368703Y-138430000D01*
X89027000Y-138430000D01*
X89027000Y-133430000D01*
X164368703Y-133430000D01*
X164482777Y-134003489D01*
X164807633Y-134489670D01*
X165293814Y-134814526D01*
X165867303Y-134928600D01*
X167272697Y-134928600D01*
X167846186Y-134814526D01*
X168332367Y-134489670D01*
X168657223Y-134003489D01*
X168771297Y-133430000D01*
X176868703Y-133430000D01*
X176982777Y-134003489D01*
X177307633Y-134489670D01*
X177793814Y-134814526D01*
X178367303Y-134928600D01*
X179772697Y-134928600D01*
X180346186Y-134814526D01*
X180832367Y-134489670D01*
X181157223Y-134003489D01*
X181271297Y-133430000D01*
X181157223Y-132856511D01*
X180832367Y-132370330D01*
X180346186Y-132045474D01*
X179772697Y-131931400D01*
X178367303Y-131931400D01*
X177793814Y-132045474D01*
X177307633Y-132370330D01*
X176982777Y-132856511D01*
X176868703Y-133430000D01*
X168771297Y-133430000D01*
X168657223Y-132856511D01*
X168332367Y-132370330D01*
X167846186Y-132045474D01*
X167272697Y-131931400D01*
X165867303Y-131931400D01*
X165293814Y-132045474D01*
X164807633Y-132370330D01*
X164482777Y-132856511D01*
X164368703Y-133430000D01*
X89027000Y-133430000D01*
X89027000Y-119565167D01*
X155274838Y-119565167D01*
X155416883Y-119908943D01*
X155679673Y-120172192D01*
X156023201Y-120314838D01*
X156070077Y-120314879D01*
X156942599Y-121187401D01*
X157189160Y-121352148D01*
X157480000Y-121410000D01*
X160086333Y-121410000D01*
X160275302Y-121692811D01*
X160740849Y-122003880D01*
X161290000Y-122113113D01*
X161839151Y-122003880D01*
X162304698Y-121692811D01*
X162615767Y-121227264D01*
X162674063Y-120934187D01*
X166204752Y-120934187D01*
X166422757Y-121461800D01*
X166826077Y-121865824D01*
X167353309Y-122084750D01*
X167924187Y-122085248D01*
X168451800Y-121867243D01*
X168855824Y-121463923D01*
X169074750Y-120936691D01*
X169074752Y-120934187D01*
X172554752Y-120934187D01*
X172772757Y-121461800D01*
X173176077Y-121865824D01*
X173703309Y-122084750D01*
X174274187Y-122085248D01*
X174801800Y-121867243D01*
X175205824Y-121463923D01*
X175424750Y-120936691D01*
X175425248Y-120365813D01*
X175207243Y-119838200D01*
X174953673Y-119584187D01*
X178904752Y-119584187D01*
X179122757Y-120111800D01*
X179526077Y-120515824D01*
X180053309Y-120734750D01*
X180624187Y-120735248D01*
X181151800Y-120517243D01*
X181555824Y-120113923D01*
X181774750Y-119586691D01*
X181775248Y-119015813D01*
X181557243Y-118488200D01*
X181153923Y-118084176D01*
X180626691Y-117865250D01*
X180055813Y-117864752D01*
X179528200Y-118082757D01*
X179124176Y-118486077D01*
X178905250Y-119013309D01*
X178904752Y-119584187D01*
X174953673Y-119584187D01*
X174803923Y-119434176D01*
X174276691Y-119215250D01*
X173705813Y-119214752D01*
X173178200Y-119432757D01*
X172774176Y-119836077D01*
X172555250Y-120363309D01*
X172554752Y-120934187D01*
X169074752Y-120934187D01*
X169075248Y-120365813D01*
X168857243Y-119838200D01*
X168453923Y-119434176D01*
X167926691Y-119215250D01*
X167355813Y-119214752D01*
X166828200Y-119432757D01*
X166424176Y-119836077D01*
X166205250Y-120363309D01*
X166204752Y-120934187D01*
X162674063Y-120934187D01*
X162725000Y-120678113D01*
X162725000Y-120621887D01*
X162615767Y-120072736D01*
X162304698Y-119607189D01*
X161839151Y-119296120D01*
X161290000Y-119186887D01*
X160740849Y-119296120D01*
X160275302Y-119607189D01*
X160086333Y-119890000D01*
X157794802Y-119890000D01*
X157145122Y-119240320D01*
X157145162Y-119194833D01*
X157003117Y-118851057D01*
X156740327Y-118587808D01*
X156396799Y-118445162D01*
X156024833Y-118444838D01*
X155681057Y-118586883D01*
X155417808Y-118849673D01*
X155275162Y-119193201D01*
X155274838Y-119565167D01*
X89027000Y-119565167D01*
X89027000Y-113314187D01*
X159854752Y-113314187D01*
X160072757Y-113841800D01*
X160476077Y-114245824D01*
X161003309Y-114464750D01*
X161574187Y-114465248D01*
X162101800Y-114247243D01*
X162505824Y-113843923D01*
X162698860Y-113379041D01*
X166248086Y-113379041D01*
X166487611Y-113885134D01*
X166902577Y-114261041D01*
X167290961Y-114421904D01*
X167513000Y-114299915D01*
X167513000Y-113157000D01*
X167767000Y-113157000D01*
X167767000Y-114299915D01*
X167989039Y-114421904D01*
X168377423Y-114261041D01*
X168792389Y-113885134D01*
X169031914Y-113379041D01*
X168910629Y-113157000D01*
X167767000Y-113157000D01*
X167513000Y-113157000D01*
X166369371Y-113157000D01*
X166248086Y-113379041D01*
X162698860Y-113379041D01*
X162724750Y-113316691D01*
X162725248Y-112745813D01*
X162698451Y-112680959D01*
X166248086Y-112680959D01*
X166369371Y-112903000D01*
X167513000Y-112903000D01*
X167513000Y-111760085D01*
X167767000Y-111760085D01*
X167767000Y-112903000D01*
X168910629Y-112903000D01*
X169031914Y-112680959D01*
X168792389Y-112174866D01*
X168377423Y-111798959D01*
X167989039Y-111638096D01*
X167767000Y-111760085D01*
X167513000Y-111760085D01*
X167290961Y-111638096D01*
X166902577Y-111798959D01*
X166487611Y-112174866D01*
X166248086Y-112680959D01*
X162698451Y-112680959D01*
X162507243Y-112218200D01*
X162103923Y-111814176D01*
X161576691Y-111595250D01*
X161005813Y-111594752D01*
X160478200Y-111812757D01*
X160074176Y-112216077D01*
X159855250Y-112743309D01*
X159854752Y-113314187D01*
X89027000Y-113314187D01*
X89027000Y-105595167D01*
X113364838Y-105595167D01*
X113506883Y-105938943D01*
X113769673Y-106202192D01*
X114113201Y-106344838D01*
X114160077Y-106344879D01*
X115032599Y-107217401D01*
X115279160Y-107382148D01*
X115570000Y-107440000D01*
X171135198Y-107440000D01*
X173230000Y-109534802D01*
X173230000Y-111817005D01*
X172975302Y-111987189D01*
X172664233Y-112452736D01*
X172555000Y-113001887D01*
X172555000Y-113058113D01*
X172664233Y-113607264D01*
X172975302Y-114072811D01*
X173440849Y-114383880D01*
X173990000Y-114493113D01*
X174539151Y-114383880D01*
X175004698Y-114072811D01*
X175193667Y-113790000D01*
X177485198Y-113790000D01*
X178532599Y-114837401D01*
X178779160Y-115002148D01*
X179070000Y-115060000D01*
X179101354Y-115060000D01*
X179122757Y-115111800D01*
X179526077Y-115515824D01*
X180053309Y-115734750D01*
X180624187Y-115735248D01*
X181151800Y-115517243D01*
X181555824Y-115113923D01*
X181774750Y-114586691D01*
X181775248Y-114015813D01*
X181557243Y-113488200D01*
X181153923Y-113084176D01*
X180626691Y-112865250D01*
X180055813Y-112864752D01*
X179528200Y-113082757D01*
X179227618Y-113382816D01*
X178337401Y-112492599D01*
X178090839Y-112327852D01*
X177800000Y-112270000D01*
X175193667Y-112270000D01*
X175004698Y-111987189D01*
X174750000Y-111817005D01*
X174750000Y-109220000D01*
X174692148Y-108929161D01*
X174692148Y-108929160D01*
X174527401Y-108682599D01*
X172014802Y-106170000D01*
X175967537Y-106170000D01*
X175999673Y-106202192D01*
X176343201Y-106344838D01*
X176715167Y-106345162D01*
X177058943Y-106203117D01*
X177322192Y-105940327D01*
X177464838Y-105596799D01*
X177465162Y-105224833D01*
X177323117Y-104881057D01*
X177060327Y-104617808D01*
X176716799Y-104475162D01*
X176344833Y-104474838D01*
X176001057Y-104616883D01*
X175967882Y-104650000D01*
X117154802Y-104650000D01*
X116505122Y-104000320D01*
X116505162Y-103954833D01*
X116363117Y-103611057D01*
X116100327Y-103347808D01*
X115756799Y-103205162D01*
X115384833Y-103204838D01*
X115041057Y-103346883D01*
X114777808Y-103609673D01*
X114635162Y-103953201D01*
X114634838Y-104325167D01*
X114740310Y-104580430D01*
X114486799Y-104475162D01*
X114114833Y-104474838D01*
X113771057Y-104616883D01*
X113507808Y-104879673D01*
X113365162Y-105223201D01*
X113364838Y-105595167D01*
X89027000Y-105595167D01*
X89027000Y-102384661D01*
X117982758Y-102384661D01*
X118194990Y-102898303D01*
X118587630Y-103291629D01*
X119100900Y-103504757D01*
X119656661Y-103505242D01*
X120170303Y-103293010D01*
X120375457Y-103088213D01*
X121119392Y-103088213D01*
X121188857Y-103330397D01*
X121712302Y-103517144D01*
X122267368Y-103489362D01*
X122651143Y-103330397D01*
X122720608Y-103088213D01*
X121920000Y-102287605D01*
X121119392Y-103088213D01*
X120375457Y-103088213D01*
X120563629Y-102900370D01*
X120643395Y-102708273D01*
X120697603Y-102839143D01*
X120939787Y-102908608D01*
X121740395Y-102108000D01*
X122099605Y-102108000D01*
X122900213Y-102908608D01*
X123142397Y-102839143D01*
X123192509Y-102698682D01*
X123274990Y-102898303D01*
X123667630Y-103291629D01*
X124180900Y-103504757D01*
X124736661Y-103505242D01*
X125250303Y-103293010D01*
X125643629Y-102900370D01*
X125729949Y-102692488D01*
X125814990Y-102898303D01*
X126207630Y-103291629D01*
X126720900Y-103504757D01*
X127276661Y-103505242D01*
X127790303Y-103293010D01*
X128183629Y-102900370D01*
X128396757Y-102387100D01*
X128397242Y-101831339D01*
X128185010Y-101317697D01*
X127792370Y-100924371D01*
X127279100Y-100711243D01*
X126723339Y-100710758D01*
X126209697Y-100922990D01*
X125816371Y-101315630D01*
X125730051Y-101523512D01*
X125645010Y-101317697D01*
X125252370Y-100924371D01*
X124739100Y-100711243D01*
X124183339Y-100710758D01*
X123669697Y-100922990D01*
X123276371Y-101315630D01*
X123196605Y-101507727D01*
X123142397Y-101376857D01*
X122900213Y-101307392D01*
X122099605Y-102108000D01*
X121740395Y-102108000D01*
X120939787Y-101307392D01*
X120697603Y-101376857D01*
X120647491Y-101517318D01*
X120565010Y-101317697D01*
X120375432Y-101127787D01*
X121119392Y-101127787D01*
X121920000Y-101928395D01*
X122720608Y-101127787D01*
X122651143Y-100885603D01*
X122127698Y-100698856D01*
X121572632Y-100726638D01*
X121188857Y-100885603D01*
X121119392Y-101127787D01*
X120375432Y-101127787D01*
X120172370Y-100924371D01*
X119659100Y-100711243D01*
X119103339Y-100710758D01*
X118589697Y-100922990D01*
X118196371Y-101315630D01*
X117983243Y-101828900D01*
X117982758Y-102384661D01*
X89027000Y-102384661D01*
X89027000Y-99245167D01*
X112094838Y-99245167D01*
X112236883Y-99588943D01*
X112499673Y-99852192D01*
X112843201Y-99994838D01*
X113215167Y-99995162D01*
X113558943Y-99853117D01*
X113592118Y-99820000D01*
X155895198Y-99820000D01*
X158212599Y-102137401D01*
X158459160Y-102302148D01*
X158507414Y-102311746D01*
X158750000Y-102360000D01*
X167640000Y-102360000D01*
X167930839Y-102302148D01*
X168177401Y-102137401D01*
X169851498Y-100463304D01*
X170301800Y-100277243D01*
X170705824Y-99873923D01*
X170924750Y-99346691D01*
X170925248Y-98775813D01*
X170907090Y-98731865D01*
X175445420Y-98731865D01*
X175445420Y-99388135D01*
X175527979Y-99803186D01*
X175763086Y-100155049D01*
X176114949Y-100390156D01*
X176530000Y-100472715D01*
X176945051Y-100390156D01*
X177165000Y-100243191D01*
X177384949Y-100390156D01*
X177800000Y-100472715D01*
X178215051Y-100390156D01*
X178439238Y-100240359D01*
X178776065Y-100404981D01*
X178943000Y-100278068D01*
X178943000Y-99187000D01*
X179197000Y-99187000D01*
X179197000Y-100278068D01*
X179363935Y-100404981D01*
X179747111Y-100217706D01*
X180023420Y-99893373D01*
X180154580Y-99487990D01*
X180154580Y-99187000D01*
X179197000Y-99187000D01*
X178943000Y-99187000D01*
X178923000Y-99187000D01*
X178923000Y-98933000D01*
X178943000Y-98933000D01*
X178943000Y-97841932D01*
X179197000Y-97841932D01*
X179197000Y-98933000D01*
X180154580Y-98933000D01*
X180154580Y-98632010D01*
X180023420Y-98226627D01*
X179747111Y-97902294D01*
X179363935Y-97715019D01*
X179197000Y-97841932D01*
X178943000Y-97841932D01*
X178776065Y-97715019D01*
X178439238Y-97879641D01*
X178215051Y-97729844D01*
X177800000Y-97647285D01*
X177384949Y-97729844D01*
X177165000Y-97876809D01*
X176945051Y-97729844D01*
X176530000Y-97647285D01*
X176114949Y-97729844D01*
X175763086Y-97964951D01*
X175527979Y-98316814D01*
X175445420Y-98731865D01*
X170907090Y-98731865D01*
X170707243Y-98248200D01*
X170303923Y-97844176D01*
X169776691Y-97625250D01*
X169205813Y-97624752D01*
X168678200Y-97842757D01*
X168274176Y-98246077D01*
X168055250Y-98773309D01*
X168054752Y-99344187D01*
X168272757Y-99871800D01*
X168283069Y-99882129D01*
X167325198Y-100840000D01*
X159064802Y-100840000D01*
X157568989Y-99344187D01*
X159854752Y-99344187D01*
X160072757Y-99871800D01*
X160476077Y-100275824D01*
X161003309Y-100494750D01*
X161574187Y-100495248D01*
X162101800Y-100277243D01*
X162505824Y-99873923D01*
X162724750Y-99346691D01*
X162725248Y-98775813D01*
X162507243Y-98248200D01*
X162103923Y-97844176D01*
X161576691Y-97625250D01*
X161005813Y-97624752D01*
X160478200Y-97842757D01*
X160074176Y-98246077D01*
X159855250Y-98773309D01*
X159854752Y-99344187D01*
X157568989Y-99344187D01*
X156747401Y-98522599D01*
X156500839Y-98357852D01*
X156210000Y-98300000D01*
X155740633Y-98300000D01*
X155874838Y-97976799D01*
X155875162Y-97604833D01*
X155733117Y-97261057D01*
X155470327Y-96997808D01*
X155126799Y-96855162D01*
X154754833Y-96854838D01*
X154411057Y-96996883D01*
X154377882Y-97030000D01*
X126292463Y-97030000D01*
X126260327Y-96997808D01*
X125916799Y-96855162D01*
X125544833Y-96854838D01*
X125201057Y-96996883D01*
X125167882Y-97030000D01*
X121212463Y-97030000D01*
X121180327Y-96997808D01*
X120836799Y-96855162D01*
X120464833Y-96854838D01*
X120121057Y-96996883D01*
X119857808Y-97259673D01*
X119715162Y-97603201D01*
X119714838Y-97975167D01*
X119849056Y-98300000D01*
X113592463Y-98300000D01*
X113560327Y-98267808D01*
X113216799Y-98125162D01*
X112844833Y-98124838D01*
X112501057Y-98266883D01*
X112237808Y-98529673D01*
X112095162Y-98873201D01*
X112094838Y-99245167D01*
X89027000Y-99245167D01*
X89027000Y-94165167D01*
X115904838Y-94165167D01*
X116046883Y-94508943D01*
X116309673Y-94772192D01*
X116653201Y-94914838D01*
X117025167Y-94915162D01*
X117368943Y-94773117D01*
X117402118Y-94740000D01*
X120087537Y-94740000D01*
X120119673Y-94772192D01*
X120463201Y-94914838D01*
X120835167Y-94915162D01*
X121178943Y-94773117D01*
X121442192Y-94510327D01*
X121584838Y-94166799D01*
X121585162Y-93794833D01*
X121443117Y-93451057D01*
X121180327Y-93187808D01*
X120836799Y-93045162D01*
X120464833Y-93044838D01*
X120121057Y-93186883D01*
X120087882Y-93220000D01*
X117402463Y-93220000D01*
X117370327Y-93187808D01*
X117026799Y-93045162D01*
X116654833Y-93044838D01*
X116311057Y-93186883D01*
X116047808Y-93449673D01*
X115905162Y-93793201D01*
X115904838Y-94165167D01*
X89027000Y-94165167D01*
X89027000Y-85440000D01*
X96262041Y-85440000D01*
X96376115Y-86013489D01*
X96700971Y-86499670D01*
X97187152Y-86824526D01*
X97636680Y-86913943D01*
X97532041Y-87440000D01*
X97636680Y-87966057D01*
X97187152Y-88055474D01*
X96700971Y-88380330D01*
X96376115Y-88866511D01*
X96262041Y-89440000D01*
X96376115Y-90013489D01*
X96700971Y-90499670D01*
X97187152Y-90824526D01*
X97636680Y-90913943D01*
X97532041Y-91440000D01*
X97646115Y-92013489D01*
X97970971Y-92499670D01*
X98457152Y-92824526D01*
X99030641Y-92938600D01*
X99089359Y-92938600D01*
X99662848Y-92824526D01*
X100149029Y-92499670D01*
X100330000Y-92228828D01*
X100510971Y-92499670D01*
X100997152Y-92824526D01*
X101570641Y-92938600D01*
X101629359Y-92938600D01*
X102202848Y-92824526D01*
X102689029Y-92499670D01*
X102870000Y-92228828D01*
X103050971Y-92499670D01*
X103537152Y-92824526D01*
X104110641Y-92938600D01*
X104169359Y-92938600D01*
X104742848Y-92824526D01*
X105229029Y-92499670D01*
X105410000Y-92228828D01*
X105590971Y-92499670D01*
X106077152Y-92824526D01*
X106650641Y-92938600D01*
X106709359Y-92938600D01*
X107282848Y-92824526D01*
X107769029Y-92499670D01*
X107950000Y-92228828D01*
X108130971Y-92499670D01*
X108617152Y-92824526D01*
X109190641Y-92938600D01*
X109249359Y-92938600D01*
X109822848Y-92824526D01*
X110309029Y-92499670D01*
X110490000Y-92228828D01*
X110670971Y-92499670D01*
X111157152Y-92824526D01*
X111730641Y-92938600D01*
X111789359Y-92938600D01*
X112362848Y-92824526D01*
X112849029Y-92499670D01*
X113030000Y-92228828D01*
X113210971Y-92499670D01*
X113697152Y-92824526D01*
X114270641Y-92938600D01*
X114329359Y-92938600D01*
X114902848Y-92824526D01*
X115389029Y-92499670D01*
X115570000Y-92228828D01*
X115750971Y-92499670D01*
X116237152Y-92824526D01*
X116810641Y-92938600D01*
X116869359Y-92938600D01*
X117442848Y-92824526D01*
X117929029Y-92499670D01*
X118110000Y-92228828D01*
X118290971Y-92499670D01*
X118777152Y-92824526D01*
X119350641Y-92938600D01*
X119409359Y-92938600D01*
X119982848Y-92824526D01*
X120469029Y-92499670D01*
X120650000Y-92228828D01*
X120830971Y-92499670D01*
X121317152Y-92824526D01*
X121890641Y-92938600D01*
X121949359Y-92938600D01*
X122522848Y-92824526D01*
X123009029Y-92499670D01*
X123190000Y-92228828D01*
X123370971Y-92499670D01*
X123857152Y-92824526D01*
X124430641Y-92938600D01*
X124489359Y-92938600D01*
X125062848Y-92824526D01*
X125549029Y-92499670D01*
X125730000Y-92228828D01*
X125910971Y-92499670D01*
X126397152Y-92824526D01*
X126970641Y-92938600D01*
X127029359Y-92938600D01*
X127602848Y-92824526D01*
X128089029Y-92499670D01*
X128270000Y-92228828D01*
X128450971Y-92499670D01*
X128782184Y-92720980D01*
X128837852Y-93000839D01*
X129002599Y-93247401D01*
X130272599Y-94517401D01*
X130519160Y-94682148D01*
X130810000Y-94740000D01*
X154940000Y-94740000D01*
X155230839Y-94682148D01*
X155477401Y-94517401D01*
X156349680Y-93645122D01*
X156395167Y-93645162D01*
X156738943Y-93503117D01*
X157002192Y-93240327D01*
X157144838Y-92896799D01*
X157145162Y-92524833D01*
X157003117Y-92181057D01*
X156740327Y-91917808D01*
X156396799Y-91775162D01*
X156024833Y-91774838D01*
X155681057Y-91916883D01*
X155417808Y-92179673D01*
X155275162Y-92523201D01*
X155275121Y-92570077D01*
X154625198Y-93220000D01*
X131124802Y-93220000D01*
X130494417Y-92589615D01*
X130629029Y-92499670D01*
X130810000Y-92228828D01*
X130990971Y-92499670D01*
X131477152Y-92824526D01*
X132050641Y-92938600D01*
X132109359Y-92938600D01*
X132682848Y-92824526D01*
X133169029Y-92499670D01*
X133350000Y-92228828D01*
X133530971Y-92499670D01*
X134017152Y-92824526D01*
X134590641Y-92938600D01*
X134649359Y-92938600D01*
X135222848Y-92824526D01*
X135709029Y-92499670D01*
X135890000Y-92228828D01*
X136070971Y-92499670D01*
X136557152Y-92824526D01*
X137130641Y-92938600D01*
X137189359Y-92938600D01*
X137762848Y-92824526D01*
X138249029Y-92499670D01*
X138430000Y-92228828D01*
X138610971Y-92499670D01*
X139097152Y-92824526D01*
X139670641Y-92938600D01*
X139729359Y-92938600D01*
X140302848Y-92824526D01*
X140789029Y-92499670D01*
X140969992Y-92228839D01*
X141351510Y-92646821D01*
X141880973Y-92894968D01*
X142113000Y-92774469D01*
X142113000Y-91567000D01*
X142367000Y-91567000D01*
X142367000Y-92774469D01*
X142599027Y-92894968D01*
X143128490Y-92646821D01*
X143510000Y-92228848D01*
X143891510Y-92646821D01*
X144420973Y-92894968D01*
X144653000Y-92774469D01*
X144653000Y-91567000D01*
X144907000Y-91567000D01*
X144907000Y-92774469D01*
X145139027Y-92894968D01*
X145668490Y-92646821D01*
X145835471Y-92463881D01*
X145918073Y-92663299D01*
X146096702Y-92841927D01*
X146330091Y-92938600D01*
X147034250Y-92938600D01*
X147193000Y-92779850D01*
X147193000Y-91567000D01*
X147447000Y-91567000D01*
X147447000Y-92779850D01*
X147605750Y-92938600D01*
X148309909Y-92938600D01*
X148543298Y-92841927D01*
X148721927Y-92663299D01*
X148818600Y-92429910D01*
X148818600Y-91725750D01*
X148659850Y-91567000D01*
X147447000Y-91567000D01*
X147193000Y-91567000D01*
X144907000Y-91567000D01*
X144653000Y-91567000D01*
X142367000Y-91567000D01*
X142113000Y-91567000D01*
X142093000Y-91567000D01*
X142093000Y-91313000D01*
X142113000Y-91313000D01*
X142113000Y-91293000D01*
X142367000Y-91293000D01*
X142367000Y-91313000D01*
X144653000Y-91313000D01*
X144653000Y-91293000D01*
X144907000Y-91293000D01*
X144907000Y-91313000D01*
X147193000Y-91313000D01*
X147193000Y-91293000D01*
X147447000Y-91293000D01*
X147447000Y-91313000D01*
X148659850Y-91313000D01*
X148818600Y-91154250D01*
X148818600Y-90450090D01*
X148721927Y-90216701D01*
X148543298Y-90038073D01*
X148309909Y-89941400D01*
X147605750Y-89941400D01*
X147447002Y-90100148D01*
X147447002Y-89941400D01*
X147445988Y-89941400D01*
X147504958Y-89799026D01*
X147383817Y-89567000D01*
X146177000Y-89567000D01*
X146177000Y-89587000D01*
X145923000Y-89587000D01*
X145923000Y-89567000D01*
X143637000Y-89567000D01*
X143637000Y-89587000D01*
X143383000Y-89587000D01*
X143383000Y-89567000D01*
X141097000Y-89567000D01*
X141097000Y-89587000D01*
X140843000Y-89587000D01*
X140843000Y-89567000D01*
X140823000Y-89567000D01*
X140823000Y-89313000D01*
X140843000Y-89313000D01*
X140843000Y-89293000D01*
X141097000Y-89293000D01*
X141097000Y-89313000D01*
X143383000Y-89313000D01*
X143383000Y-89293000D01*
X143637000Y-89293000D01*
X143637000Y-89313000D01*
X145923000Y-89313000D01*
X145923000Y-89293000D01*
X146177000Y-89293000D01*
X146177000Y-89313000D01*
X147383817Y-89313000D01*
X147504958Y-89080974D01*
X147438633Y-88920842D01*
X147922848Y-88824526D01*
X148409029Y-88499670D01*
X148733885Y-88013489D01*
X148847959Y-87440000D01*
X148733885Y-86866511D01*
X148709490Y-86830000D01*
X162382560Y-86830000D01*
X162382560Y-88430000D01*
X162426838Y-88665317D01*
X162565910Y-88881441D01*
X162778110Y-89026431D01*
X163030000Y-89077440D01*
X164630000Y-89077440D01*
X164865317Y-89033162D01*
X165081441Y-88894090D01*
X165226431Y-88681890D01*
X165277440Y-88430000D01*
X165277440Y-87914187D01*
X170014752Y-87914187D01*
X170232757Y-88441800D01*
X170636077Y-88845824D01*
X171163309Y-89064750D01*
X171734187Y-89065248D01*
X172261800Y-88847243D01*
X172665824Y-88443923D01*
X172884750Y-87916691D01*
X172885248Y-87345813D01*
X172667243Y-86818200D01*
X172263923Y-86414176D01*
X171736691Y-86195250D01*
X171165813Y-86194752D01*
X170638200Y-86412757D01*
X170234176Y-86816077D01*
X170015250Y-87343309D01*
X170014752Y-87914187D01*
X165277440Y-87914187D01*
X165277440Y-86830000D01*
X165233162Y-86594683D01*
X165094090Y-86378559D01*
X164881890Y-86233569D01*
X164630000Y-86182560D01*
X163030000Y-86182560D01*
X162794683Y-86226838D01*
X162578559Y-86365910D01*
X162433569Y-86578110D01*
X162382560Y-86830000D01*
X148709490Y-86830000D01*
X148409029Y-86380330D01*
X147922848Y-86055474D01*
X147473320Y-85966057D01*
X147577959Y-85440000D01*
X147463885Y-84866511D01*
X147139029Y-84380330D01*
X146652848Y-84055474D01*
X146079359Y-83941400D01*
X146020641Y-83941400D01*
X145447152Y-84055474D01*
X144960971Y-84380330D01*
X144780000Y-84651172D01*
X144599029Y-84380330D01*
X144112848Y-84055474D01*
X143539359Y-83941400D01*
X143480641Y-83941400D01*
X142907152Y-84055474D01*
X142420971Y-84380330D01*
X142240000Y-84651172D01*
X142059029Y-84380330D01*
X141572848Y-84055474D01*
X140999359Y-83941400D01*
X140940641Y-83941400D01*
X140367152Y-84055474D01*
X139880971Y-84380330D01*
X139700000Y-84651172D01*
X139519029Y-84380330D01*
X139032848Y-84055474D01*
X138459359Y-83941400D01*
X138400641Y-83941400D01*
X137827152Y-84055474D01*
X137340971Y-84380330D01*
X137160000Y-84651172D01*
X136979029Y-84380330D01*
X136492848Y-84055474D01*
X135919359Y-83941400D01*
X135860641Y-83941400D01*
X135287152Y-84055474D01*
X134800971Y-84380330D01*
X134620000Y-84651172D01*
X134439029Y-84380330D01*
X133952848Y-84055474D01*
X133379359Y-83941400D01*
X133320641Y-83941400D01*
X132747152Y-84055474D01*
X132260971Y-84380330D01*
X132080000Y-84651172D01*
X131899029Y-84380330D01*
X131412848Y-84055474D01*
X130839359Y-83941400D01*
X130780641Y-83941400D01*
X130207152Y-84055474D01*
X129720971Y-84380330D01*
X129540000Y-84651172D01*
X129359029Y-84380330D01*
X128872848Y-84055474D01*
X128299359Y-83941400D01*
X128240641Y-83941400D01*
X127667152Y-84055474D01*
X127180971Y-84380330D01*
X127000000Y-84651172D01*
X126819029Y-84380330D01*
X126332848Y-84055474D01*
X125759359Y-83941400D01*
X125700641Y-83941400D01*
X125127152Y-84055474D01*
X124640971Y-84380330D01*
X124460000Y-84651172D01*
X124279029Y-84380330D01*
X123792848Y-84055474D01*
X123219359Y-83941400D01*
X123160641Y-83941400D01*
X122587152Y-84055474D01*
X122100971Y-84380330D01*
X121920000Y-84651172D01*
X121739029Y-84380330D01*
X121252848Y-84055474D01*
X120679359Y-83941400D01*
X120620641Y-83941400D01*
X120047152Y-84055474D01*
X119560971Y-84380330D01*
X119380000Y-84651172D01*
X119199029Y-84380330D01*
X118712848Y-84055474D01*
X118139359Y-83941400D01*
X118080641Y-83941400D01*
X117507152Y-84055474D01*
X117020971Y-84380330D01*
X116840000Y-84651172D01*
X116659029Y-84380330D01*
X116172848Y-84055474D01*
X115599359Y-83941400D01*
X115540641Y-83941400D01*
X114967152Y-84055474D01*
X114480971Y-84380330D01*
X114300000Y-84651172D01*
X114119029Y-84380330D01*
X113632848Y-84055474D01*
X113059359Y-83941400D01*
X113000641Y-83941400D01*
X112427152Y-84055474D01*
X111940971Y-84380330D01*
X111760000Y-84651172D01*
X111579029Y-84380330D01*
X111092848Y-84055474D01*
X110519359Y-83941400D01*
X110460641Y-83941400D01*
X109887152Y-84055474D01*
X109400971Y-84380330D01*
X109220000Y-84651172D01*
X109039029Y-84380330D01*
X108552848Y-84055474D01*
X107979359Y-83941400D01*
X107920641Y-83941400D01*
X107347152Y-84055474D01*
X106860971Y-84380330D01*
X106680000Y-84651172D01*
X106499029Y-84380330D01*
X106012848Y-84055474D01*
X105439359Y-83941400D01*
X105380641Y-83941400D01*
X104807152Y-84055474D01*
X104320971Y-84380330D01*
X104140000Y-84651172D01*
X103959029Y-84380330D01*
X103472848Y-84055474D01*
X102899359Y-83941400D01*
X102840641Y-83941400D01*
X102267152Y-84055474D01*
X101780971Y-84380330D01*
X101600000Y-84651172D01*
X101419029Y-84380330D01*
X100932848Y-84055474D01*
X100359359Y-83941400D01*
X100300641Y-83941400D01*
X99727152Y-84055474D01*
X99240971Y-84380330D01*
X99060000Y-84651172D01*
X98879029Y-84380330D01*
X98392848Y-84055474D01*
X97819359Y-83941400D01*
X97760641Y-83941400D01*
X97187152Y-84055474D01*
X96700971Y-84380330D01*
X96376115Y-84866511D01*
X96262041Y-85440000D01*
X89027000Y-85440000D01*
X89027000Y-82735167D01*
X151464838Y-82735167D01*
X151606883Y-83078943D01*
X151869673Y-83342192D01*
X152213201Y-83484838D01*
X152260077Y-83484879D01*
X153132599Y-84357401D01*
X153379160Y-84522148D01*
X153670000Y-84580000D01*
X180340000Y-84580000D01*
X180630839Y-84522148D01*
X180877401Y-84357401D01*
X181749680Y-83485122D01*
X181795167Y-83485162D01*
X182138943Y-83343117D01*
X182402192Y-83080327D01*
X182544838Y-82736799D01*
X182545162Y-82364833D01*
X182403117Y-82021057D01*
X182140327Y-81757808D01*
X181796799Y-81615162D01*
X181424833Y-81614838D01*
X181081057Y-81756883D01*
X180817808Y-82019673D01*
X180675162Y-82363201D01*
X180675121Y-82410077D01*
X180025198Y-83060000D01*
X153984802Y-83060000D01*
X153335122Y-82410320D01*
X153335162Y-82364833D01*
X153193117Y-82021057D01*
X152930327Y-81757808D01*
X152586799Y-81615162D01*
X152214833Y-81614838D01*
X151871057Y-81756883D01*
X151607808Y-82019673D01*
X151465162Y-82363201D01*
X151464838Y-82735167D01*
X89027000Y-82735167D01*
X89027000Y-79981887D01*
X162395000Y-79981887D01*
X162395000Y-80038113D01*
X162504233Y-80587264D01*
X162815302Y-81052811D01*
X163280849Y-81363880D01*
X163830000Y-81473113D01*
X164379151Y-81363880D01*
X164844698Y-81052811D01*
X165155767Y-80587264D01*
X165201163Y-80359041D01*
X170058086Y-80359041D01*
X170297611Y-80865134D01*
X170712577Y-81241041D01*
X171100961Y-81401904D01*
X171323000Y-81279915D01*
X171323000Y-80137000D01*
X171577000Y-80137000D01*
X171577000Y-81279915D01*
X171799039Y-81401904D01*
X172187423Y-81241041D01*
X172602389Y-80865134D01*
X172841914Y-80359041D01*
X172720629Y-80137000D01*
X171577000Y-80137000D01*
X171323000Y-80137000D01*
X170179371Y-80137000D01*
X170058086Y-80359041D01*
X165201163Y-80359041D01*
X165265000Y-80038113D01*
X165265000Y-79981887D01*
X165201164Y-79660959D01*
X170058086Y-79660959D01*
X170179371Y-79883000D01*
X171323000Y-79883000D01*
X171323000Y-78740085D01*
X171577000Y-78740085D01*
X171577000Y-79883000D01*
X172720629Y-79883000D01*
X172841914Y-79660959D01*
X172602389Y-79154866D01*
X172187423Y-78778959D01*
X171799039Y-78618096D01*
X171577000Y-78740085D01*
X171323000Y-78740085D01*
X171100961Y-78618096D01*
X170712577Y-78778959D01*
X170297611Y-79154866D01*
X170058086Y-79660959D01*
X165201164Y-79660959D01*
X165155767Y-79432736D01*
X164844698Y-78967189D01*
X164379151Y-78656120D01*
X163830000Y-78546887D01*
X163280849Y-78656120D01*
X162815302Y-78967189D01*
X162504233Y-79432736D01*
X162395000Y-79981887D01*
X89027000Y-79981887D01*
X89027000Y-71272400D01*
X158254960Y-71272400D01*
X158254960Y-73507600D01*
X158299238Y-73742917D01*
X158438310Y-73959041D01*
X158650510Y-74104031D01*
X158902400Y-74155040D01*
X161137600Y-74155040D01*
X161372917Y-74110762D01*
X161589041Y-73971690D01*
X161734031Y-73759490D01*
X161785040Y-73507600D01*
X161785040Y-72675750D01*
X167157400Y-72675750D01*
X167157400Y-73633910D01*
X167254073Y-73867299D01*
X167432702Y-74045927D01*
X167666091Y-74142600D01*
X168624250Y-74142600D01*
X168783000Y-73983850D01*
X168783000Y-72517000D01*
X169037000Y-72517000D01*
X169037000Y-73983850D01*
X169195750Y-74142600D01*
X170153909Y-74142600D01*
X170387298Y-74045927D01*
X170565927Y-73867299D01*
X170662600Y-73633910D01*
X170662600Y-72675750D01*
X170503850Y-72517000D01*
X169037000Y-72517000D01*
X168783000Y-72517000D01*
X167316150Y-72517000D01*
X167157400Y-72675750D01*
X161785040Y-72675750D01*
X161785040Y-71272400D01*
X161761274Y-71146090D01*
X167157400Y-71146090D01*
X167157400Y-72104250D01*
X167316150Y-72263000D01*
X168783000Y-72263000D01*
X168783000Y-70796150D01*
X169037000Y-70796150D01*
X169037000Y-72263000D01*
X170503850Y-72263000D01*
X170662600Y-72104250D01*
X170662600Y-71146090D01*
X170565927Y-70912701D01*
X170387298Y-70734073D01*
X170153909Y-70637400D01*
X169195750Y-70637400D01*
X169037000Y-70796150D01*
X168783000Y-70796150D01*
X168624250Y-70637400D01*
X167666091Y-70637400D01*
X167432702Y-70734073D01*
X167254073Y-70912701D01*
X167157400Y-71146090D01*
X161761274Y-71146090D01*
X161740762Y-71037083D01*
X161601690Y-70820959D01*
X161389490Y-70675969D01*
X161137600Y-70624960D01*
X158902400Y-70624960D01*
X158667083Y-70669238D01*
X158450959Y-70808310D01*
X158305969Y-71020510D01*
X158254960Y-71272400D01*
X89027000Y-71272400D01*
X89027000Y-68765167D01*
X156544838Y-68765167D01*
X156686883Y-69108943D01*
X156949673Y-69372192D01*
X157293201Y-69514838D01*
X157665167Y-69515162D01*
X158008943Y-69373117D01*
X158042118Y-69340000D01*
X179963070Y-69340000D01*
X179963070Y-69579490D01*
X180007348Y-69814807D01*
X180146420Y-70030931D01*
X180312473Y-70144390D01*
X180168407Y-70360000D01*
X175822463Y-70360000D01*
X175790327Y-70327808D01*
X175446799Y-70185162D01*
X175074833Y-70184838D01*
X174731057Y-70326883D01*
X174467808Y-70589673D01*
X174325162Y-70933201D01*
X174324838Y-71305167D01*
X174466883Y-71648943D01*
X174729673Y-71912192D01*
X175073201Y-72054838D01*
X175445167Y-72055162D01*
X175788943Y-71913117D01*
X175822118Y-71880000D01*
X180168407Y-71880000D01*
X180454241Y-72307781D01*
X180577290Y-72390000D01*
X180454241Y-72472219D01*
X180099928Y-73002486D01*
X179975510Y-73627978D01*
X179975510Y-73692022D01*
X180099928Y-74317514D01*
X180454241Y-74847781D01*
X180984508Y-75202094D01*
X181610000Y-75326512D01*
X182235492Y-75202094D01*
X182765759Y-74847781D01*
X183120072Y-74317514D01*
X183244490Y-73692022D01*
X183244490Y-73627978D01*
X183120072Y-73002486D01*
X182765759Y-72472219D01*
X182642710Y-72390000D01*
X182765759Y-72307781D01*
X183120072Y-71777514D01*
X183244490Y-71152022D01*
X183244490Y-71087978D01*
X183120072Y-70462486D01*
X182906547Y-70142923D01*
X183060931Y-70043580D01*
X183205921Y-69831380D01*
X183256930Y-69579490D01*
X183256930Y-67580510D01*
X183212652Y-67345193D01*
X183073580Y-67129069D01*
X182861380Y-66984079D01*
X182609490Y-66933070D01*
X180610510Y-66933070D01*
X180375193Y-66977348D01*
X180159069Y-67116420D01*
X180014079Y-67328620D01*
X179963070Y-67580510D01*
X179963070Y-67820000D01*
X158042463Y-67820000D01*
X158010327Y-67787808D01*
X157666799Y-67645162D01*
X157294833Y-67644838D01*
X156951057Y-67786883D01*
X156687808Y-68049673D01*
X156545162Y-68393201D01*
X156544838Y-68765167D01*
X89027000Y-68765167D01*
X89027000Y-66225167D01*
X155274838Y-66225167D01*
X155416883Y-66568943D01*
X155679673Y-66832192D01*
X156023201Y-66974838D01*
X156395167Y-66975162D01*
X156738943Y-66833117D01*
X156772118Y-66800000D01*
X173990000Y-66800000D01*
X174280839Y-66742148D01*
X174527401Y-66577401D01*
X175399680Y-65705122D01*
X175445167Y-65705162D01*
X175788943Y-65563117D01*
X176052192Y-65300327D01*
X176194838Y-64956799D01*
X176195162Y-64584833D01*
X176053117Y-64241057D01*
X175790327Y-63977808D01*
X175446799Y-63835162D01*
X175074833Y-63834838D01*
X174819570Y-63940310D01*
X174924838Y-63686799D01*
X174925162Y-63314833D01*
X174783117Y-62971057D01*
X174520327Y-62707808D01*
X174176799Y-62565162D01*
X174129923Y-62565121D01*
X173257401Y-61692599D01*
X173010839Y-61527852D01*
X172720000Y-61470000D01*
X168202463Y-61470000D01*
X168170327Y-61437808D01*
X167826799Y-61295162D01*
X167454833Y-61294838D01*
X167111057Y-61436883D01*
X166847808Y-61699673D01*
X166705162Y-62043201D01*
X166704838Y-62415167D01*
X166846883Y-62758943D01*
X167109673Y-63022192D01*
X167453201Y-63164838D01*
X167825167Y-63165162D01*
X168168943Y-63023117D01*
X168202118Y-62990000D01*
X172405198Y-62990000D01*
X173054878Y-63639680D01*
X173054838Y-63685167D01*
X173196883Y-64028943D01*
X173459673Y-64292192D01*
X173803201Y-64434838D01*
X174175167Y-64435162D01*
X174430430Y-64329690D01*
X174325162Y-64583201D01*
X174325121Y-64630077D01*
X173675198Y-65280000D01*
X156772463Y-65280000D01*
X156740327Y-65247808D01*
X156396799Y-65105162D01*
X156024833Y-65104838D01*
X155681057Y-65246883D01*
X155417808Y-65509673D01*
X155275162Y-65853201D01*
X155274838Y-66225167D01*
X89027000Y-66225167D01*
X89027000Y-60927978D01*
X179975510Y-60927978D01*
X179975510Y-60992022D01*
X180099928Y-61617514D01*
X180454241Y-62147781D01*
X180984508Y-62502094D01*
X181610000Y-62626512D01*
X182235492Y-62502094D01*
X182765759Y-62147781D01*
X183120072Y-61617514D01*
X183244490Y-60992022D01*
X183244490Y-60927978D01*
X183120072Y-60302486D01*
X182765759Y-59772219D01*
X182616700Y-59672621D01*
X182933068Y-59379726D01*
X183199627Y-58800355D01*
X183080807Y-58547000D01*
X181737000Y-58547000D01*
X181737000Y-58567000D01*
X181483000Y-58567000D01*
X181483000Y-58547000D01*
X180139193Y-58547000D01*
X180020373Y-58800355D01*
X180286932Y-59379726D01*
X180603300Y-59672621D01*
X180454241Y-59772219D01*
X180099928Y-60302486D01*
X179975510Y-60927978D01*
X89027000Y-60927978D01*
X89027000Y-56032400D01*
X158254960Y-56032400D01*
X158254960Y-58267600D01*
X158299238Y-58502917D01*
X158438310Y-58719041D01*
X158650510Y-58864031D01*
X158902400Y-58915040D01*
X161137600Y-58915040D01*
X161372917Y-58870762D01*
X161589041Y-58731690D01*
X161734031Y-58519490D01*
X161785040Y-58267600D01*
X161785040Y-56032400D01*
X167144960Y-56032400D01*
X167144960Y-58267600D01*
X167189238Y-58502917D01*
X167328310Y-58719041D01*
X167540510Y-58864031D01*
X167792400Y-58915040D01*
X170027600Y-58915040D01*
X170262917Y-58870762D01*
X170479041Y-58731690D01*
X170624031Y-58519490D01*
X170675040Y-58267600D01*
X170675040Y-56032400D01*
X170630762Y-55797083D01*
X170491690Y-55580959D01*
X170279490Y-55435969D01*
X170027600Y-55384960D01*
X167792400Y-55384960D01*
X167557083Y-55429238D01*
X167340959Y-55568310D01*
X167195969Y-55780510D01*
X167144960Y-56032400D01*
X161785040Y-56032400D01*
X161740762Y-55797083D01*
X161601690Y-55580959D01*
X161389490Y-55435969D01*
X161137600Y-55384960D01*
X158902400Y-55384960D01*
X158667083Y-55429238D01*
X158450959Y-55568310D01*
X158305969Y-55780510D01*
X158254960Y-56032400D01*
X89027000Y-56032400D01*
X89027000Y-54880510D01*
X179963070Y-54880510D01*
X179963070Y-56879490D01*
X180007348Y-57114807D01*
X180146420Y-57330931D01*
X180307649Y-57441094D01*
X180286932Y-57460274D01*
X180020373Y-58039645D01*
X180139193Y-58293000D01*
X181483000Y-58293000D01*
X181483000Y-58273000D01*
X181737000Y-58273000D01*
X181737000Y-58293000D01*
X183080807Y-58293000D01*
X183199627Y-58039645D01*
X182933068Y-57460274D01*
X182911137Y-57439970D01*
X183060931Y-57343580D01*
X183205921Y-57131380D01*
X183256930Y-56879490D01*
X183256930Y-54880510D01*
X183212652Y-54645193D01*
X183073580Y-54429069D01*
X182861380Y-54284079D01*
X182609490Y-54233070D01*
X180610510Y-54233070D01*
X180375193Y-54277348D01*
X180159069Y-54416420D01*
X180014079Y-54628620D01*
X179963070Y-54880510D01*
X89027000Y-54880510D01*
X89027000Y-52197000D01*
X185293000Y-52197000D01*
X185293000Y-148463000D01*
M02*
